<svg width="17" height="21" viewBox="0 0 17 21" fill="none" xmlns="http://www.w3.org/2000/svg">
<path d="M16.4972 16.0912C16.0944 14.8685 15.3691 13.8244 14.3438 12.9896C13.9488 12.6662 13.5566 12.4762 13.1456 12.4095C12.9859 12.3836 12.8221 12.3767 12.6584 12.3887C12.1158 12.4306 11.5743 12.593 11.0035 12.8855C10.8237 12.9788 10.6169 13.0063 10.3896 12.9695C10.1125 12.9244 9.82856 12.7807 9.64825 12.5945C8.33963 11.2413 7.28196 9.77127 6.41438 8.10151C6.24438 7.77283 6.17425 7.10769 6.56765 6.72328C7.02694 6.27532 7.35274 5.8133 7.56484 5.31123C7.79229 4.76995 7.78097 4.18495 7.52969 3.52436C7.06313 2.28552 6.30318 1.26705 5.2719 0.496148C4.93781 0.246221 4.58025 0.0887234 4.20795 0.0278996C3.58626 -0.0733207 2.96033 0.102082 2.39812 0.53452C1.88138 0.931298 1.4114 1.36425 0.864589 1.89181C0.36355 2.37494 0.294246 3.01558 0.232773 3.5803L0.231084 3.59213C0.166362 4.31133 0.294624 5.19514 0.62431 6.29455C1.1818 8.15491 2.10498 9.98534 3.44821 11.8911C3.72416 12.2832 4.8283 13.8174 5.11256 14.2035C6.49368 16.0823 7.93646 17.5396 9.52337 18.658C10.4614 19.3196 11.2587 19.722 11.961 19.8887L11.9728 19.8909C12.1176 19.9224 12.2729 19.9556 12.4252 19.9803C12.8005 20.0417 13.2928 20.0793 13.7749 19.8282C14.4491 19.4769 15.009 19.1685 15.5475 18.8053C16.494 18.1691 16.8487 17.1544 16.4972 16.0913L16.4972 16.0912ZM4.24375 3.6824C3.52845 2.68841 3.31855 1.6162 3.77516 1.28773C4.23177 0.959048 5.18198 1.49845 5.89729 2.49244C6.6126 3.48643 6.8225 4.55863 6.36606 4.88711C5.90927 5.21595 4.9591 4.67655 4.24375 3.6824ZM15.3638 17.4733C14.9072 17.802 13.957 17.2626 13.2417 16.2686C12.5264 15.2746 12.3165 14.2024 12.7729 13.8739C13.2293 13.5454 14.1797 14.0847 14.895 15.0787C15.6107 16.0726 15.8204 17.1448 15.3638 17.4733Z" fill="white"/>
</svg>
