<?xml version="1.0" encoding="UTF-8"?>
<svg id="Layer_2" xmlns="http://www.w3.org/2000/svg" viewBox="0 0 1011.85 318.22">
  <defs>
    <style>.cls-1 {
      fill: #083553;
    }

    .cls-2 {
      fill: #3a3a3c;
    }

    .cls-3 {
      fill: none;
      stroke: #231f20;
      stroke-miterlimit: 10;
    }</style>
  </defs>
  <g id="Layer_8">
    <g>
      <line class="cls-3" x1="307.89" y1="167.54" x2="294.69" y2="180.57" />
      <line class="cls-3" x1="155.6" y1="317.87" x2="311.6" y2="163.88" />
      <g>
        <path
          class="cls-2"
          d="M347.89,201.25l5.27-34.72c.14-.92,.44-1.38,.91-1.38,.43,0,.91,.55,1.44,1.65l14.54,30.04,14.49-30.41c.39-.85,.78-1.28,1.17-1.28,.46,0,.78,.55,.96,1.65l4.85,32.91c.25,1.78,.55,3.05,.91,3.83,.35,.78,.92,1.3,1.7,1.54,1.17,.36,2.27,.53,3.3,.53,.57,0,.85,.12,.85,.37,0,.39-.46,.59-1.38,.59-4.51,0-8.11-.11-10.81-.32-1.03-.07-1.54-.27-1.54-.58,0-.25,.19-.44,.56-.59s.47-.91,.29-2.29l-3.2-23.43h-.21l-11.61,24.23c-.96,1.99-1.62,2.99-1.97,2.99-.32,0-.94-.89-1.86-2.67-3.37-6.44-5.42-10.48-6.12-12.11-1.21-2.63-3.05-6.58-5.54-11.85h-.21l-2.77,21.2c-.11,.82-.16,1.65-.16,2.5s.53,1.46,1.6,1.7c.78,.18,1.53,.27,2.24,.27,.53,0,.8,.12,.8,.37,0,.39-.43,.59-1.28,.59s-1.94-.03-3.27-.08c-1.33-.05-2.1-.08-2.32-.08-.28,0-1.07,.03-2.37,.08-1.3,.05-2.26,.08-2.9,.08s-.96-.2-.96-.59c0-.25,.28-.37,.85-.37s1.1-.05,1.6-.16c1.06-.21,1.79-1.61,2.18-4.21Z"
        />
        <path
          class="cls-2"
          d="M420.79,192.68h-11.88c-.21,0-.37,.14-.48,.43l-2.88,7.62c-.53,1.42-.8,2.5-.8,3.25,0,1.1,.71,1.65,2.13,1.65h.8c.53,0,.8,.14,.8,.43,0,.36-.3,.53-.91,.53-.57,0-1.52-.03-2.85-.08-1.33-.05-2.26-.08-2.8-.08-3.09,.11-5.18,.16-6.28,.16-.67,0-1.01-.18-1.01-.53,0-.28,.21-.43,.64-.43,.57,0,1.12-.04,1.65-.11,1.14-.14,2.06-.64,2.77-1.49,.57-.67,1.15-1.77,1.76-3.3l13.37-33.44c.57-1.42,1.07-2.13,1.49-2.13,.39,0,.83,.57,1.33,1.7,3.27,8.24,7.67,19.15,13.21,32.75,1.49,3.51,3.05,5.45,4.69,5.8,.64,.14,1.38,.21,2.24,.21,.46,0,.69,.14,.69,.43,0,.21-.18,.36-.53,.43-.36,.07-.99,.11-1.92,.11-4.4,0-7.76-.04-10.06-.11-1.07-.04-1.6-.18-1.6-.43,0-.28,.25-.44,.75-.48,.57-.18,.73-.58,.48-1.22l-4.26-11.29c-.11-.25-.28-.37-.53-.37Zm-10.81-2.66h9.8c.25,0,.34-.11,.27-.32l-4.79-13.15c-.07-.32-.16-.48-.27-.48-.14,0-.25,.16-.32,.48l-4.9,13.1c-.07,.25,0,.37,.21,.37Z"
        />
        <path
          class="cls-2"
          d="M446.46,176.97l.59,22.37c.11,3.55,.73,5.52,1.86,5.91,.11,.04,.8,.12,2.08,.27,1.07,.14,1.6,.32,1.6,.53,0,.36-.41,.53-1.22,.53-1.35,0-2.75-.03-4.21-.08-1.46-.05-2.25-.08-2.4-.08,.04,0-.64,.03-2.02,.08-1.38,.05-2.63,.08-3.73,.08-.78,0-1.17-.18-1.17-.53,0-.25,.46-.41,1.38-.48,.64-.07,1.26-.14,1.86-.21,.67-.21,1.12-.78,1.33-1.7,.18-.82,.28-2.45,.32-4.9l.48-31.53c.03-1.21,.27-1.81,.69-1.81,.28,0,.94,.55,1.97,1.65,2.91,3.12,8.41,8.82,16.51,17.09,3.62,3.76,7.53,7.81,11.72,12.14h.27l-.53-23.91c-.04-1.31-.11-2.22-.21-2.72-.28-1.07-.82-1.76-1.6-2.08-.53-.21-1.47-.32-2.82-.32-.57,0-.85-.16-.85-.48s.46-.48,1.38-.48c1.06,0,2.34,.03,3.83,.08,1.49,.05,2.36,.08,2.61,.08,.04,0,.66-.03,1.86-.08,1.21-.05,2.32-.08,3.35-.08,.82,0,1.22,.16,1.22,.48s-.32,.48-.96,.48c-1.78,0-2.86,.59-3.25,1.76-.18,.64-.28,1.62-.32,2.93l-.59,33.6c-.04,1.1-.27,1.65-.69,1.65-.39,0-.99-.39-1.81-1.17-3.41-3.37-8.65-8.59-15.71-15.66-2.41-2.38-5.13-5.2-8.15-8.47-1.53-1.67-3.04-3.32-4.53-4.95h-.16Z"
        />
        <path
          class="cls-2"
          d="M508.5,192.68h-11.88c-.21,0-.37,.14-.48,.43l-2.88,7.62c-.53,1.42-.8,2.5-.8,3.25,0,1.1,.71,1.65,2.13,1.65h.8c.53,0,.8,.14,.8,.43,0,.36-.3,.53-.91,.53-.57,0-1.52-.03-2.85-.08-1.33-.05-2.26-.08-2.8-.08-3.09,.11-5.18,.16-6.28,.16-.67,0-1.01-.18-1.01-.53,0-.28,.21-.43,.64-.43,.57,0,1.12-.04,1.65-.11,1.14-.14,2.06-.64,2.77-1.49,.57-.67,1.15-1.77,1.76-3.3l13.37-33.44c.57-1.42,1.07-2.13,1.49-2.13,.39,0,.83,.57,1.33,1.7,3.27,8.24,7.67,19.15,13.21,32.75,1.49,3.51,3.05,5.45,4.69,5.8,.64,.14,1.38,.21,2.24,.21,.46,0,.69,.14,.69,.43,0,.21-.18,.36-.53,.43-.36,.07-.99,.11-1.92,.11-4.4,0-7.76-.04-10.07-.11-1.07-.04-1.6-.18-1.6-.43,0-.28,.25-.44,.75-.48,.57-.18,.73-.58,.48-1.22l-4.26-11.29c-.11-.25-.29-.37-.53-.37Zm-10.81-2.66h9.8c.25,0,.34-.11,.27-.32l-4.79-13.15c-.07-.32-.16-.48-.27-.48-.14,0-.25,.16-.32,.48l-4.9,13.1c-.07,.25,0,.37,.21,.37Z"
        />
        <path
          class="cls-2"
          d="M563.99,197.15v5.86c0,1.03-.23,1.67-.69,1.92-3.01,1.6-7.29,2.4-12.82,2.4-7.06,0-12.78-1.65-17.18-4.95-4.93-3.69-7.39-9-7.39-15.92,0-4.01,.94-7.62,2.82-10.81,1.63-2.8,3.78-5.01,6.44-6.6,3.83-2.31,8.61-3.46,14.33-3.46,3.37,0,6.51,.28,9.43,.85,1.67,.32,3.07,.52,4.21,.59,.5,.04,.75,.25,.75,.64,0-.32-.06,.37-.19,2.08s-.19,3.92-.19,6.66c0,.75-.2,1.12-.59,1.12-.29,0-.46-.23-.53-.69-.25-1.92-.85-3.39-1.81-4.42-.96-1.03-2.38-1.93-4.26-2.72-2.34-.96-4.88-1.44-7.62-1.44-4.4,0-7.92,1.1-10.54,3.3-3.27,2.73-4.9,7.07-4.9,13.03s1.7,10.6,5.11,14.36c3.41,3.76,7.88,5.64,13.42,5.64,2.95,0,4.67-.37,5.17-1.11,.25-.32,.37-.8,.37-1.43v-4.99c0-3.04-.02-5.13-.05-6.26-.04-1.7-.8-2.71-2.29-3.03-.5-.11-1.19-.16-2.08-.16-.53,0-.8-.14-.8-.43,0-.35,.37-.53,1.12-.53,1.03,0,2.47,.03,4.31,.08,1.85,.05,2.98,.08,3.41,.08,.53,0,1.55-.03,3.06-.08,1.51-.05,2.56-.08,3.17-.08,.71,0,1.06,.18,1.06,.53,0,.29-.21,.43-.62,.43s-.93,.05-1.54,.16c-1.29,.25-1.98,1.26-2.05,3.04-.04,1.14-.05,3.27-.05,6.39Z"
        />
        <path
          class="cls-2"
          d="M578.9,191.13v-9.37c0-6.36-.04-10.12-.11-11.29-.11-1.7-.87-2.72-2.29-3.04-.5-.11-1.19-.16-2.08-.16-.6,0-.91-.16-.91-.48s.39-.48,1.17-.48c1.07,0,2.51,.03,4.34,.08,1.83,.05,2.94,.08,3.33,.08,8.41,0,12.85-.02,13.31-.05,.92-.07,1.69-.18,2.29-.32,.6-.14,.89-.21,.85-.21,.21,0,.32,.16,.32,.48,0,.04-.05,.35-.16,.96-.11,.71-.19,1.54-.24,2.5-.05,.96-.15,2.13-.29,3.51-.07,.39-.25,.59-.54,.59-.25,0-.4-.19-.45-.59-.05-.39-.1-.76-.13-1.12-.04-.35-.11-.67-.21-.96-.43-1.03-1.62-1.67-3.58-1.92-1.21-.14-3.74-.21-7.59-.21-.25,0-.37,.18-.37,.53v13.47c0,.39,.12,.59,.37,.59,4.88,0,7.74-.03,8.56-.11,.61-.04,1.07-.09,1.39-.16,.53-.14,.93-.35,1.18-.64,.43-.46,.71-.69,.86-.69,.25,0,.37,.14,.37,.43,0,.04-.05,.39-.16,1.06-.11,.82-.2,1.76-.27,2.82-.14,2.02-.21,3.21-.21,3.57,0,.67-.16,1.01-.48,1.01s-.48-.19-.48-.56-.07-.99-.21-1.84c-.29-1.21-1.28-1.9-2.99-2.08-1-.11-3.53-.16-7.59-.16-.21,0-.32,.18-.32,.53v12.46c.07,1.88,.49,3.1,1.26,3.65,.77,.55,2.49,.83,5.16,.83,2.42,0,4.1-.21,5.03-.64,1.25-.57,2.05-1.88,2.41-3.94,.11-.53,.3-.8,.59-.8s.43,.32,.43,.96c0,2.17-.23,4.14-.69,5.91-.18,.64-.43,1.03-.75,1.17s-1.03,.21-2.13,.21c-3.09,0-6.16-.05-9.21-.16-3.05-.11-4.9-.16-5.54-.16-.32,0-1.32,.03-3.01,.08-1.69,.05-2.92,.08-3.7,.08-.71,0-1.06-.18-1.06-.53,0-.25,.39-.41,1.17-.48,.53-.07,1.07-.12,1.6-.16,.82-.18,1.33-1.15,1.54-2.93,.18-1.38,.27-5.17,.27-11.34Z"
        />
        <path
          class="cls-2"
          d="M609.26,201.25l5.27-34.72c.14-.92,.44-1.38,.91-1.38,.43,0,.91,.55,1.44,1.65l14.54,30.04,14.48-30.41c.39-.85,.78-1.28,1.17-1.28,.46,0,.78,.55,.96,1.65l4.85,32.91c.25,1.78,.55,3.05,.91,3.83,.35,.78,.92,1.3,1.7,1.54,1.17,.36,2.27,.53,3.3,.53,.57,0,.85,.12,.85,.37,0,.39-.46,.59-1.38,.59-4.51,0-8.11-.11-10.81-.32-1.03-.07-1.54-.27-1.54-.58,0-.25,.19-.44,.56-.59s.47-.91,.29-2.29l-3.2-23.43h-.21l-11.61,24.23c-.96,1.99-1.62,2.99-1.97,2.99-.32,0-.94-.89-1.86-2.67-3.37-6.44-5.42-10.48-6.12-12.11-1.21-2.63-3.05-6.58-5.54-11.85h-.21l-2.77,21.2c-.11,.82-.16,1.65-.16,2.5s.53,1.46,1.6,1.7c.78,.18,1.53,.27,2.24,.27,.53,0,.8,.12,.8,.37,0,.39-.43,.59-1.28,.59s-1.94-.03-3.28-.08c-1.33-.05-2.1-.08-2.32-.08-.28,0-1.07,.03-2.37,.08-1.3,.05-2.26,.08-2.9,.08s-.96-.2-.96-.59c0-.25,.28-.37,.85-.37s1.1-.05,1.6-.16c1.07-.21,1.79-1.61,2.18-4.21Z"
        />
        <path
          class="cls-2"
          d="M668.1,191.13v-9.37c0-6.36-.04-10.12-.11-11.29-.11-1.7-.87-2.72-2.29-3.04-.5-.11-1.19-.16-2.08-.16-.6,0-.91-.16-.91-.48s.39-.48,1.17-.48c1.07,0,2.51,.03,4.34,.08,1.83,.05,2.94,.08,3.33,.08,8.41,0,12.85-.02,13.31-.05,.92-.07,1.69-.18,2.29-.32,.6-.14,.89-.21,.85-.21,.21,0,.32,.16,.32,.48,0,.04-.05,.35-.16,.96-.11,.71-.19,1.54-.24,2.5-.05,.96-.15,2.13-.29,3.51-.07,.39-.25,.59-.54,.59-.25,0-.4-.19-.45-.59-.05-.39-.1-.76-.13-1.12-.04-.35-.11-.67-.21-.96-.43-1.03-1.62-1.67-3.58-1.92-1.21-.14-3.74-.21-7.59-.21-.25,0-.37,.18-.37,.53v13.47c0,.39,.12,.59,.37,.59,4.88,0,7.74-.03,8.56-.11,.61-.04,1.07-.09,1.39-.16,.53-.14,.93-.35,1.18-.64,.43-.46,.71-.69,.86-.69,.25,0,.37,.14,.37,.43,0,.04-.05,.39-.16,1.06-.11,.82-.2,1.76-.27,2.82-.14,2.02-.21,3.21-.21,3.57,0,.67-.16,1.01-.48,1.01s-.48-.19-.48-.56-.07-.99-.21-1.84c-.29-1.21-1.28-1.9-2.99-2.08-1-.11-3.53-.16-7.59-.16-.21,0-.32,.18-.32,.53v12.46c.07,1.88,.49,3.1,1.26,3.65,.77,.55,2.49,.83,5.16,.83,2.42,0,4.1-.21,5.03-.64,1.25-.57,2.05-1.88,2.41-3.94,.11-.53,.3-.8,.59-.8s.43,.32,.43,.96c0,2.17-.23,4.14-.69,5.91-.18,.64-.43,1.03-.75,1.17s-1.03,.21-2.13,.21c-3.09,0-6.16-.05-9.21-.16-3.05-.11-4.9-.16-5.54-.16-.32,0-1.32,.03-3.01,.08-1.69,.05-2.92,.08-3.7,.08-.71,0-1.06-.18-1.06-.53,0-.25,.39-.41,1.17-.48,.53-.07,1.07-.12,1.6-.16,.82-.18,1.33-1.15,1.54-2.93,.18-1.38,.27-5.17,.27-11.34Z"
        />
        <path
          class="cls-2"
          d="M704.21,176.97l.59,22.37c.11,3.55,.73,5.52,1.86,5.91,.11,.04,.8,.12,2.08,.27,1.07,.14,1.6,.32,1.6,.53,0,.36-.41,.53-1.22,.53-1.35,0-2.75-.03-4.21-.08-1.46-.05-2.25-.08-2.4-.08,.04,0-.64,.03-2.02,.08-1.38,.05-2.63,.08-3.73,.08-.78,0-1.17-.18-1.17-.53,0-.25,.46-.41,1.38-.48,.64-.07,1.26-.14,1.86-.21,.67-.21,1.12-.78,1.33-1.7,.18-.82,.28-2.45,.32-4.9l.48-31.53c.04-1.21,.27-1.81,.69-1.81,.28,0,.94,.55,1.97,1.65,2.91,3.12,8.41,8.82,16.51,17.09,3.62,3.76,7.53,7.81,11.72,12.14h.27l-.53-23.91c-.04-1.31-.11-2.22-.21-2.72-.28-1.07-.82-1.76-1.6-2.08-.53-.21-1.47-.32-2.82-.32-.57,0-.85-.16-.85-.48s.46-.48,1.38-.48c1.07,0,2.34,.03,3.83,.08,1.49,.05,2.36,.08,2.61,.08,.03,0,.66-.03,1.86-.08,1.21-.05,2.33-.08,3.36-.08,.82,0,1.22,.16,1.22,.48s-.32,.48-.96,.48c-1.78,0-2.86,.59-3.25,1.76-.18,.64-.28,1.62-.32,2.93l-.59,33.6c-.04,1.1-.27,1.65-.69,1.65-.39,0-.99-.39-1.81-1.17-3.41-3.37-8.65-8.59-15.71-15.66-2.42-2.38-5.13-5.2-8.15-8.47-1.53-1.67-3.04-3.32-4.53-4.95h-.16Z"
        />
        <path
          class="cls-2"
          d="M759.33,191.13v-21.83l-7.94,.21c-2.8,.07-4.53,.59-5.17,1.54-.46,.67-.76,1.3-.91,1.86-.11,.43-.3,.64-.59,.64-.32,0-.48-.28-.48-.85,0-.96,.37-3,1.12-6.12,.18-.67,.39-1.01,.64-1.01,.11,0,.39,.1,.85,.29,.46,.2,.94,.31,1.44,.35,1.92,.18,3.69,.27,5.33,.27h21.09c.6,0,1.47-.08,2.61-.24,1.14-.16,1.97-.24,2.5-.24,.28,0,.43,.37,.43,1.11,0,.35-.03,1.34-.08,2.96-.05,1.62-.1,2.7-.13,3.23-.04,.53-.18,.79-.43,.79-.32,0-.51-.35-.59-1.07l-.05-.59c-.18-1.88-2.27-2.88-6.28-2.98l-6.71-.16v21.83c0,6.04,.09,9.83,.27,11.4,.21,1.74,.91,2.7,2.08,2.88,1.03,.14,1.94,.21,2.72,.21,.57,0,.85,.14,.85,.43,0,.36-.34,.53-1.01,.53-1.35,0-3-.03-4.95-.08-1.95-.05-3.09-.08-3.41-.08s-1.32,.03-3.01,.08c-1.69,.05-2.92,.08-3.7,.08-.71,0-1.06-.18-1.06-.53,0-.25,.39-.41,1.17-.48,.53-.07,1.06-.12,1.6-.16,.82-.18,1.33-1.15,1.54-2.93,.18-1.56,.27-5.34,.27-11.34Z"
        />
        <path
          class="cls-2"
          d="M838.25,197.15v5.86c0,1.03-.23,1.67-.69,1.92-3.01,1.6-7.29,2.4-12.82,2.4-7.06,0-12.78-1.65-17.18-4.95-4.93-3.69-7.39-9-7.39-15.92,0-4.01,.94-7.62,2.82-10.81,1.63-2.8,3.78-5.01,6.44-6.6,3.83-2.31,8.61-3.46,14.33-3.46,3.37,0,6.51,.28,9.43,.85,1.67,.32,3.07,.52,4.21,.59,.5,.04,.75,.25,.75,.64,0-.32-.06,.37-.19,2.08-.12,1.7-.19,3.92-.19,6.66,0,.75-.2,1.12-.59,1.12-.28,0-.46-.23-.53-.69-.25-1.92-.85-3.39-1.81-4.42-.96-1.03-2.38-1.93-4.26-2.72-2.34-.96-4.88-1.44-7.62-1.44-4.4,0-7.92,1.1-10.54,3.3-3.27,2.73-4.9,7.07-4.9,13.03s1.7,10.6,5.11,14.36c3.41,3.76,7.88,5.64,13.42,5.64,2.95,0,4.67-.37,5.17-1.11,.25-.32,.37-.8,.37-1.43v-4.99c0-3.04-.02-5.13-.05-6.26-.04-1.7-.8-2.71-2.29-3.03-.5-.11-1.19-.16-2.08-.16-.53,0-.8-.14-.8-.43,0-.35,.37-.53,1.12-.53,1.03,0,2.47,.03,4.31,.08,1.85,.05,2.98,.08,3.41,.08,.53,0,1.55-.03,3.06-.08,1.51-.05,2.56-.08,3.17-.08,.71,0,1.06,.18,1.06,.53,0,.29-.21,.43-.62,.43s-.93,.05-1.54,.16c-1.29,.25-1.98,1.26-2.05,3.04-.04,1.14-.05,3.27-.05,6.39Z"
        />
        <path
          class="cls-2"
          d="M853.16,191.13v-9.37c0-6.36-.04-10.12-.11-11.29-.11-1.7-.87-2.72-2.29-3.04-.5-.11-1.19-.16-2.08-.16-.6,0-.91-.16-.91-.48s.39-.48,1.17-.48c1.1,0,2.54,.03,4.31,.08,1.78,.05,2.77,.08,2.98,.08,.6,0,1.87-.03,3.81-.08,1.93-.05,3.17-.08,3.7-.08,4.3,0,7.56,.76,9.8,2.29,.89,.6,1.67,1.51,2.34,2.72,.85,1.42,1.28,2.95,1.28,4.58,0,4.15-2.34,8.13-7.03,11.93,3.87,4.9,6,7.56,6.39,7.99,2.06,2.59,3.78,4.6,5.17,6.02,1.95,2.02,3.94,3.23,5.96,3.62,.43,.04,.83,.07,1.22,.11,.6,.07,.91,.23,.91,.48,0,.36-.34,.53-1.01,.53h-5.06c-2.56,0-4.46-.34-5.7-1.01-1.74-.92-4.17-3.53-7.3-7.83-1.53-2.17-3.28-4.61-5.27-7.35-.21-.25-.53-.37-.96-.37h-4.63c-.28,0-.43,.14-.43,.42v.74c0,6,.09,9.77,.27,11.32,.21,1.8,.91,2.77,2.08,2.91,1.07,.14,1.94,.21,2.61,.21,.43,0,.64,.14,.64,.43,0,.36-.36,.53-1.07,.53-1.21,0-2.8-.03-4.77-.08-1.97-.05-2.99-.08-3.06-.08-.25,0-1.19,.03-2.82,.08-1.63,.05-2.86,.08-3.67,.08-.71,0-1.06-.18-1.06-.53,0-.25,.39-.41,1.17-.48,.53-.07,1.07-.12,1.6-.16,.82-.18,1.33-1.15,1.54-2.93,.18-1.38,.27-5.17,.27-11.34Zm6.28-21.35v16.19c0,.53,.16,.85,.48,.96,.99,.36,2.34,.53,4.05,.53s2.96-.3,3.78-.91c2.09-1.53,3.14-4.19,3.14-7.99,0-3.37-.96-5.95-2.88-7.72-1.53-1.35-3.28-2.02-5.27-2.02-1.7,0-2.72,.11-3.04,.32-.18,.11-.27,.32-.27,.64Z"
        />
        <path
          class="cls-2"
          d="M909.02,207.32c-7.03,0-12.51-2.31-16.46-6.92-3.34-3.87-5.01-8.52-5.01-13.95s1.67-9.98,5.01-13.85c4.01-4.69,9.67-7.03,16.99-7.03,6.6,0,11.84,1.79,15.71,5.38,3.87,3.59,5.8,8.43,5.8,14.54s-1.99,11.41-5.96,15.5c-4.08,4.23-9.44,6.34-16.08,6.34Zm2.24-2.66c2.98,0,5.5-.94,7.56-2.82,3.2-2.88,4.79-7.67,4.79-14.38,0-5.82-1.51-10.54-4.53-14.17-2.91-3.44-6.6-5.17-11.08-5.17-3.66,0-6.6,1.12-8.84,3.36-2.84,2.84-4.26,7.28-4.26,13.31,0,5.72,1.46,10.4,4.37,14.06,3.02,3.87,7.01,5.8,11.98,5.8Z"
        />
        <path
          class="cls-2"
          d="M940.49,189.54v-7.77c0-6.36-.04-10.12-.11-11.29-.11-1.7-.87-2.72-2.29-3.04-.5-.11-1.19-.16-2.08-.16-.6,0-.91-.16-.91-.48s.39-.48,1.17-.48c1.03,0,2.48,.03,4.34,.08,1.86,.05,3.01,.08,3.44,.08,.39,0,1.41-.03,3.06-.08,1.65-.05,2.81-.08,3.49-.08,.78,0,1.17,.16,1.17,.48s-.29,.48-.85,.48c-.43,0-.94,.05-1.54,.16-1.21,.21-1.86,1.23-1.97,3.04-.07,1.17-.11,4.94-.11,11.31v7.47c0,6.47,1.38,10.84,4.15,13.12,1.77,1.46,3.99,2.19,6.66,2.19,2.98,0,5.43-.96,7.35-2.88,1.31-1.31,2.2-3.2,2.66-5.65,.28-1.63,.43-4.16,.43-7.57v-6.67c0-6.36-.04-10.13-.11-11.31-.11-1.71-.87-2.72-2.29-3.04-.5-.11-1.14-.16-1.92-.16-.6,0-.91-.16-.91-.48s.37-.48,1.12-.48c1.56,0,3.6,.05,6.12,.16,.11,0,.94-.03,2.5-.08,1.56-.05,2.75-.08,3.57-.08,.75,0,1.12,.16,1.12,.48s-.32,.48-.96,.48c-.43,0-.94,.05-1.54,.16-1.21,.21-1.86,1.22-1.97,3.04-.07,1.17-.11,4.93-.11,11.29v5.7c0,3.62-.29,6.55-.85,8.79-.78,3.09-2.18,5.5-4.21,7.24-2.98,2.56-6.67,3.83-11.08,3.83-5.18,0-9.12-1.22-11.82-3.67-3.16-2.84-4.74-7.54-4.74-14.11Z"
        />
        <path
          class="cls-2"
          d="M988.1,191.13v-9.37c0-6.36-.04-10.12-.11-11.29-.11-1.7-.87-2.72-2.29-3.04-.5-.11-1.19-.16-2.08-.16-.6,0-.91-.16-.91-.48s.39-.48,1.17-.48c1.07,0,2.51,.03,4.34,.08,1.83,.05,2.94,.08,3.33,.08,.71,0,1.96-.03,3.75-.08,1.79-.05,3.12-.08,3.97-.08,4.47,0,7.78,1.01,9.91,3.04,1.77,1.67,2.66,3.78,2.66,6.34,0,3.76-1.23,6.85-3.7,9.27-2.47,2.41-5.6,3.62-9.4,3.62-.57,0-.94-.02-1.12-.05-.43-.07-.64-.23-.64-.48,0-.39,.5-.58,1.49-.58,1.67,0,3.23-.78,4.69-2.34,1.63-1.77,2.45-3.92,2.45-6.44,0-3.44-1.05-6.11-3.14-7.99-1.53-1.38-3.3-2.08-5.33-2.08-.99,0-1.66,.06-2,.19-.34,.12-.51,.47-.51,1.04v21.3c0,6.04,.09,9.83,.27,11.4,.21,1.74,.91,2.7,2.08,2.88,1.03,.14,1.93,.21,2.72,.21,.57,0,.85,.14,.85,.43,0,.36-.34,.53-1.01,.53-1.35,0-2.99-.03-4.93-.08-1.93-.05-3.04-.08-3.33-.08-.32,0-1.32,.03-3.01,.08-1.69,.05-2.92,.08-3.7,.08-.71,0-1.06-.18-1.06-.53,0-.25,.39-.41,1.17-.48,.53-.07,1.07-.12,1.6-.16,.82-.18,1.33-1.15,1.54-2.93,.18-1.38,.27-5.17,.27-11.34Z"
        />
      </g>
      <g>
        <path
          class="cls-1"
          d="M365.95,151.26c-8.12,0-14.93-1.21-20.43-3.64-1.77-.75-2.66-2.33-2.66-4.76,0-5.04,.23-11.15,.7-18.33,.19-2.42,.75-3.64,1.68-3.64s1.4,.79,1.4,2.38c0,1.96,.42,4.34,1.26,7.14,2.8,9.42,9.47,14.13,20.01,14.13,5.88,0,10.59-1.73,14.13-5.18,3.08-3.08,4.62-6.67,4.62-10.78,0-7.74-4.57-15.21-13.71-22.39l-6.44-5.04c-13.81-10.82-20.71-21.88-20.71-33.17,0-7.74,2.99-14.09,8.96-19.03,5.97-4.94,13.76-7.42,23.37-7.42,6.06,0,12.27,.79,18.61,2.38,1.31,.37,1.96,.93,1.96,1.68,0-.19-.09,1.47-.28,4.97-.19,3.5-.28,7.44-.28,11.83,0,2.8-.51,4.2-1.54,4.2-.93,0-1.4-.84-1.4-2.52,0-3.08-1.21-6.16-3.64-9.24-3.64-4.57-8.72-6.86-15.25-6.86-5.13,0-9.19,1.33-12.18,3.99-2.99,2.66-4.48,6.14-4.48,10.43,0,3.27,1.05,6.37,3.15,9.31,2.1,2.94,5.99,6.56,11.69,10.85l3.92,2.94c8.4,6.35,14.32,12.2,17.77,17.56,3.45,5.37,5.18,11.41,5.18,18.12,0,10.54-4.39,18.66-13.15,24.35-5.88,3.82-13.29,5.74-22.25,5.74Z"
        />
        <path
          class="cls-1"
          d="M453.41,108.71V51.34l-20.85,.56c-7.37,.19-11.9,1.54-13.57,4.06-1.21,1.77-2.01,3.41-2.38,4.9-.28,1.12-.79,1.68-1.54,1.68-.84,0-1.26-.75-1.26-2.24,0-2.52,.98-7.88,2.94-16.09,.47-1.77,1.03-2.66,1.68-2.66,.28,0,1.03,.26,2.24,.77,1.21,.51,2.47,.82,3.78,.91,5.04,.47,9.7,.7,14,.7h55.42c1.59,0,3.87-.21,6.86-.63,2.99-.42,5.18-.63,6.58-.63,.75,0,1.12,.97,1.12,2.92,0,.93-.07,3.52-.21,7.79s-.26,7.09-.35,8.48c-.09,1.39-.47,2.08-1.12,2.08-.84,0-1.35-.93-1.54-2.8l-.14-1.54c-.47-4.94-5.97-7.56-16.51-7.84l-17.63-.42v57.38c0,15.86,.23,25.84,.7,29.95,.56,4.57,2.38,7.09,5.46,7.56,2.71,.37,5.08,.56,7.14,.56,1.49,0,2.24,.37,2.24,1.12,0,.93-.89,1.4-2.66,1.4-3.55,0-7.88-.07-13.01-.21-5.13-.14-8.12-.21-8.96-.21s-3.48,.07-7.91,.21c-4.43,.14-7.67,.21-9.73,.21-1.87,0-2.8-.47-2.8-1.4,0-.65,1.03-1.07,3.08-1.26,1.4-.19,2.8-.33,4.2-.42,2.15-.47,3.5-3.03,4.06-7.7,.47-4.1,.7-14.04,.7-29.81Z"
        />
        <path
          class="cls-1"
          d="M534.02,108.71v-24.63c0-16.7-.09-26.59-.28-29.67-.28-4.48-2.29-7.14-6.02-7.98-1.31-.28-3.13-.42-5.46-.42-1.59,0-2.38-.42-2.38-1.26s1.03-1.26,3.08-1.26c2.8,0,6.6,.07,11.41,.21,4.8,.14,7.72,.21,8.75,.21,22.11,0,33.77-.05,34.99-.14,2.42-.19,4.43-.47,6.02-.84,1.58-.37,2.33-.56,2.24-.56,.56,0,.84,.42,.84,1.26,0,.09-.14,.93-.42,2.52-.28,1.87-.49,4.06-.63,6.58s-.4,5.6-.77,9.24c-.19,1.03-.66,1.54-1.41,1.54-.66,0-1.05-.51-1.19-1.54-.14-1.03-.26-2-.35-2.94-.09-.93-.28-1.77-.56-2.52-1.12-2.71-4.26-4.38-9.41-5.04-3.19-.37-9.83-.56-19.95-.56-.66,0-.98,.47-.98,1.4v35.41c0,1.03,.33,1.54,.98,1.54,12.84,0,20.33-.09,22.49-.28,1.59-.09,2.81-.23,3.65-.42,1.4-.37,2.44-.93,3.09-1.68,1.12-1.21,1.87-1.82,2.25-1.82,.66,0,.98,.37,.98,1.12,0,.09-.14,1.03-.42,2.8-.28,2.15-.52,4.62-.7,7.42-.38,5.32-.56,8.44-.56,9.38,0,1.77-.42,2.66-1.27,2.66s-1.26-.49-1.26-1.47-.19-2.59-.56-4.83c-.75-3.17-3.37-4.99-7.87-5.46-2.62-.28-9.28-.42-19.96-.42-.56,0-.84,.47-.84,1.4v32.75c.19,4.95,1.29,8.14,3.3,9.59,2.01,1.45,6.53,2.17,13.56,2.17,6.37,0,10.77-.56,13.21-1.68,3.28-1.49,5.39-4.94,6.32-10.36,.28-1.4,.79-2.1,1.54-2.1s1.12,.84,1.12,2.52c0,5.69-.61,10.87-1.82,15.53-.47,1.68-1.12,2.71-1.96,3.08-.84,.37-2.71,.56-5.6,.56-8.12,0-16.19-.14-24.21-.42-8.03-.28-12.88-.42-14.55-.42-.84,0-3.48,.07-7.91,.21-4.43,.14-7.68,.21-9.73,.21-1.87,0-2.8-.47-2.8-1.4,0-.65,1.03-1.07,3.08-1.26,1.4-.19,2.8-.33,4.2-.42,2.14-.47,3.5-3.03,4.06-7.7,.47-3.64,.7-13.57,.7-29.81Z"
        />
        <path
          class="cls-1"
          d="M659.41,112.77h-31.21c-.56,0-.98,.37-1.26,1.12l-7.56,20.01c-1.4,3.73-2.1,6.58-2.1,8.54,0,2.89,1.87,4.34,5.6,4.34h2.1c1.4,0,2.1,.37,2.1,1.12,0,.93-.79,1.4-2.38,1.4-1.49,0-3.99-.07-7.49-.21s-5.95-.21-7.35-.21c-8.12,.28-13.62,.42-16.51,.42-1.77,0-2.66-.47-2.66-1.4,0-.75,.56-1.12,1.68-1.12,1.49,0,2.94-.09,4.34-.28,2.98-.37,5.41-1.68,7.28-3.92,1.49-1.77,3.03-4.66,4.62-8.68l35.13-87.89c1.49-3.73,2.8-5.6,3.92-5.6,1.03,0,2.19,1.49,3.5,4.48,8.58,21.65,20.15,50.33,34.71,86.07,3.92,9.24,8.02,14.32,12.31,15.25,1.68,.37,3.64,.56,5.88,.56,1.21,0,1.82,.37,1.82,1.12,0,.56-.47,.93-1.4,1.12-.93,.19-2.61,.28-5.04,.28-11.57,0-20.39-.09-26.45-.28-2.8-.09-4.2-.47-4.2-1.12,0-.75,.65-1.17,1.96-1.26,1.49-.47,1.91-1.54,1.26-3.22l-11.2-29.67c-.28-.65-.75-.98-1.4-.98Zm-28.41-7h25.75c.65,0,.89-.28,.7-.84l-12.59-34.57c-.19-.84-.42-1.26-.7-1.26-.37,0-.65,.42-.84,1.26l-12.88,34.43c-.19,.65,0,.98,.56,.98Z"
        />
        <path
          class="cls-1"
          d="M737.92,84.08v24.63c0,10.54,.14,17.49,.42,20.85,.37,5.04,1.21,8.12,2.52,9.24,2.33,2.05,7.98,3.08,16.93,3.08,8.49,0,13.95-1.31,16.37-3.92,2.05-2.24,3.26-5.04,3.64-8.4,.19-1.4,.7-2.1,1.54-2.1,.75,0,1.12,.79,1.12,2.38,0,5.6-.7,10.96-2.1,16.09-.56,1.96-1.68,3.12-3.36,3.5-.65,.19-2.47,.28-5.46,.28-7.47,0-15.35-.14-23.65-.42-8.3-.28-13.99-.42-17.07-.42-.84,0-3.48,.07-7.91,.21-4.43,.14-7.67,.21-9.73,.21-1.87,0-2.8-.47-2.8-1.4,0-.65,1.03-1.07,3.08-1.26,1.4-.19,2.8-.33,4.2-.42,2.14-.47,3.5-3.03,4.06-7.7,.47-3.64,.7-13.57,.7-29.81v-24.63c0-16.7-.09-26.59-.28-29.67-.19-3.45-1.21-5.78-3.08-7-1.49-.93-4.01-1.4-7.56-1.4-1.59,0-2.38-.42-2.38-1.26s1.03-1.26,3.08-1.26c2.42,0,5.97,.07,10.64,.21,4.66,.14,7.51,.21,8.54,.21,.93,0,3.85-.07,8.75-.21,4.9-.14,8.33-.21,10.29-.21s2.94,.42,2.94,1.26-.84,1.26-2.52,1.26c-2.05,0-3.87,.14-5.46,.42-3.17,.56-4.9,3.22-5.18,7.98-.19,3.08-.28,12.97-.28,29.67Z"
        />
        <path
          class="cls-1"
          d="M823.85,108.71V51.34l-20.85,.56c-7.37,.19-11.9,1.54-13.57,4.06-1.21,1.77-2.01,3.41-2.38,4.9-.28,1.12-.79,1.68-1.54,1.68-.84,0-1.26-.75-1.26-2.24,0-2.52,.98-7.88,2.94-16.09,.47-1.77,1.03-2.66,1.68-2.66,.28,0,1.03,.26,2.24,.77,1.21,.51,2.47,.82,3.78,.91,5.04,.47,9.7,.7,13.99,.7h55.42c1.59,0,3.87-.21,6.86-.63,2.99-.42,5.18-.63,6.58-.63,.75,0,1.12,.97,1.12,2.92,0,.93-.07,3.52-.21,7.79s-.26,7.09-.35,8.48c-.09,1.39-.47,2.08-1.12,2.08-.84,0-1.35-.93-1.54-2.8l-.14-1.54c-.47-4.94-5.97-7.56-16.51-7.84l-17.63-.42v57.38c0,15.86,.23,25.84,.7,29.95,.56,4.57,2.38,7.09,5.46,7.56,2.71,.37,5.08,.56,7.14,.56,1.49,0,2.24,.37,2.24,1.12,0,.93-.89,1.4-2.66,1.4-3.55,0-7.89-.07-13.02-.21-5.13-.14-8.12-.21-8.96-.21s-3.48,.07-7.91,.21c-4.43,.14-7.67,.21-9.73,.21-1.87,0-2.8-.47-2.8-1.4,0-.65,1.03-1.07,3.08-1.26,1.4-.19,2.8-.33,4.2-.42,2.15-.47,3.5-3.03,4.06-7.7,.47-4.1,.7-14.04,.7-29.81Z"
        />
        <path
          class="cls-1"
          d="M922.79,88h53.46c.56,0,.84-.33,.84-.98v-2.94c0-16.7-.09-26.59-.28-29.67-.28-4.48-2.29-7.14-6.02-7.98-1.31-.28-3.13-.42-5.46-.42-1.59,0-2.38-.42-2.38-1.26s.98-1.26,2.94-1.26c2.8,0,6.62,.07,11.48,.21,4.85,.14,7.74,.21,8.68,.21s3.61-.07,8.05-.21c4.43-.14,7.63-.21,9.59-.21s2.94,.42,2.94,1.26-.84,1.26-2.52,1.26c-1.12,0-2.47,.14-4.06,.42-3.17,.56-4.9,3.22-5.18,7.98-.19,3.08-.28,12.97-.28,29.67v24.63c0,15.86,.23,25.84,.7,29.95,.56,4.57,2.38,7.09,5.46,7.56,2.71,.37,5.08,.56,7.14,.56,1.49,0,2.24,.37,2.24,1.12,0,.93-.93,1.4-2.8,1.4-3.45,0-7.75-.07-12.88-.21-5.13-.14-8.12-.21-8.96-.21s-3.45,.07-7.84,.21c-4.39,.14-7.61,.21-9.66,.21s-2.94-.47-2.94-1.4c0-.65,1.03-1.07,3.08-1.26,1.4-.19,2.8-.33,4.2-.42,2.15-.47,3.5-3.03,4.06-7.7,.47-3.64,.7-13.57,.7-29.81v-12.31c0-.56-.28-.84-.84-.84h-53.46c-.56,0-.84,.28-.84,.84v12.31c0,15.86,.23,25.84,.7,29.95,.56,4.57,2.38,7.09,5.46,7.56,2.71,.37,5.08,.56,7.14,.56,1.49,0,2.24,.37,2.24,1.12,0,.93-.93,1.4-2.8,1.4-3.45,0-7.75-.07-12.88-.21-5.13-.14-8.12-.21-8.96-.21s-3.48,.07-7.91,.21c-4.43,.14-7.67,.21-9.73,.21-1.87,0-2.8-.47-2.8-1.4,0-.65,1.03-1.07,3.08-1.26,1.4-.19,2.8-.33,4.2-.42,2.14-.47,3.5-3.03,4.06-7.7,.47-3.64,.7-13.57,.7-29.81v-24.63c0-16.7-.09-26.59-.28-29.67-.28-4.48-2.29-7.14-6.02-7.98-1.31-.28-3.13-.42-5.46-.42-1.59,0-2.38-.42-2.38-1.26s.98-1.26,2.94-1.26c2.8,0,6.62,.07,11.47,.21,4.85,.14,7.74,.21,8.68,.21s3.62-.07,8.05-.21c4.43-.14,7.63-.21,9.59-.21s2.94,.42,2.94,1.26-.84,1.26-2.52,1.26c-1.12,0-2.47,.14-4.06,.42-3.17,.56-4.9,3.22-5.18,7.98-.19,3.08-.28,12.97-.28,29.67v2.94c0,.65,.28,.98,.84,.98Z"
        />
      </g>
      <polygon
        class="cls-2"
        points="169.58 289.59 296.92 163.88 167.63 163.88 155.6 175.75 143.57 163.88 14.28 163.88 141.62 289.59 141.62 255.79 72.89 187.93 143.57 187.93 143.57 223.23 155.6 235.1 167.63 223.23 167.63 187.93 238.31 187.93 169.58 255.79 169.58 289.59"
      />
      <polyline
        class="cls-1"
        points="230.65 88.16 296.92 153.59 14.28 153.59 38.04 130.14 235.58 130.14 217.54 111.46 56.96 111.46 155.6 14.07 211.64 69.4 176.65 69.4 155.6 48.35 118.32 88.16 230.65 88.16"
      />
      <polygon
        class="cls-2"
        points=".4 163.88 156 317.47 311.6 163.88 304.27 163.88 155.6 310.63 6.93 163.88 .4 163.88"
      />
      <polygon class="cls-1" points="0 153.59 155.6 0 311.2 153.59 303.87 153.59 155.2 6.84 6.52 153.59 0 153.59" />
    </g>
  </g>
</svg>
