<svg width="16" height="25" viewBox="0 0 16 25" fill="none" xmlns="http://www.w3.org/2000/svg">
<path d="M3.08446 22.6738H12.9031C13.5328 22.6738 14.043 23.1833 14.043 23.812C14.043 24.4399 13.5328 24.951 12.9031 24.951H3.08446C2.45655 24.951 1.94463 24.4399 1.94463 23.812C1.94463 23.1825 2.45655 22.6738 3.08466 22.6738H3.08446Z" fill="black"/>
<path d="M7.99449 21.4705C7.19423 21.4705 -0.000762939 12.4095 -0.000762939 7.99525C-0.000762939 3.57917 3.58021 0 7.99449 0C12.4106 0 15.9883 3.57926 15.9883 7.99525C15.9885 12.4096 8.79406 21.4705 7.99449 21.4705ZM12.6224 7.90652C12.6224 5.35203 10.5509 3.27864 7.99449 3.27864C5.43829 3.27864 3.36661 5.35183 3.36661 7.90652C3.36661 10.4627 5.4381 12.5344 7.99449 12.5344C10.5509 12.5342 12.6224 10.4627 12.6224 7.90652Z" fill="black"/>
</svg>
