<svg width="14" height="21" viewBox="0 0 14 21" fill="none" xmlns="http://www.w3.org/2000/svg">
<path d="M6.99987 0C3.15811 0 0 2.99571 0 7.26909C0 8.79401 0.359258 9.85486 1.02652 11.0299L6.52882 20.7221V20.7219C6.62366 20.8933 6.80413 20.9996 7 20.9996C7.19587 20.9996 7.37634 20.8933 7.47118 20.7219L12.9735 11.0297C13.6407 9.85486 14 8.79402 14 7.26909C14 2.99576 10.8418 4.40149e-06 7.00014 4.40149e-06L6.99987 0ZM6.99987 3.76906C8.78411 3.76906 10.2305 5.21548 10.2305 6.99972C10.2305 8.78397 8.78411 10.2304 6.99987 10.2304C5.21562 10.2304 3.76921 8.78397 3.76921 6.99972C3.76921 5.21548 5.21562 3.76906 6.99987 3.76906Z" fill="white"/>
</svg>
