<svg width="22" height="22" viewBox="0 0 22 22" fill="none" xmlns="http://www.w3.org/2000/svg">
<path d="M5.45584 14.9172C5.09296 15.2801 5.06263 15.838 5.38808 16.1635C5.71354 16.4889 6.27147 16.4586 6.63435 16.0957L16.0953 6.63478C16.4582 6.2719 16.4885 5.71397 16.163 5.38851C15.8376 5.06306 15.2797 5.09339 14.9168 5.45627L5.45584 14.9172Z" fill="#0E579C"/>
<path d="M14.9153 16.0959C15.2781 16.4588 15.8361 16.4891 16.1615 16.1637C16.487 15.8382 16.4566 15.2803 16.0938 14.9174L6.63283 5.45647C6.26995 5.09359 5.71202 5.06326 5.38656 5.38872C5.0611 5.71417 5.09143 6.2721 5.45431 6.63498L14.9153 16.0959Z" fill="#0E579C"/>
</svg>
