<svg width="1253" height="321" viewBox="0 0 1253 321" fill="none" xmlns="http://www.w3.org/2000/svg">
<path d="M708.855 166.57C708.476 168.324 707.385 169.794 706.437 169.842L705.821 170.174C702.263 172.031 698.57 173.617 694.772 174.915L693.492 175.389C691.74 176.402 689.936 177.32 688.087 178.14C686.38 178.898 682.207 180.7 680.642 181.317C679.077 181.933 675.663 184.399 674.857 184.588C674.051 184.778 671.016 186.912 668.456 187.765C665.895 188.619 659.778 192.507 658.972 192.507C657.665 192.853 656.45 193.485 655.416 194.356C654.196 195.278 652.894 196.088 651.528 196.775C649.826 197.474 648.164 198.265 646.549 199.146C645.364 199.857 640.906 202.702 639.01 203.508C635.974 204.687 633.013 206.049 630.143 207.586H629.574L627.25 208.344C625.211 209.72 620.991 212.185 617.767 213.845L614.922 215.41C613.628 216.226 612.263 216.925 610.844 217.496L607.999 218.492C606.087 219.986 603.869 221.038 601.503 221.574C600.791 221.574 598.8 223.328 598.183 223.945C596.918 224.885 595.486 225.577 593.963 225.984C591.755 226.45 589.523 226.799 587.277 227.027V229.398C587.277 229.919 585.191 230.536 583.958 230.773H583.579C582.001 231.129 580.584 231.995 579.548 233.239C576.529 235.087 573.356 236.674 570.065 237.98C568.737 238.739 566.129 241.631 565.892 241.157C565.655 240.683 564.944 240.493 564.47 241.442C563.995 242.39 560.866 243.196 560.913 243.528C560.898 243.665 560.849 243.795 560.772 243.909C560.695 244.023 560.591 244.117 560.47 244.182C560.349 244.247 560.214 244.282 560.077 244.284C559.939 244.285 559.803 244.254 559.68 244.192H558.922C558.787 244.135 558.642 244.105 558.495 244.105C558.348 244.105 558.203 244.135 558.068 244.192C557.215 245.045 556.598 246.515 555.603 246.705H554.085C552.852 247.322 550.434 248.554 548.822 249.455C547.21 250.356 540.192 254.197 537.11 256.331L534.17 258.133C533.532 258.562 532.827 258.883 532.084 259.081C531.058 259.007 530.027 259.007 529.001 259.081C528.48 259.081 528.527 260.314 528.006 260.741L527.437 261.262C526.584 261.671 525.825 262.252 525.208 262.969H524.829H523.359C522.448 263.865 521.593 264.815 520.798 265.814C520.277 266.526 516.957 265.814 516.057 265.814V266.336L515.63 268.138C514.118 268.453 512.683 269.065 511.41 269.94C510.068 270.642 508.602 271.077 507.095 271.22L506.62 272.737L506.146 274.255C504.947 274.926 503.694 275.497 502.4 275.962L500.883 275.25C500.409 275.013 498.607 276.815 497.943 277.432C495.789 278.917 493.503 280.203 491.115 281.272L489.266 282.647L487.416 284.117C485.027 284.923 482.761 286.056 480.683 287.484C478.947 288.287 477.156 288.968 475.325 289.523C473.077 291.327 470.664 292.914 468.118 294.265L465.035 295.071C464.087 295.308 462.665 295.071 462.143 295.592L460.626 297.11C459.774 297.744 458.778 298.159 457.728 298.316C456.677 298.473 455.604 298.368 454.604 298.011L453.892 300.05L453.608 300.903C452.427 301.561 451.208 302.147 449.957 302.658L442.654 304.744C438.721 306.672 434.92 308.858 431.274 311.288L429.757 311.714L423.972 313.374C417.903 315.697 411.122 318.116 408.941 318.637C406.76 319.159 400.927 320.771 400.643 320.581C399.923 320.354 399.165 320.273 398.414 320.344C397.703 320.344 395.332 320.344 395.237 319.823C395.142 319.301 393.862 317.973 392.819 318.4C391.776 318.827 389.215 319.159 389.31 318.4C389.405 317.641 385.896 318.732 384.568 318.4C383.241 318.068 379.827 317.31 379.352 318.163H378.736L375.085 318.779C371.007 318.779 367.498 319.064 367.308 318.779C366.644 318.335 366.025 317.827 365.459 317.262C362.488 316.613 359.584 315.692 356.782 314.512V312.188C357.209 310.376 357.731 308.588 358.346 306.83L358.726 306.214C359.154 305.274 359.473 304.287 359.674 303.274C359.967 301.68 359.802 300.036 359.2 298.532C358.489 297.868 355.786 298.248 355.786 296.778C355.786 295.308 354.506 291.325 352.941 290.756C351.376 290.187 348.579 286.014 346.492 286.014L347.678 283.548L348.247 282.363C347.849 280.076 347.326 277.812 346.682 275.582C346.113 273.448 341.94 264.819 340.138 260.456L338.194 256.568V256.189C338.782 254.876 339.181 253.487 339.38 252.063C339.257 249.884 338.842 247.731 338.147 245.662C338.309 245.086 338.565 244.541 338.905 244.05C339.285 243.338 339.474 240.92 338.431 240.541C337.388 240.161 334.78 243.433 332.931 244.476C331.082 245.52 323.068 250.024 319.038 252.206C315.007 254.387 303.864 260.598 302.868 261.167C301.872 261.736 297.083 263.918 294.191 265.293C291.298 266.668 283.285 271.741 281.72 272.453C280.155 273.164 275.224 276.341 273.564 277.194C271.905 278.048 266.926 279.992 266.072 280.466C265.219 280.94 261.663 282.742 260.003 283.501C258.343 284.26 251.942 286.536 250.045 287.199L241.273 290.661C238.854 290.65 236.452 290.25 234.16 289.476C233.734 289.476 232.453 289.855 233.07 290.092C233.686 290.329 234.919 291.42 234.066 292.083H233.734L231.363 292.463C229.49 292.687 227.606 292.814 225.72 292.842C225.341 292.842 222.733 292.083 220.978 291.562C219.224 291.04 213.724 289.428 213.961 287.389L211.495 286.014L209.93 285.161C208.792 283.311 208.365 281.984 208.934 282.173C209.503 282.363 211.495 282.505 211.542 282.173C211.59 281.841 211.305 280.039 210.784 280.087L209.503 281.035C207.259 280.012 205.194 278.635 203.387 276.957L201.68 274.824L201.158 274.112C201.537 272.927 201.158 271.789 200.447 271.552C199.735 271.315 200.874 269.56 200.874 269.371C199.742 268.459 198.499 267.694 197.175 267.095L197.459 265.008C197.568 264.388 197.475 263.749 197.193 263.185C196.912 262.622 196.456 262.164 195.895 261.879L194.946 261.262C193.713 260.172 193.808 259.034 194.946 258.797C196.708 258.189 198.323 257.22 199.688 255.951C200.224 255.379 200.869 254.919 201.586 254.602C202.303 254.284 203.077 254.114 203.861 254.102L204.619 253.77C205.967 253.01 207.237 252.12 208.413 251.115L209.172 250.641C211.205 250.028 213.281 249.569 215.383 249.266V245.946V245.283C215.383 244.666 216.047 244.429 216.853 244.856C217.212 244.905 217.577 244.875 217.922 244.767C218.268 244.659 218.586 244.476 218.853 244.232C219.12 243.987 219.33 243.687 219.468 243.353C219.605 243.018 219.668 242.657 219.651 242.295H222.638C223.16 242.295 223.824 241.394 224.155 240.778V240.493C223.729 239.972 223.207 239.687 222.97 239.877C222.733 240.067 221.547 239.877 221.927 238.265L222.401 237.269C222.401 236.842 223.112 236.273 224.203 236.89L225.056 237.364C227.325 236.846 229.489 235.948 231.458 234.709V232.148C231.489 231.857 231.581 231.575 231.728 231.322C231.875 231.069 232.074 230.849 232.311 230.678C232.738 230.394 234.16 230.014 234.208 230.678L234.492 231.389C234.602 231.602 234.756 231.788 234.944 231.935C235.133 232.083 235.35 232.187 235.583 232.243C235.847 232.243 236.108 232.183 236.347 232.068C236.585 231.953 236.794 231.786 236.958 231.579V230.062C237.838 229.157 238.632 228.173 239.329 227.122V225.272L243.217 223.423C244.196 223.164 245.196 222.99 246.204 222.902C246.821 222.902 246.584 221.479 246.204 221.242C245.825 221.005 244.308 219.061 245.398 218.302C246.489 217.543 250.851 217.781 251.278 216.88C251.705 215.979 255.261 214.509 256.02 213.655L257.063 213.086C258.343 212.375 258.533 211.664 257.063 210.81C257.227 210.226 257.598 209.72 258.106 209.388L259.576 208.913C261.473 208.582 263.132 208.913 263.275 209.34C263.417 209.767 264.413 210.052 265.219 208.392L263.607 206.732L262.801 205.926C264.973 205.729 267.085 205.1 269.012 204.077L269.723 202.275V201.848C268.585 201.042 268.111 200.141 268.728 199.809C269.344 199.477 270.624 198.055 269.676 197.723H269.344L267.305 198.814C265.421 199.883 263.67 201.172 262.089 202.654C261.378 203.508 258.438 204.551 258.248 204.219C258.059 203.887 257.158 203.129 256.636 203.745C256.115 204.361 254.692 205.831 254.455 205.642C254.218 205.452 254.455 206.163 255.166 207.491C255.878 208.819 250.851 209.862 251.041 209.388C251.231 208.913 251.705 207.254 251.373 207.301C251.041 207.349 247.627 209.103 244.023 211.047C240.42 212.991 228.138 220.057 224.582 222.285L221.121 224.04L218.086 225.604C214.909 227.596 210.167 230.346 207.559 231.626L205.615 233.476L203.624 235.372C200.826 237.032 197.27 238.881 195.8 239.592C194.33 240.304 189.588 243.291 187.739 244.097C185.89 244.903 178.255 249.598 174.272 251.874L170.716 253.96L169.009 254.956C166.681 255.646 164.594 256.977 162.987 258.797H161.659H157.581C154.862 260.793 151.918 262.464 148.809 263.775C146.77 264.534 141.08 268.517 139.326 268.802C137.571 269.086 133.588 273.543 132.166 274.397C129.572 275.393 126.91 276.201 124.2 276.815L123.82 277.384L123.062 279.565L115.048 282.458C112.301 283.751 109.626 285.191 107.035 286.773L105.849 287.342C105.138 287.674 104.284 287.768 103.668 288.1C101.901 289.567 99.9179 290.751 97.7882 291.609L95.607 292.083C93.4733 292.984 89.8695 294.36 87.5461 295.166C84.3021 295.51 81.0398 295.652 77.7781 295.592C76.6426 296.284 75.2936 296.537 73.9847 296.304C72.9416 295.877 69.243 294.549 67.7731 293.885C66.3031 293.221 60.8027 296.304 57.4835 297.015H54.3065H51.6038C49.0324 296.229 46.7541 294.693 45.0602 292.605L45.3921 291.42L45.9611 289.381C46.5121 287.501 46.9241 285.583 47.1939 283.643C47.1939 282.6 43.7325 281.272 43.3531 281.035L40.7926 279.565C40.0813 279.139 39.6072 276.436 39.6072 275.487C39.6329 274.249 39.3903 273.02 38.8959 271.884L37.5682 272.168C36.1931 272.453 35.3396 272.168 35.7664 271.078L34.3913 270.082L32.9687 269.133C32.3523 267.379 30.5505 262.732 28.9383 258.844L27.2787 255.43L26.7097 254.197C25.4356 253.019 24.2471 251.751 23.1534 250.404C21.8488 248.459 20.7972 246.355 20.0238 244.145L19.5971 242.864C19.2177 241.774 18.0797 241.015 18.3168 239.592V238.597C17.3684 237.364 16.4201 236.036 16.183 235.657V235.42L16.7994 234.092C16.8951 232.64 16.8951 231.182 16.7994 229.73C17.4233 227.09 18.2152 224.492 19.1703 221.953L21.7782 219.867C22.2524 219.488 21.7782 218.207 22.0628 217.781L22.8214 217.069C24.0543 216.643 24.9078 216.074 24.7181 215.884C24.5285 215.694 24.7181 215.078 25.4294 215.03C26.1406 214.983 26.9467 212.043 27.5157 210.952C28.0848 209.862 28.8909 207.918 28.3218 207.064L29.5073 206.448L30.2185 206.068C30.3815 205.443 30.7284 204.882 31.2143 204.456H31.5936L32.9213 203.65C32.1152 202.56 32.6842 201.327 34.1068 200.9C35.5293 200.473 36.9044 196.727 37.3311 195.684C38.6105 194.233 40.2443 193.138 42.0729 192.507L40.7926 191.416C40.7926 191.416 40.7926 190.136 41.0771 190.136H43.8273C44.2889 188.118 45.1253 186.204 46.293 184.494C47.2888 183.213 49.1855 179.372 49.7071 179.752C50.3351 179.813 50.9689 179.747 51.5714 179.56C52.174 179.373 52.733 179.067 53.2159 178.661C54.2591 177.713 56.7722 174.631 56.2032 174.299C55.6342 173.967 53.4056 173.019 53.1685 173.398C52.9893 173.53 52.7823 173.62 52.5633 173.66C52.3443 173.701 52.119 173.691 51.9044 173.632C51.6897 173.572 51.4914 173.465 51.3243 173.318C51.1572 173.17 51.0258 172.987 50.9399 172.781H50.2761L49.3751 172.402L44.9653 173.019C43.7799 173.019 39.5597 171.549 37.5208 171.406C34.4077 171.659 31.3268 172.214 28.3218 173.066C27.3261 173.35 24.6233 170.126 26.8045 167.423L24.0543 164.389L23.4853 163.725C23.7698 162.445 23.4853 161.354 22.8214 161.259C21.9993 161.198 21.1873 161.039 20.4031 160.785C20.2228 160.201 20.127 159.594 20.1186 158.983C20.1186 158.272 20.1186 155.901 20.1186 155.19C20.1186 154.478 17.8426 152.724 17.8426 151.728L17.2736 151.301C16.1742 150.89 15.0271 150.619 13.8596 150.495L12.9586 150.211C12.3024 149.714 11.7868 149.055 11.4625 148.298C11.1383 147.542 11.0166 146.714 11.1094 145.896C11.1094 144.094 7.55305 139.921 7.4108 139.589L10.0188 136.792C7.35004 135.086 4.88426 133.081 2.66907 130.817V129.158V127.119C2.66907 124.795 2.66907 122.993 2.05264 123.136C1.88138 123.17 1.70498 123.17 1.53357 123.137C1.36215 123.103 1.19909 123.036 1.05372 122.939C0.908351 122.842 0.783539 122.717 0.686439 122.572C0.589339 122.427 0.52186 122.264 0.48787 122.092H0.819791C1.86297 121.618 4.89768 121.666 0.819791 120.86C0.819791 120.86 0.393035 120.86 0.393035 120.528C-0.0179837 119.052 -0.10792 117.506 0.129287 115.992C0.366494 114.479 0.925333 113.034 1.76814 111.755C2.19489 111.186 3.28549 110.997 3.94933 110.475C4.61318 109.954 6.13053 108.768 5.98828 108.531C4.139 106.35 7.36338 107.82 7.60047 107.014C7.82956 105.862 8.37089 104.796 9.16524 103.932C10.8585 102.477 12.6662 101.161 14.5708 99.9959L15.4243 99.3795C16.9688 97.2213 18.6475 95.1625 20.4506 93.2152L24.2914 93.7842H24.6233C25.0975 93.2626 26.0458 92.2669 26.6622 91.5082C27.2787 90.7495 29.7444 89.6115 30.1237 88.8054C30.503 87.9993 34.1542 87.9993 35.3396 87.288C36.525 86.5768 38.3743 84.3482 39.5598 85.3913L40.7926 83.7792C39.8917 83.0679 39.9391 82.4515 40.7926 82.4515C41.6461 82.4515 43.9221 81.6928 43.6851 80.7444L43.9696 80.2703L44.7282 78.8478C46.3878 78.8478 47.8104 78.5158 47.9052 77.8994C48 77.283 49.7545 75.9079 50.9399 75.2915C53.1651 74.5786 55.4289 73.9928 57.7206 73.537C59.361 72.6922 60.9449 71.7418 62.4623 70.692C63.1262 70.692 65.2125 70.3601 65.2125 69.4117V68.4634C66.7216 67.8698 68.3329 67.5797 69.9543 67.6098V65.1916C72.3083 64.761 74.5702 63.9268 76.6401 62.7259L78.1575 61.9198L79.1058 61.4456C80.5853 61.3977 82.0386 61.0424 83.3734 60.4024L84.464 59.9282C85.6494 59.4067 86.9297 58.9325 88.1151 58.3635C89.3005 57.7945 90.0592 57.1306 91.1024 56.6564C91.8734 56.4301 92.6701 56.3026 93.4733 56.2771C95.8441 55.9926 97.9779 55.5658 99.0211 53.3846C99.6903 52.4098 100.63 51.6517 101.724 51.2034C102.151 51.2034 102.767 52.5786 104 51.4405L104.948 50.4922C105.669 50.076 106.487 49.8569 107.319 49.8569C108.151 49.8569 108.969 50.076 109.69 50.4922L110.638 49.1171L111.539 47.9791V47.6946C112.2 47.2195 113.003 46.9852 113.815 47.0307C114.858 47.0307 117.514 45.3711 118.557 45.5608C119.6 45.7505 121.212 44.1383 122.066 44.3754L122.872 43.9012C123.157 43.9012 123.82 43.9012 123.963 43.6641L126.571 40.1078C131.312 38.2585 135.722 36.4567 136.291 36.1247C136.86 35.7928 139.658 35.1764 141.033 34.6074C142.408 34.0384 146.106 31.6675 146.818 32.0468C147.529 32.4262 149.9 33.1849 151.038 32.0468L152.46 31.5727L153.883 31.0985C155.922 31.0985 157.344 31.0985 157.012 30.6243C156.681 30.1502 157.012 28.6802 158.767 28.6328L159.573 28.1112L160.996 26.9258C162.57 27.1997 164.188 26.8419 165.5 25.93L167.16 25.0765L167.634 24.792C168.582 24.792 168.962 25.4084 168.582 25.7878L168.298 26.2145C168.298 26.2145 168.819 26.7835 169.056 26.7361H169.625C170.487 25.862 171.036 24.729 171.19 23.5117L173.134 22.9427C176.632 22.5749 179.987 21.3537 182.902 19.3864C182.902 19.3864 183.708 19.3864 184.135 19.3864H185.605C186.876 19.6505 188.19 19.618 189.446 19.2916C191.172 18.554 192.946 17.9361 194.757 17.4423C196.369 17.0156 200.305 15.3559 200.874 15.7827C201.443 16.2095 203.292 17.0156 203.339 16.5888C203.387 16.162 205.141 15.6879 206.706 15.593C209.336 15.0861 211.933 14.4211 214.482 13.6015C215.763 13.2222 219.224 15.024 219.224 14.9766C221.184 15.6508 223.049 16.5752 224.772 17.7268C227 19.0545 236.342 16.8259 238.997 16.2095L241.984 16.8733L244.308 17.3949C247.2 16.7785 250.188 16.2569 250.946 16.162C251.705 16.0672 254.408 16.9681 255.166 16.6362C255.925 16.3043 257.964 16.1146 257.964 17.063C257.964 18.0113 261.378 16.8259 261.9 16.7311H262.232L264.365 17.7268C266.357 19.1019 268.775 20.9512 269.723 21.7573C270.672 22.5634 273.849 23.9385 273.564 24.223C273.443 24.8122 273.457 25.4212 273.605 26.0042C273.753 26.5873 274.031 27.1293 274.418 27.5896L275.271 28.8225L277.026 31.5253C280.203 33.7065 282.242 35.9351 281.767 36.267C281.293 36.5989 280.06 38.7801 281.056 39.3491L282.052 39.6336H282.336C282.533 39.3933 282.776 39.1948 283.051 39.05C283.326 38.9051 283.627 38.8169 283.936 38.7903C284.245 38.7638 284.557 38.7996 284.852 38.8956C285.148 38.9915 285.421 39.1458 285.656 39.3491L286.509 40.25C286.841 40.5345 286.509 41.151 286.509 41.6251C286.509 42.0993 283.19 41.151 284.85 43.0477C286.509 44.9444 284.85 44.8021 284.186 45.6556L284.281 46.8411C284.034 47.4141 283.979 48.0515 284.124 48.6583C284.27 49.265 284.607 49.8085 285.087 50.2077C286.035 50.8715 286.462 53.9537 286.699 54.333C286.936 54.7123 289.544 58.2686 291.82 61.3508L291.298 64.9071C291.008 65.8729 291.073 66.9109 291.482 67.8329C291.891 68.7549 292.616 69.5001 293.527 69.9333L294.286 70.3126C294.712 71.2136 295.329 72.5887 295.613 73.3473C295.898 74.106 299.596 75.1492 300.829 75.4811V76.0501C301.398 77.7572 302.299 77.8046 303.864 76.9036C303.864 76.9036 304.623 76.9036 304.955 77.1881L305.429 77.5201C306.093 78.0891 306.187 78.7055 305.429 78.9426C305.022 79.2126 304.719 79.6142 304.573 80.0802C304.426 80.5463 304.444 81.0485 304.623 81.5031L304.955 82.167L305.286 82.9257C305.618 83.7792 305.998 84.7275 306.093 85.0594C305.44 87.3361 304.566 89.5436 303.485 91.6504L300.308 93.9265L298.743 95.0171C298.142 96.8674 297.413 98.6736 296.562 100.423C296.088 101.181 292.484 103.884 291.251 105.544L289.639 105.97C286.936 106.682 289.876 107.346 289.307 107.867C288.738 108.389 287.837 109.147 287.031 109.716L285.039 111.139C283.134 112.438 281.356 113.915 279.729 115.549C279.017 116.402 276.125 118.489 276.409 119.342C276.694 120.196 272.474 121.618 270.956 122.709L269.676 123.847L268.206 125.08C266.025 126.834 265.219 128.114 266.404 127.972C269.833 126.776 273.189 125.383 276.457 123.799L280.25 122.804L282.336 122.235C282.234 121.067 282.234 119.893 282.336 118.726C282.716 118.726 283.427 118.726 283.569 118.726L283.996 119.247C284.423 120.196 285.419 120.243 286.177 119.247L286.794 118.536C287.126 118.204 287.505 117.493 287.789 117.54L290.966 117.872C292.531 115.976 294.333 113.699 294.997 112.799C295.661 111.898 300.45 111.423 302.204 110.428L304.291 110.143C305.218 109.948 306.082 109.524 306.804 108.91C306.33 108.199 306.424 107.63 306.804 107.63C307.873 107.638 308.928 107.394 309.886 106.919C310.849 105.822 311.721 104.648 312.494 103.41L314.438 103.837C315.434 103.837 317.236 102.556 318.231 101.513L319.038 100.66C320.058 100.143 321.121 99.7142 322.214 99.3795C322.499 99.3795 323.732 99.3795 324.728 99.0001C326.694 98.4038 328.528 97.4383 330.133 96.1551L330.844 95.0171C331.651 93.8316 332.931 97.056 333.263 95.0171C333.595 92.9781 334.922 95.0171 335.396 94.6377L336.345 93.642C337.104 94.2584 337.815 94.0687 338.004 93.2152L338.479 92.5988L338.811 92.172C340.214 91.8489 341.641 91.6427 343.078 91.5556C345.355 90.7296 347.426 89.4192 349.147 87.7148L350.238 86.9087C351.234 87.288 352.135 87.1932 352.23 86.6716C352.324 86.15 353.131 84.3482 353.51 85.012C353.835 85.4201 354.279 85.717 354.78 85.8614C355.281 86.0059 355.815 85.9907 356.308 85.8181C357.161 85.2491 358.726 84.2059 359.01 83.1627H360.86H362.14C363.593 82.4543 364.872 81.4343 365.886 80.1754L367.403 79.7961C368.162 79.7961 368.494 79.0374 369.3 79.7961L369.584 80.0806C370.893 79.8136 372.096 79.171 373.046 78.2313L374.895 77.852L376.507 77.5201C378.565 76.0648 380.794 74.8703 383.146 73.9638C387.149 72.7304 391.218 71.7173 395.332 70.9291L396.849 69.554L398.556 68.084C401.164 67.6098 403.725 68.084 404.152 68.9849C404.679 70.2027 405.33 71.3627 406.096 72.4464C406.25 72.2952 406.362 72.1061 406.42 71.8981C406.478 71.69 406.481 71.4703 406.428 71.261C406.428 70.692 405.669 68.5108 405.527 67.6573L408.372 66.0451C410.695 64.7174 414.489 65.4761 415.627 62.6784C415.627 62.6784 416.622 62.6784 416.907 62.6784C418.993 64.1958 418.709 65.239 415.864 66.6141C417.548 66.6765 419.234 66.5493 420.89 66.2347L422.123 65.808C423.442 65.3311 424.851 65.1529 426.248 65.2864L428.477 65.5235C428.903 64.101 429.567 63.3423 429.899 63.8639C430.231 64.3855 431.749 65.7606 431.986 65.239C432.267 63.5783 432.409 61.8971 432.412 60.2127L436.206 57.4151L436.822 56.9409C437.486 56.3719 438.292 56.9409 438.624 57.747C439.212 58.5271 440.012 59.121 440.929 59.4574C441.845 59.7938 442.84 59.8585 443.792 59.6437C445.547 58.7428 451.237 58.0315 451.237 57.3677C451.237 56.7039 450.81 54.7598 450.241 55.6607C449.672 56.5616 446.685 56.3719 446.448 55.6607V55.2339C446.448 54.5701 445.642 52.6734 448.155 54.1907H448.582C450.621 52.8156 452.517 52.4363 452.754 53.3372V54.6175C452.754 55.471 453.181 56.1823 453.798 56.1823C454.4 56.0751 454.971 55.837 455.471 55.4846C455.97 55.1323 456.387 54.6744 456.69 54.1433C457.117 53.0527 459.108 49.9232 459.867 50.7293C460.626 51.5354 463.613 52.9579 464.609 52.057L465.652 51.5828L466.98 50.9664C468.639 50.5396 471.01 50.018 472.243 49.8284L473.428 50.0654C474.244 50.2521 475.09 50.2598 475.908 50.0879C476.727 49.916 477.499 49.5686 478.17 49.0697L479.687 47.9317L483.433 45.5134H484.145C484.951 45.2289 487.511 44.5176 489.787 43.9012C492.063 43.2848 498.56 41.72 500.314 41.4829C503.009 41.2269 505.717 41.1477 508.422 41.2458C509.276 41.2458 509.465 43.7115 508.09 44.2331C506.715 44.7547 505.862 48.2162 506.573 47.6946C507.351 47.3746 508.201 47.2674 509.034 47.384C509.867 47.5007 510.654 47.837 511.315 48.3584L512.595 49.2119L513.828 49.9706C515.882 50.5577 517.821 51.4875 519.565 52.7208L517.195 54.0959L516.72 54.333C516.957 56.1823 517.574 57.1306 518.143 56.4194C518.712 55.7081 520.182 54.6175 519.992 55.8978C519.802 57.178 518.143 59.3118 519.328 59.4541C521.444 59.4278 523.554 59.2215 525.635 58.8376C527.01 58.5531 527.958 55.5184 528.575 56.04C529.089 56.3543 529.679 56.5206 530.282 56.5206C530.884 56.5206 531.475 56.3543 531.989 56.04C533.643 54.9272 535.493 54.1388 537.442 53.7166C538.343 53.7166 540.05 52.0095 540.998 52.2466H541.899H542.468C543.084 52.2466 543.464 51.9147 543.227 51.5354C542.99 51.156 544.175 50.2551 545.692 49.5438C547.21 48.8326 552.046 46.9359 552.947 46.5565C553.848 46.1772 554.512 43.8538 554.702 43.6641C554.961 43.5143 555.255 43.4354 555.555 43.4354C555.855 43.4354 556.149 43.5143 556.409 43.6641L556.883 44.0909H557.12C557.12 44.4702 558.448 43.3796 559.633 41.6726L560.771 40.2026C561.16 39.8107 561.689 39.589 562.241 39.5862L564.612 39.8707C566.271 38.5904 568.358 37.0257 569.354 36.4092H571.962C573.337 35.8877 574.807 35.2712 575.281 35.0341C575.755 34.7971 575.85 33.1849 576.893 32.4736L577.984 32.2365C579.422 31.9739 580.886 31.8784 582.346 31.952C583.342 31.952 581.54 29.1544 584.195 30.7192C584.195 30.7192 585.713 29.7234 586.471 29.1544C586.961 28.7334 587.484 28.3528 588.036 28.0164C589.221 27.4474 590.502 26.9732 591.687 26.3568L592.683 25.8352C594.256 25.7293 595.76 25.1508 596.998 24.1756L598.041 23.3221L599.084 22.4685C599.894 21.7553 600.904 21.3084 601.977 21.1883C602.688 21.1883 603.826 20.7141 603.21 19.908L604.442 19.1019C605.865 18.1062 606.529 19.1019 607.619 19.4813H608.141C609.554 18.6635 610.915 17.7609 612.219 16.7785L613.831 18.0587C614.447 18.5329 615.064 18.0587 614.258 16.494L613.973 15.925C615.148 15.1312 616.404 14.4636 617.719 13.9334H619.616C619.995 13.9334 620.09 12.2738 621.845 12.179H622.603C624.365 12.11 626.121 11.9517 627.867 11.7048C629.953 11.4677 632.988 6.96308 634.505 6.48891C637.353 5.99686 640.147 5.23475 642.85 4.21288C644.415 3.31195 646.596 2.31618 647.023 2.6481C647.45 2.98002 649.062 3.69128 649.441 3.21711V2.93261V2.3636C649.362 2.21102 649.316 2.04291 649.308 1.87094C649.3 1.69898 649.329 1.5273 649.394 1.36784C651.201 0.839778 653.062 0.521566 654.942 0.419489L656.791 0.134985H657.929C658.972 -0.434023 662.671 0.846245 666.275 3.02744L669.499 5.06639L670.021 5.39831C671.027 6.13163 672.149 6.69248 673.34 7.05791C675.804 7.12613 678.257 6.69048 680.547 5.77765L682.491 6.63116C684.594 7.82541 687.003 8.36992 689.414 8.19593C691.913 9.15516 694.337 10.2962 696.669 11.61C697.333 11.9419 698.424 11.61 699.182 11.8945C699.941 12.179 700.747 13.2222 701.648 13.317C703.782 13.6015 702.976 14.8344 702.976 15.6879V16.2569C702.215 17.058 701.604 17.9896 701.174 19.0071C700.842 19.908 704.256 22.7531 703.639 23.1324C703.168 23.5816 702.819 24.1448 702.628 24.7677C702.437 25.3906 702.41 26.0522 702.549 26.6887C703.07 28.0164 706.816 30.1976 706.342 31.0037C705.868 31.8098 704.872 34.1806 705.299 34.5126C705.726 34.8445 706.39 35.9351 706.153 36.4567C705.914 37.2679 705.58 38.0478 705.157 38.7801C704.92 39.0172 703.497 39.1595 703.023 39.7759L703.971 41.0087C705.252 42.2416 706.437 43.1425 706.627 43.0003C706.816 42.858 708.002 42.5261 707.954 43.0003C707.845 43.7971 707.638 44.5774 707.338 45.3237C707.084 46.0123 707.084 46.7689 707.338 47.4575C707.67 48.3584 708.381 52.4837 708.903 54.5701L710.373 56.2771L711.131 57.2729C711.023 58.1862 711.226 59.1095 711.708 59.8928C712.19 60.6761 712.922 61.2735 713.787 61.5878L715.352 62.2517H715.683C717.011 63.3897 717.58 64.6226 716.916 65.0019C716.56 65.337 716.292 65.7543 716.135 66.2173C715.978 66.6803 715.937 67.1747 716.015 67.6573C715.19 70.0051 714.224 72.3011 713.123 74.5328H709.187C708.955 74.7813 708.786 75.0829 708.697 75.4113C708.608 75.7397 708.601 76.0849 708.675 76.4169C708.75 76.7489 708.905 77.0576 709.127 77.316C709.348 77.5744 709.629 77.7747 709.946 77.8994L711.084 78.421C711.606 78.7055 711.558 78.421 712.175 77.2356C712.175 76.714 712.933 75.8605 713.407 75.813C716.158 75.813 717.912 71.9722 721.326 74.2957L727.253 70.9765L727.49 70.7394C728.294 70.3216 729.158 70.0336 730.051 69.8859C731.609 69.3682 733.08 68.6167 734.413 67.6573C734.84 67.1831 739.155 67.0883 740.388 65.9502L741.621 65.0019L747.074 63.9587L748.069 65.1441L752.29 62.1569C754.702 60.418 756.789 58.2671 758.454 55.8029L760.967 57.4151C762.437 58.4109 764.76 56.8935 766.23 58.5057C767.782 57.9185 769.213 57.0505 770.45 55.9452L772.395 55.3288C778.227 53.3846 779.318 52.626 781.878 53.8114L784.249 54.8546C786.999 54.8546 788.991 54.0959 788.564 53.5269C788.137 52.9579 788.991 50.8715 790.745 49.8284C793.672 48.4717 796.681 47.2998 799.754 46.3195L800.466 46.7936C801.414 47.3626 802.552 47.4101 802.647 46.0824C802.742 44.7547 804.117 44.7547 804.875 45.0392L808.052 46.272C811.372 45.6556 814.122 44.3754 814.122 43.4744C814.122 42.5735 818.864 41.4355 821.614 40.9139L823.795 39.8707C825.325 39.3052 826.917 38.9232 828.537 38.7327L829.817 38.4956C830.908 37.5473 832.14 37.1679 832.52 37.6895C832.899 38.2111 834.322 39.5862 834.748 39.3965H834.985L836.218 38.4482C836.883 37.9346 837.673 37.6068 838.506 37.4985C839.339 37.3902 840.186 37.5052 840.96 37.8318L841.814 35.9825C842.768 35.7909 843.751 35.7909 844.706 35.9825H845.275C846.409 35.8698 847.515 35.5651 848.547 35.0816C851.404 34.6023 854.32 34.6023 857.177 35.0816L858.931 33.3271C859.548 32.7107 859.974 32.521 860.828 33.3271L861.16 33.6116C862.345 33.3568 863.504 32.9917 864.621 32.521C865.57 32.1417 870.169 31.9994 871.971 31.3356L872.445 31.7149L874.484 33.3271C876.176 32.0529 878.025 31.0011 879.984 30.1976L881.739 30.1502C881.976 30.1502 882.355 30.1502 882.64 30.4347C885.58 31.8572 885.769 32.0468 886.955 31.0037L888.472 29.676C889.741 30.2635 891.039 30.7858 892.36 31.2408C893.072 31.2408 894.636 29.5337 895.158 28.9173H895.632C897.339 28.9173 896.533 30.1502 896.77 30.8614V31.1933C898.543 30.9963 900.255 30.431 901.796 29.5337L904.215 28.4905C906.918 27.4 905.874 27.8267 907.297 30.3398L908.625 32.6633C907.012 32.6633 906.538 33.2323 907.581 34.0858H908.34C909.526 34.0858 911.28 32.2365 911.564 32.4262C912.105 32.8952 912.777 33.1875 913.489 33.2638C914.201 33.3401 914.919 33.1967 915.547 32.8529C916.828 31.9046 917.112 32.8529 917.918 33.1374H918.25C918.914 32.7107 918.772 31.952 917.824 31.4304L919.388 31.0511C919.717 31.078 920.034 31.1823 920.314 31.3554C920.594 31.5285 920.829 31.7654 921 32.0468C921.332 32.7581 921.38 33.422 922.328 32.4736C922.328 31.7149 924.13 31.6201 926.501 32.4736C928.872 33.3271 933.139 37.2153 932.381 37.4998C931.622 37.7843 930.911 39.9655 931.717 40.8191C932.523 41.6726 935.558 43.7115 936.458 43.427C937.359 43.1425 940.062 42.0045 940.062 41.5303C940.062 41.0561 941.674 40.013 943.571 40.3449L941.532 42.4312L940.489 43.4744C941.661 44.5878 942.896 45.6327 944.188 46.604C944.804 46.9833 942.623 49.1171 942.149 48.7377C941.674 48.3584 940.394 47.5523 940.299 47.6946C940.19 48.3698 940.19 49.0583 940.299 49.7335C940.299 50.6819 944.757 52.0095 946.511 52.9105L944.472 54.8546L943.95 55.3762C944.835 56.7493 945.941 57.9669 947.222 58.9799C947.981 59.4541 948.455 61.493 949.119 61.9672C949.783 62.4414 948.076 64.4329 947.696 64.8122C947.317 65.1916 947.459 66.6615 947.696 66.4244L948.076 66.1399L948.55 65.808C948.691 65.6617 948.861 65.5454 949.048 65.466C949.236 65.3865 949.437 65.3456 949.641 65.3456C949.844 65.3456 950.045 65.3865 950.233 65.466C950.42 65.5454 950.59 65.6617 950.731 65.808C951.253 66.4244 951.822 68.5108 951.063 69.3643C949.303 70.3357 947.335 70.8722 945.326 70.9291C944.045 70.9291 940.205 71.5455 940.205 72.2567C940.205 72.968 939.588 74.9121 938.829 74.675L939.114 73.2051C939.114 71.5455 938.782 70.1704 938.023 70.1704C937.132 70.1376 936.24 70.2172 935.368 70.4075C935.368 70.4075 935.795 71.6403 936.127 72.399C936.459 73.1577 932.57 74.8173 933.187 74.2483V73.9164C933.187 72.968 933.566 71.4981 933.187 71.2136C931.527 70.4075 931.622 71.83 930.958 72.5887C929.816 73.5972 928.475 74.3563 927.022 74.8173C926.32 74.9794 925.591 74.9794 924.889 74.8173H924.13C922.191 74.9439 920.301 75.477 918.582 76.382L916.685 77.4726C915.879 77.9468 913.366 78.421 915.595 79.9384C914.321 80.6123 912.967 81.1221 911.564 81.4557C909.715 81.9299 906.254 85.4862 905.874 85.6284C904.271 85.586 902.678 85.3471 901.133 84.9172L900.374 86.7664L899.568 88.6157C897.956 88.2838 896.391 88.6157 896.154 88.9002C895.637 89.7063 894.997 90.4263 894.257 91.034H893.973C892.39 90.6747 890.736 90.8042 889.229 91.4053C887.722 92.0065 886.433 93.051 885.532 94.4006L884.584 95.9654C883.019 96.7241 881.549 97.0086 881.312 96.6293C879.468 95.997 877.466 95.997 875.622 96.6293L873.204 97.3405H872.777L870.264 100.423C869.221 101.703 868.083 104.927 868.32 103.979C868.557 103.031 867.277 100.849 866.281 101.276C865.285 101.703 863.531 104.88 863.151 103.884L862.535 103.6C861.492 103.125 860.591 103.6 860.449 104.643C860.449 104.975 859.263 105.496 858.647 105.496H854.758C851.905 108.041 848.714 110.179 845.275 111.85L842.525 112.277C842.525 112.277 842.525 113.13 842.525 113.225C844.09 114.126 843.568 114.79 842.525 115.501C842.051 115.833 841.719 116.402 841.15 116.545H840.486C840.292 116.511 840.107 116.438 839.943 116.33C839.779 116.222 839.64 116.081 839.533 115.917C839.426 115.752 839.354 115.567 839.322 115.373C839.29 115.179 839.299 114.98 839.348 114.79H841.482C841.197 113.652 840.344 112.988 839.585 113.32C838.385 113.89 837.242 114.573 836.171 115.359C835.697 115.738 833.8 114.932 833.326 115.359C832.852 115.786 829.106 117.54 825.976 119.295L823.178 120.907L822.278 121.429C821.414 121.149 820.485 121.149 819.622 121.429C819.195 121.76 819.053 122.519 820.191 122.567C821.329 122.614 824.459 122.567 824.933 123.325C825.407 124.084 825.786 125.886 824.933 126.123L824.364 126.36H823.795C823.226 126.787 822.609 126.834 822.372 126.36C822.135 125.886 820.523 125.933 819.29 127.356L818.437 128.636C818.2 128.92 818.437 129.537 818.721 130.011V130.39C818.721 130.77 818.389 131.149 817.678 131.196L817.251 130.959C816.369 130.418 815.345 130.154 814.311 130.201H813.932C813.04 130.132 812.153 130.005 811.277 129.821C810.328 129.821 808.906 127.261 807.057 126.976L805.682 127.403L802.931 128.257C801.13 130.485 799.138 131.386 798.427 130.248H797.953C797.483 130.271 797.023 130.387 796.599 130.591C796.176 130.794 795.797 131.081 795.487 131.434L794.681 132.524C794.222 133.733 794.075 135.037 794.254 136.318H795.771C796.025 137.088 796.025 137.918 795.771 138.688C795.534 139.163 794.207 140.443 793.59 139.874C792.974 139.305 791.978 137.266 791.314 136.46H789.37C789.235 136.027 789.14 135.582 789.086 135.132C789.086 135.132 788.422 134.516 787.521 134.658V137.503C784.628 137.503 782.779 138.499 783.301 139.352C783.822 140.206 787.236 140.585 787.473 141.391C787.71 142.197 787.473 144.663 786.762 144.853C786.051 145.042 783.632 141.486 782.02 140.111L779.46 142.292L778.891 142.814C777.8 143.146 777.326 143.525 777.8 143.667C778.274 143.809 778.464 144.71 777.231 145.327C775.998 145.943 777.563 149.12 776.662 149.831H776.046H774.765C773.153 148.883 771.968 148.599 772.157 149.168C772.347 149.737 772.157 151.301 771.731 151.444C771.304 151.586 769.17 152.439 769.739 153.103C770.308 153.767 770.877 155.806 769.455 155.996L768.791 155.616L767.985 155.142C768.154 153.946 768.138 152.73 767.937 151.539C767.919 150.836 768.044 150.138 768.305 149.486C768.566 148.833 768.957 148.241 769.455 147.745C770.688 146.607 769.929 143.003 769.075 143.478C768.222 143.952 766.183 145.848 766.42 146.702C766.657 147.555 766.42 149.5 765.614 149.12C764.808 148.741 759.924 151.681 758.881 151.444L757.932 151.159L757.079 150.827C756.064 150.597 755.011 150.597 753.997 150.827C753.333 151.112 752.906 153.577 752.764 154.621C750.108 154.621 751.009 156.375 750.535 157.513V158.082C749.587 158.699 748.638 158.793 748.449 158.082C748.259 157.371 747.263 156.944 746.647 157.561C745.601 158.595 744.287 159.317 742.854 159.647C741.953 159.647 742.427 161.781 742.854 162.018C743.222 162.61 743.464 163.272 743.565 163.962C743.565 164.578 746.647 165.432 747.358 165.764C747.585 166.003 747.752 166.292 747.845 166.608C747.938 166.923 747.956 167.257 747.896 167.58C747.836 167.904 747.7 168.209 747.499 168.47C747.299 168.731 747.039 168.941 746.742 169.083L745.082 167.044L744.513 166.333C743.567 166.014 742.601 165.761 741.621 165.574L737.875 166.475L738.159 168.372V169.557C736.96 168.877 735.665 168.382 734.318 168.087V169.557C734.221 170.192 733.941 170.785 733.512 171.264C733.136 171.162 732.787 170.977 732.492 170.723C732.196 170.469 731.962 170.151 731.805 169.794C731.916 168.656 732.343 167.572 733.038 166.665L733.749 166.048C733.987 166.048 734.698 166.048 734.935 166.048C735.172 166.048 735.741 165.195 735.646 164.815C735.551 164.436 734.887 164.057 734.461 164.009H733.228C731.663 164.009 730.62 164.626 730.952 165.29C731.284 165.953 729.15 166.854 727.917 166.807H726.732C726.757 166.65 726.757 166.49 726.732 166.333L725.831 164.294C724.112 163.763 722.319 163.507 720.52 163.535V163.867C720.276 164.123 720.141 164.462 720.141 164.815C720.141 165.168 720.276 165.508 720.52 165.764L723.365 167.897C724.018 169.423 724.915 170.832 726.02 172.07H726.495C726.921 172.07 727.396 171.549 727.538 171.169L727.822 170.505C727.822 169.178 729.719 170.837 731.568 174.204L734.318 176.006C735.219 176.622 736.215 176.622 736.594 175.389V175.01C737.122 174.55 737.734 174.196 738.396 173.967C739.013 173.73 740.957 173.967 741.194 173.208C741.376 173.005 741.599 172.843 741.848 172.732C742.098 172.621 742.367 172.563 742.64 172.563C742.913 172.563 743.183 172.621 743.432 172.732C743.681 172.843 743.904 173.005 744.086 173.208C745.177 174.251 747.216 176.907 746.22 176.765C745.224 176.622 742.806 178.993 741.194 179.515L739.914 180.368C739.788 180.344 739.669 180.291 739.566 180.214C739.463 180.137 739.379 180.038 739.32 179.924C739.26 179.81 739.227 179.684 739.224 179.556C739.22 179.428 739.245 179.3 739.297 179.183C739.297 178.756 739.629 177.523 739.013 177.523C738.396 177.523 737.353 178.803 737.59 180.368L737.069 181.554L736.642 182.644C737.163 182.644 737.163 183.593 736.642 184.256C735.964 184.747 735.168 185.049 734.335 185.132C733.502 185.216 732.662 185.077 731.9 184.731H730.81C728.344 184.731 729.245 183.024 728.107 182.549C726.969 182.075 726.4 181.838 727.064 181.364C727.727 180.89 728.96 179.041 731.379 180.273L732.374 180.795C733.133 179.041 732.374 177.571 730.62 177.571C727.935 177.981 725.357 178.916 723.033 180.321L722.559 181.554L722.132 182.597C722.763 183.839 723.492 185.028 724.313 186.153C724.835 186.77 722.701 188.382 720.52 187.813L718.529 187.196C718.147 185.802 717.908 184.372 717.817 182.929L717.106 183.925C716.015 185.442 716.347 185.442 718.054 185.963C718.813 185.963 719.572 187.007 720.425 186.627H720.899C720.936 185.42 720.76 184.216 720.378 183.071C719.998 181.886 720.378 179.088 719.619 179.467H719.003H718.102L717.248 185.347C717.011 186.627 717.248 188.761 718.86 189.283L720.093 189.804C721.705 190.468 721.611 190.705 719.572 191.891H719.287C719.287 192.27 718.908 193.076 718.718 193.645C718.528 194.214 717.675 195.4 717.059 195.352C715.613 195.512 714.246 196.088 713.123 197.012H711.511H710.278C709.639 197.965 708.873 198.826 708.002 199.572C706.55 200.395 704.926 200.866 703.26 200.947C702.264 200.947 701.126 199.003 701.6 198.719C702.075 198.434 703.165 197.107 702.264 196.632L701.648 196.253C700.7 195.637 700.178 194.925 701.221 194.119L702.075 193.455C703.532 193.296 705.005 193.377 706.437 193.693C707.575 193.977 709.899 190.753 710.183 190.468C711.51 189.824 712.871 189.254 714.261 188.761L712.791 187.576C712.337 187.221 711.843 186.919 711.321 186.675H710.847C710.183 186.675 709.993 186.106 710.42 185.774C710.847 185.442 712.127 183.925 711.653 183.735C711.13 183.636 710.591 183.652 710.075 183.784C709.559 183.915 709.078 184.157 708.666 184.494C707.907 185.252 706.247 189.709 705.157 189.947C704.066 190.184 700.747 190.421 701.079 189.947C701.527 189.066 701.754 188.09 701.743 187.102H701.363C701.079 187.041 700.785 187.039 700.499 187.096C700.214 187.153 699.943 187.268 699.704 187.433L698.993 188.571C698.651 189.215 698.112 189.733 697.455 190.049C696.798 190.364 696.058 190.462 695.341 190.326H694.061C693.777 190.326 693.16 191.227 693.113 191.796V192.27C693.54 192.792 693.113 193.171 692.307 193.029L691.69 192.697L690.837 192.223C690.078 191.464 689.888 190.658 690.41 190.421C691.298 189.535 691.88 188.389 692.07 187.149L691.738 186.201L691.358 185.205C691.769 184.69 692.06 184.091 692.212 183.45C692.811 182.637 693.512 181.904 694.298 181.269C696.857 179.557 699.5 177.974 702.217 176.527C704.2 175.208 706.313 174.095 708.523 173.208V173.445V174.488C708.192 175.532 708.286 176.053 708.523 175.627C709.438 175.128 710.389 174.7 711.368 174.346C712.588 174.088 713.848 174.088 715.067 174.346V170.695C716.072 169.433 717.149 168.23 718.291 167.091C718.671 166.807 718.291 166.428 718.291 166.522C718.291 166.617 716.11 166.522 715.162 166.807C714.214 167.091 713.028 169.367 712.127 169.794H711.89L708.855 166.57ZM700.889 184.019C699.642 184.289 698.371 184.432 697.096 184.446H696.053H694.298C693.54 185.537 693.113 186.77 693.397 187.244C693.752 187.583 694.206 187.799 694.694 187.859C695.181 187.918 695.674 187.819 696.1 187.576C697.001 186.864 698.566 181.933 698.85 183.166C699.135 184.399 701.553 183.83 700.889 184.019ZM278.401 192.412C273.138 195.257 273.138 196.016 278.069 198.15C278.164 196.348 278.259 194.736 278.401 192.412Z" fill="#F8F8F8"/>
<path d="M624.696 284.686C623.592 284.493 622.522 284.142 621.519 283.643C619.752 282.765 617.84 282.218 615.876 282.031C614.88 282.031 612.889 283.975 612.414 284.117C611.94 284.259 607.673 285.492 607.199 286.441H608.099C608.479 286.441 609 285.35 609.569 284.828L610.328 284.117C611.229 283.453 611.419 282.552 610.755 282.078C610.091 281.604 607.531 283.169 607.009 283.501C606.487 283.833 608.194 285.208 608.811 285.919C609.427 286.63 609.949 287.816 607.151 287.484C604.162 286.517 601.424 284.897 599.138 282.742C598.366 282.066 597.365 281.71 596.34 281.746L597.004 280.561L597.668 279.233C598.379 277.574 598.237 276.199 597.336 276.199H596.577H594.254C592.664 273.135 591.286 269.966 590.128 266.715L588.801 263.348V262.779C588.469 262.4 588.801 261.499 590.034 260.74C591.266 259.982 593.305 257.753 592.784 257.326C592.262 256.9 594.68 255.525 595.629 255.145L596.482 254.766C596.695 254.113 596.869 253.448 597.004 252.774C597.982 251.215 599.11 249.754 600.371 248.412C601.034 247.653 602.362 245.235 602.125 244.808V243.338C603.453 243.338 606.108 243.338 608.099 242.864V241.631V241.015C606.63 240.256 606.061 239.403 606.772 239.118C607.483 238.834 609.664 238.312 610.044 238.075C610.423 237.838 610.328 236.747 610.992 236.321H611.466H612.509C613.884 236.321 614.453 235.657 613.742 234.708C613.031 233.76 611.751 231.342 612.509 231.721C613.268 232.1 616.16 232.195 616.729 231.247L617.251 230.346C617.583 229.824 617.725 229.066 618.247 228.781L619.148 228.354C620.191 227.975 620.902 227.406 620.713 227.027C620.523 226.647 620.713 225.462 621.898 226.078C623.083 226.695 625.122 228.591 624.032 229.066L623.795 229.73V230.299C622.367 231.301 621.005 232.394 619.717 233.57L620.049 234.898C620.098 235.133 620.2 235.354 620.348 235.543C620.496 235.732 620.686 235.885 620.902 235.989H621.376C621.993 235.704 623.795 235.04 625.359 234.519V232.812L625.075 230.393C623.62 230.686 622.147 230.876 620.665 230.962C620.333 230.962 623.605 231.247 625.122 231.294C626.64 231.342 628.299 233.238 628.773 233.428C629.235 233.923 629.571 234.522 629.752 235.174C629.934 235.826 629.956 236.512 629.817 237.174H627.019C626.824 238.29 626.235 239.299 625.359 240.019C623.638 240.681 621.796 240.972 619.954 240.873C619.005 240.873 617.014 242.011 616.919 241.963C616.711 241.629 616.566 241.259 616.492 240.873C616.143 240.303 615.655 239.831 615.075 239.5C614.495 239.169 613.841 238.988 613.173 238.976L612.841 239.545C611.893 240.92 613.6 240.967 614.738 241.299H615.07C615.05 241.7 614.9 242.082 614.644 242.39C614.387 242.698 614.037 242.914 613.647 243.006H613.031L610.044 242.2C609.38 243.955 609.285 245.377 609.759 245.425C610.62 245.381 611.476 245.27 612.32 245.093C612.841 245.093 615.734 244.429 617.583 244.239L619.906 246.468C621.187 247.748 622.372 248.744 621.187 250.451L620.76 251.067C620.523 251.826 621.756 251.731 623.51 251.067L624.032 249.882C624.364 249.218 623.321 248.127 622.894 247.227L622.467 246.326C621.993 245.377 622.467 244.761 623.32 244.998C624.174 245.235 626.213 246.231 626.023 246.752C625.834 247.274 626.023 248.222 626.64 248.033C627.256 247.843 628.157 245.946 628.442 244.429C628.726 242.912 627.873 239.687 629.248 240.019C630.623 240.351 634.795 241.252 633.989 240.635C633.183 240.019 633.468 238.217 635.222 237.364L636.123 236.178L636.977 235.04C638.115 233.95 638.02 233.049 636.692 233.049C634.417 233.03 632.147 232.808 629.911 232.385C628.916 232.006 627.066 230.156 627.493 230.061C627.865 229.774 628.132 229.372 628.252 228.918C628.372 228.463 628.339 227.982 628.157 227.548C627.683 226.458 624.316 225.13 624.98 224.893C625.644 224.656 627.541 224.134 627.683 224.514L627.967 224.846C628.252 225.225 628.726 225.699 629.153 225.699C629.58 225.699 630.433 225.272 630.433 224.988V223.66C630.312 222.613 630.458 221.553 630.86 220.578C630.86 220.578 631.192 220.578 631.334 220.91L631.761 221.289L634.511 219.677L635.839 218.824C635.21 218.171 634.754 217.373 634.511 216.5C634.89 216.5 635.507 216.263 635.696 216.5C636.065 216.836 636.343 217.26 636.503 217.733L637.024 218.871C638.201 218.36 639.252 217.599 640.106 216.642C640.817 215.836 642.287 213.181 642.003 212.422V211.663C642.003 211.663 643.378 211.142 643.568 211.284L645.654 213.039C646.365 211.569 647.124 209.719 647.409 208.961C647.693 208.202 649.305 206.258 650.396 206.448C651.486 206.637 654.426 206.448 654.521 206.068C654.616 205.689 655.28 203.887 655.564 204.409C655.888 204.841 656.311 205.187 656.799 205.419C657.286 205.65 657.823 205.759 658.362 205.736L658.694 205.262L660.211 203.128C661.877 203.372 663.484 203.918 664.953 204.741C665.249 205.104 665.644 205.374 666.09 205.517C666.536 205.66 667.014 205.67 667.466 205.547C668.964 204.789 670.351 203.832 671.591 202.702L671.07 202.322C670.333 202.066 669.531 202.066 668.794 202.322C668.273 202.588 667.672 202.647 667.109 202.489C666.547 202.331 666.065 201.967 665.759 201.469L664.668 200.9L663.578 200.378C660.97 200.378 660.259 200.378 661.966 200.046C663.673 199.714 664.479 196.869 664.906 196.917C665.332 196.964 666.233 196.917 666.043 197.296C665.942 197.537 665.935 197.806 666.022 198.052C666.11 198.298 666.287 198.502 666.518 198.624C667.685 199.32 668.781 200.13 669.789 201.042L670.501 200.094L670.785 199.667C670.885 199.087 670.802 198.491 670.548 197.96C670.311 197.581 671.544 196.158 672.065 195.779C672.587 195.399 672.065 192.554 672.729 192.507C673.393 192.459 675.527 192.886 675.242 193.597C674.958 194.309 674.342 196.111 674.626 196.205C674.911 196.3 675.717 195.542 676.38 194.688C677.813 193.093 679.673 191.942 681.739 191.369L683.114 191.89C684.204 192.27 684.963 192.649 685.769 191.89C685.873 191.745 685.929 191.571 685.929 191.393C685.929 191.214 685.873 191.04 685.769 190.895L685.105 190.421C684.33 190.004 683.521 189.655 682.687 189.377C682.213 189.377 681.644 188.476 682.687 187.955L683.209 187.244V186.959C682.545 186.2 683.209 185.489 685.01 185.394C686.812 185.299 690.369 182.739 692.17 183.592L690.037 185.205C689.788 185.389 689.504 185.522 689.203 185.595C688.901 185.669 688.588 185.681 688.282 185.631L687.334 185.062C686.129 185.788 685.12 186.797 684.394 188.002L686.243 189.472L688.472 191.179C688.14 192.934 685.532 193.313 682.687 192.033L681.264 195.447C681.264 195.447 680.506 195.447 680.079 195.447L677.566 196.111C678.799 197.486 680.458 198.102 681.217 197.533C681.976 196.964 684.631 195.542 685.39 195.874C686.148 196.205 687.192 197.296 685.816 197.581C684.441 197.865 682.782 202.891 682.45 203.934V204.883C682.502 205.246 682.63 205.595 682.826 205.905C683.023 206.216 683.282 206.481 683.588 206.685L684.015 206.922C685.157 206.349 686.112 205.46 686.765 204.361L688.093 203.745C688.709 203.508 689.515 202.891 689.468 202.559L688.899 200.236C688.497 198.681 688.497 197.049 688.899 195.494C689.582 195.493 690.241 195.747 690.748 196.205L692.076 198.956C692.415 199.216 692.808 199.398 693.226 199.488C693.644 199.578 694.077 199.575 694.494 199.477L694.778 199.003L695.727 197.296C696.865 194.736 698.572 193.503 699.568 194.593C700.563 195.684 700.279 198.956 699.568 199.003C698.856 199.05 694.826 202.133 696.106 202.18H696.865H698.098C699.71 201.848 700.658 202.18 700.231 202.891C699.805 203.603 698.287 205.547 698.192 205.12C698.098 204.693 696.77 204.124 695.49 204.409L694.399 204.883C694.399 204.883 694.636 206.021 694.873 206.59V207.159C695.253 208.06 694.589 208.534 693.451 208.249C691.903 208.141 690.36 208.523 689.041 209.34C687.555 210.518 685.76 211.242 683.872 211.426C682.355 211.426 678.135 212.28 677.613 211.426C677.092 210.573 676.333 208.676 677.281 208.581H677.85C678.538 208.421 679.195 208.149 679.795 207.775C679.17 206.985 678.397 206.325 677.518 205.831C676.665 205.357 674.911 203.887 675.148 203.413C675.385 202.939 675.148 201.611 674.247 202.18C673.579 202.856 673.065 203.667 672.737 204.558C672.41 205.45 672.278 206.401 672.35 207.349V208.487V208.439C672.277 208.788 672.129 209.118 671.916 209.404C671.703 209.691 671.431 209.928 671.117 210.099L670.501 209.719C670.052 209.181 669.728 208.549 669.552 207.87C669.552 207.396 668.462 206.495 668.225 206.685C667.988 206.874 667.039 207.633 666.707 207.823C666.375 208.012 662.867 208.724 662.677 209.198V209.767V210.241C662.298 210.857 661.823 211.189 661.586 211.047C661.437 210.985 661.274 210.961 661.113 210.976C660.952 210.992 660.797 211.046 660.661 211.135C660.526 211.224 660.414 211.344 660.335 211.486C660.257 211.627 660.214 211.786 660.211 211.948C660.211 212.991 659.168 215.504 657.935 215.694C655.869 215.218 653.908 214.366 652.15 213.181L650.965 214.177C650.297 213.924 649.719 213.478 649.305 212.896C649.068 212.422 647.978 213.94 648.689 215.22L650.491 215.504C652.245 215.836 653.952 216.168 655.707 216.595H655.944C655.944 216.595 655.612 217.306 655.138 217.828C653.851 218.589 652.361 218.936 650.87 218.824L650.111 219.25L649.4 219.582C648.718 220.893 647.639 221.955 646.318 222.617L644.753 222.143H644.469C643.994 222.143 643.615 222.664 643.662 223.423C643.71 224.182 644.848 226.315 645.986 225.841C647.124 225.367 651.249 224.087 651.818 224.561C652.387 225.035 654.047 225.889 654.426 225.604C654.806 225.32 655.707 223.945 655.28 223.423C654.853 222.901 653.81 221.337 654.142 221.194C655.277 221.089 656.42 221.089 657.556 221.194L658.931 220.91L661.207 220.436C660.353 224.324 659.547 228.829 659.405 230.536C659.263 232.243 661.16 230.868 662.155 229.587C664.21 228.299 666.498 227.429 668.889 227.027C668.889 226.647 668.889 225.746 668.889 225.699C667.94 225.462 666.755 225.699 665.996 225.225C665.237 224.751 664.668 223.85 663.91 223.233C663.476 223.27 663.063 223.435 662.724 223.708V224.703C661.704 225.128 660.771 225.739 659.974 226.505V226.837C660.401 227.501 661.586 227.833 659.974 228.734L658.504 229.682C658.789 228.591 659.452 226.173 660.069 224.324C660.804 222.206 662.003 220.278 663.578 218.681L664.716 218.017C665 218.017 665.617 218.017 665.901 218.017C666.186 218.017 666.802 217.164 667.371 216.832L669.458 215.504C670.738 213.465 672.682 211.948 673.725 212.185C675.846 212.597 677.925 213.2 679.937 213.987L678.04 215.22L677.566 215.552C677.875 216.325 678.067 217.14 678.135 217.97C678.135 217.97 676.475 217.97 674.958 217.496V219.203C674.958 220.578 676.475 220.104 677.376 220.104H679.225C681.186 218.739 683.07 217.267 684.868 215.694C685.39 215.125 687.476 215.694 687.097 216.31C686.318 218.415 685.746 220.591 685.39 222.807C685.39 223.708 686.338 223.755 686.955 223.281C687.347 222.675 687.587 221.983 687.653 221.265C687.719 220.546 687.609 219.822 687.334 219.155L685.532 219.772L680.79 222.095C679.937 222.522 677.803 224.324 678.182 224.988C678.562 225.652 679.937 227.264 680.126 226.79C680.316 226.315 681.027 225.509 681.359 225.652C681.691 225.794 682.734 225.936 682.829 225.652C684.139 223.638 685.954 222.004 688.093 220.91C690.388 220.206 692.54 219.098 694.446 217.638C695.347 216.69 699.188 216.595 699.188 216.216C699.647 215.353 700.316 214.619 701.132 214.082C702.033 213.608 703.93 211.948 703.408 211.474C702.887 211 701.132 210.099 700.99 210.62C700.609 211.323 700.164 211.99 699.662 212.612C699.283 213.228 698.951 214.935 698.335 214.888C697.222 214.476 696.17 213.918 695.205 213.228C694.589 212.849 693.451 211.237 693.925 210.478C694.399 209.719 697.339 209.909 698.951 210.004L699.378 208.818C699.805 207.775 699.093 206.353 701.512 206.495H702.081C702.91 206.329 703.764 206.329 704.594 206.495C705.352 206.495 707.249 207.87 706.585 208.676H706.064C704.546 208.676 704.167 209.625 704.831 210.336C705.694 210.823 706.707 210.975 707.676 210.763L708.909 210.431C708.994 208.701 708.882 206.967 708.577 205.262L708.055 204.835L707.581 204.409C706.064 203.982 706.111 203.65 707.581 203.697C709.051 203.745 711.801 206.732 713.081 207.349L713.745 208.344C713.973 208.514 714.236 208.632 714.515 208.689C714.793 208.747 715.081 208.742 715.358 208.676C716.89 207.908 718.379 207.053 719.815 206.116C719.815 206.116 719.815 205.404 719.815 205.12C719.71 204.975 719.575 204.853 719.42 204.763C719.264 204.674 719.092 204.617 718.914 204.598L717.681 204.883C715.927 205.499 714.836 205.357 715.263 204.883C715.689 204.409 717.017 203.128 717.586 203.745C718.155 204.361 720.621 202.322 721.474 201.658C723.349 200.648 725.419 200.049 727.544 199.904H728.919H729.251C730.762 199.471 732.2 198.816 733.518 197.96L734.988 196.727L735.842 195.968C735.557 194.404 735.842 192.981 736.932 192.744C738.023 192.507 741.674 192.222 742.954 191.89C744.235 191.559 745.088 188.476 744.661 188.05L742.385 189.662C741.532 188.05 740.726 187.196 740.584 187.718C740.441 188.239 739.398 189.946 738.545 189.946C737.691 189.946 735.462 190.373 735.937 190.895C736.411 191.416 734.372 193.266 733.139 193.408V193.74C733.139 194.356 734.087 195.447 733.755 195.731C732.523 196.917 731.764 195.731 730.768 195.162H730.294C729.535 195.162 729.298 194.925 729.725 194.451C730.152 193.977 730.768 192.602 730.389 192.222C730.02 191.662 729.775 191.03 729.669 190.368C729.562 189.706 729.598 189.029 729.772 188.382L731.906 189.852C732.229 189.988 732.575 190.059 732.926 190.059C733.276 190.059 733.623 189.988 733.945 189.852C734.609 189.283 734.846 188.382 735.415 187.765C735.604 187.848 735.808 187.89 736.014 187.889C736.22 187.888 736.424 187.843 736.612 187.758C736.799 187.673 736.967 187.55 737.104 187.396C737.241 187.242 737.344 187.061 737.407 186.864L737.739 186.153L738.971 183.735C741.295 184.968 743.429 186.058 743.713 186.153C744.845 185.352 745.626 184.147 745.894 182.786L743.808 181.269L744.235 179.989C744.235 179.04 744.851 178.851 746.037 179.657L747.222 180.178H747.649C748.407 180.178 749.071 180.178 749.166 180.747C749.288 180.923 749.451 181.067 749.641 181.167C749.831 181.266 750.042 181.318 750.257 181.318C750.471 181.318 750.682 181.266 750.872 181.167C751.062 181.067 751.225 180.923 751.347 180.747V179.989L752.011 177.665C752.963 176.738 754.167 176.112 755.473 175.863C756.279 175.863 758.46 175.247 758.46 174.536C758.46 173.824 758.839 171.738 759.882 172.117C761.878 172.709 764.003 172.709 765.999 172.117C767.232 171.264 765.999 167.376 765.999 166.949C765.999 166.522 766.805 166.285 766.616 166.949C766.426 167.613 770.362 166.522 771.357 165.621C772.353 164.72 776.905 166.333 777.759 166.095V165.716L778.091 164.673C779.168 164.47 780.188 164.033 781.078 163.393C781.694 162.871 782.358 161.496 781.078 161.543C779.798 161.591 777.996 161.211 779.134 160.927C780.272 160.642 781.931 158.793 782.358 159.457C783.362 160.382 784.615 160.992 785.962 161.211C786.863 161.211 789.139 160.168 787.811 158.888C786.985 157.548 786.547 156.005 786.547 154.431C786.547 152.857 786.985 151.313 787.811 149.974L789.708 147.935C790.09 147.789 790.512 147.789 790.893 147.935H791.178C791.616 148.924 791.873 149.984 791.937 151.064V152.344V152.819C791.937 153.767 791.178 153.482 790.419 152.202H789.85H789.044C788.324 152.647 787.696 153.227 787.195 153.909C787.185 154.207 787.245 154.503 787.368 154.774C787.491 155.046 787.676 155.285 787.906 155.474C789.001 156.748 790.207 157.922 791.51 158.983L792.98 157.418C793.665 157.65 794.331 157.936 794.971 158.272C795.682 158.651 796.299 159.41 796.963 159.41H798.29C799.713 159.078 800.472 158.556 799.95 158.272C798.716 157.759 797.449 157.331 796.157 156.991C795.208 156.991 792.648 155.569 793.075 155.047V154.383V153.767C793.075 152.961 793.359 152.534 793.928 152.771C794.842 153.033 795.812 153.033 796.726 152.771C797.635 152.431 798.509 152.002 799.334 151.491C799.808 151.017 799.997 149.167 798.575 149.594C796.758 150.137 794.903 150.549 793.027 150.827C793.026 150.339 793.123 149.855 793.312 149.405C793.312 149.405 794.07 149.405 794.45 149.405L797.105 148.788C796.587 147.612 796.406 146.315 796.583 145.042L797.152 145.327L798.243 145.848C799.239 145.516 800.045 145.848 800.092 145.848C800.653 147.301 801.318 148.712 802.084 150.068C802.89 151.538 804.976 156.233 805.545 157.134L806.399 157.418C807.388 157.552 808.394 157.455 809.339 157.134C809.339 157.134 809.671 156.517 809.339 156.233C808.959 154.952 807.679 155.569 806.731 155.427C806.731 155.427 806.257 154.289 806.257 152.866C806.691 151.022 807.516 149.292 808.675 147.792C810.622 147.259 812.631 146.988 814.649 146.986L815.977 144.663C816.546 143.62 817.494 143.809 818.49 144.663L820.719 146.18C822.236 144.805 822.853 143.43 822.094 143.145C821.335 142.861 818.917 142.624 818.632 143.145C818.348 143.667 817.684 141.723 818.158 141.154H818.68H820.387C821.246 140.405 822.269 139.869 823.374 139.589H823.659L825.792 140.964C826.519 139.97 827.48 139.172 828.59 138.641C829.923 138.512 831.191 138.001 832.241 137.171C833.047 136.128 835.845 133.852 835.371 133.14C834.727 131.999 834.172 130.81 833.711 129.584C833.711 129.063 835.134 129.015 835.039 129.584L835.798 130.201C836.657 130.691 837.3 131.486 837.599 132.429C837.781 133.357 838.101 134.252 838.548 135.085C838.832 135.322 840.302 134.61 841.251 133.046C842.199 131.481 844.949 127.782 845.281 128.067C845.613 128.351 846.324 129.252 846.135 129.442C845.945 129.632 845.613 130.39 846.135 130.675H846.419C846.988 130.675 847.889 130.343 847.936 130.106V128.968C847.936 127.782 846.419 126.36 844.712 125.838C843.005 125.317 839.97 130.011 839.97 130.153C839.684 130.289 839.361 130.325 839.052 130.257C838.742 130.188 838.465 130.018 838.263 129.774C837.647 129.062 835.086 128.256 835.086 127.782C835.101 127.029 835.005 126.279 834.802 125.554C834.802 125.269 834.802 124.558 835.086 124.605C835.371 124.653 837.647 126.217 839.069 126.881L840.207 125.222L841.535 123.325C844.522 122.187 846.514 121.713 845.945 122.282C845.376 122.851 844.854 124.463 846.229 124.51H848.553H849.786C850.23 125.253 850.87 125.86 851.635 126.265C852.156 126.265 854.243 126.265 854.243 125.222C854.243 124.179 854.575 121.571 855.049 121.571C855.523 121.571 856.282 121.902 856.092 122.329V123.325C856.092 124.351 855.759 125.349 855.144 126.17L856.329 126.597L857.088 126.881C858.321 126.597 858.985 125.696 858.653 124.89L858.321 124.179L858.937 123.657L860.265 123.941C861.687 124.273 862.873 123.941 862.873 123.325V122.756V122.14C862.873 121.286 863.157 120.859 863.679 121.239C864.201 121.618 866.239 122.234 866.714 121.571C867.132 120.716 867.328 119.77 867.283 118.82C867.283 118.109 869.891 117.398 871.408 117.35C872.925 117.303 874.3 113.604 874.822 113.273H875.249C875.487 113.33 875.709 113.441 875.898 113.597C876.087 113.753 876.238 113.95 876.339 114.173C876.339 114.648 876.339 115.264 876.339 115.691C876.522 115.886 876.742 116.041 876.987 116.147C877.231 116.253 877.495 116.308 877.762 116.307L878.947 115.833C879.797 114.992 880.735 114.244 881.745 113.604C882.267 113.604 883.452 112.893 882.978 112.704C882.504 112.514 881.413 111.803 881.603 111.518C882.815 110.915 884.086 110.438 885.396 110.096C887.731 109.128 890.188 108.49 892.698 108.199H893.789H895.97C895.663 106.985 895.663 105.714 895.97 104.5C896.302 103.694 899.1 104.5 899.669 104.216L899.953 103.789C900.854 102.651 901.139 100.517 903.604 102.698C904.289 102.786 904.981 102.617 905.548 102.224C906.402 100.043 907.398 98.668 910.29 100.707C911.286 100.185 914.036 98.5732 916.312 97.1032L918.446 95.7281C919.024 95.2842 919.549 94.775 920.011 94.2108C920.186 93.5119 920.492 92.8524 920.912 92.2667C921.433 91.508 924.326 91.0338 924.089 91.8399V92.5037C924.08 93.0406 924.265 93.5625 924.61 93.9737C924.706 94.1418 924.851 94.2766 925.025 94.3601C925.2 94.4436 925.395 94.4717 925.586 94.4407C925.777 94.4098 925.954 94.3212 926.093 94.1869C926.232 94.0525 926.327 93.8789 926.365 93.6892L927.218 90.7493C931.089 89.7353 934.817 88.2378 938.314 86.2921H941.728C942.06 86.2921 942.392 85.5808 942.629 85.2015L943.814 83.2099C944.905 84.348 946.185 84.4902 946.612 83.5419C947.039 82.5935 952.871 81.1236 955.763 79.9856L956.759 78.895C957.371 78.2119 958.02 77.5629 958.703 76.9509C959.462 76.9509 959.936 77.5199 959.746 77.994C959.684 78.1837 959.68 78.3877 959.735 78.5795C959.79 78.7714 959.902 78.9424 960.055 79.0701C960.208 79.1979 960.396 79.2767 960.595 79.2962C960.794 79.3157 960.994 79.275 961.169 79.1795C962.449 78.7053 966.337 76.9509 967.381 76.3819C969.191 75.2081 971.199 74.3727 973.308 73.9162C974.778 73.9162 978.05 72.1617 979.899 73.6316L977.338 75.718C978.287 76.6664 979.425 76.2396 979.804 74.8171C980.183 73.3946 982.08 70.0754 982.981 70.5969C983.882 71.1185 985.542 72.6359 985.636 71.2134L988.102 71.735C988.624 71.735 989.43 71.2608 989.951 70.9289C990.473 70.5969 989.951 70.1702 989.667 70.0279C988.576 69.2693 987.818 70.0279 987.059 70.5021C986.49 70.5021 986.3 69.9805 986.68 69.2218C987.059 68.4632 988.292 66.7561 988.671 67.0406C989.093 67.0975 989.523 67.0394 989.916 66.8725C990.308 66.7056 990.648 66.4361 990.9 66.0923C991.421 65.3336 995.357 64.1482 996.163 62.6308H999.34C1000.24 64.1008 1001.28 65.0965 1001.66 64.9069C1000.43 62.3463 1003.75 61.4454 1004.51 59.6435L1007.45 58.6952L1009.01 59.359C1011.05 60.2125 1011.57 58.6952 1012.47 57.5098C1013.38 56.3243 1015.41 57.9839 1016.08 55.7079C1016.74 53.4319 1019.78 53.6689 1021.77 54.0957C1023 54.4276 1023.57 54.6173 1023.48 55.7079V56.514C1023.48 57.8417 1024.47 58.3158 1025.56 57.5572V57.083L1026.08 55.3286C1024.76 53.8586 1025.37 51.8197 1027.46 50.5868L1029.4 49.5911C1029.92 49.354 1030.49 48.7375 1030.87 48.785C1036.28 49.6385 1038.17 44.8493 1042.54 44.0432H1042.82C1043.06 42.9526 1043.39 42.4785 1043.63 42.9526C1044.22 43.3863 1044.91 43.6763 1045.63 43.7997C1046.35 43.9231 1047.1 43.8767 1047.8 43.6639C1049.55 43.0475 1052.54 39.7283 1052.54 40.0602V40.3447V40.6292C1052.54 41.1508 1053.54 41.0559 1054.34 40.3921L1055.01 39.8705C1055.59 39.3294 1056.22 38.8524 1056.9 38.448C1057 38.8001 1057.23 39.1003 1057.54 39.2826C1057.86 39.4649 1058.24 39.5144 1058.59 39.42C1058.94 39.3257 1059.24 39.0954 1059.42 38.7797C1059.6 38.464 1059.65 38.0889 1059.56 37.7367L1060.13 37.4048H1060.56C1061.41 37.6102 1062.25 37.8797 1063.07 38.2109C1064.91 37.7102 1066.66 36.9091 1068.24 35.84C1070.09 34.7494 1075.21 32.5682 1076.77 31.9044L1078.1 31.2406C1078.62 30.956 1079.29 30.15 1079.43 30.1974L1080.85 30.8138C1081.63 30.7697 1082.39 30.5559 1083.08 30.1873C1083.77 29.8187 1084.36 29.3043 1084.83 28.68H1086.68C1087.69 28.8275 1088.68 29.0982 1089.62 29.4861H1090.05C1090.76 29.4861 1091.28 29.4861 1091.23 29.1068C1091.03 28.5253 1090.79 27.9555 1090.52 27.3997H1092.42C1093.16 27.334 1093.89 27.1247 1094.55 26.7833C1095.45 26.404 1096.26 25.835 1097.07 25.4082C1097.45 25.4082 1097.54 25.9298 1097.4 26.4514C1097.26 26.973 1096.92 28.3955 1097.4 28.5378C1097.69 28.6089 1097.99 28.5768 1098.26 28.4469C1098.53 28.3171 1098.74 28.0977 1098.87 27.8265L1099.3 27.3049L1101.81 24.0805C1104.13 24.499 1106.51 24.499 1108.83 24.0805L1109.35 24.4125C1109.92 24.7444 1109.82 25.835 1110.39 26.0721L1111.2 26.404C1112.48 26.404 1113.57 25.7876 1113.57 25.0763C1113.57 24.365 1112.86 22.2313 1112 22.1838C1111.15 22.1364 1108.87 21.6623 1109.02 21.2355L1109.87 20.8562C1111.03 20.5011 1112.27 20.5011 1113.43 20.8562C1115 21.0743 1116.59 21.0743 1118.17 20.8562H1118.59C1120.82 21.3303 1121.68 22.4209 1121.06 24.0331C1121.06 24.3176 1120.25 24.5073 1120.21 24.7918V25.3608C1120.34 25.7022 1120.61 25.9769 1120.95 26.1272C1121.28 26.2776 1121.66 26.2918 1122.01 26.1669L1122.44 25.7876L1124.14 24.1754C1125.77 24.5109 1127.36 25.0196 1128.88 25.6927C1129.92 25.6655 1130.92 25.2991 1131.73 24.6495H1133.06H1135C1137.13 25.1711 1139.08 26.2617 1139.32 27.1152C1139.55 27.9688 1142.35 28.0636 1142.54 28.3955C1142.73 29.6684 1142.73 30.9634 1142.54 32.2363H1145.1C1145.02 33.8637 1144.66 35.466 1144.06 36.9781L1145.48 38.8273C1146.19 39.7757 1148.51 41.625 1145.48 43.1423C1145.48 43.1423 1145.91 43.9958 1146.05 44.47C1146.19 44.9442 1146.33 45.6554 1146.48 46.2244L1146.71 50.9662L1147.47 52.768C1148.26 54.6129 1148.79 56.5605 1149.04 58.5529C1149.04 59.691 1151.98 62.2989 1152.26 62.8679C1152.55 63.4369 1152.26 65.2862 1151.83 65.3336L1151.31 65.5707C1150.23 65.9091 1149.19 66.3873 1148.23 66.9932C1147.8 67.3251 1150.7 68.4157 1147.8 68.7477H1146.9C1146.1 69.5538 1145.01 70.5495 1144.53 70.9289C1143.73 71.7231 1143.06 72.6345 1142.54 73.6316H1142.16L1140.79 74.0584C1139.87 74.1294 1138.98 74.3844 1138.16 74.808C1137.35 75.2317 1136.63 75.8154 1136.04 76.5241L1134.91 77.425L1133.58 78.4208L1128.32 81.3607C1126.8 82.1194 1120.68 85.5334 1117.98 87.0982L1115.51 88.6155C1114.55 88.7584 1113.58 88.7584 1112.62 88.6155C1111.2 88.6155 1107.88 91.6028 1107.26 92.2192C1105 93.6306 1102.64 94.8671 1100.2 95.9178C1097.62 97.3642 1095.12 98.947 1092.7 100.66C1092.28 100.66 1090.67 100.991 1089.95 101.229C1088.76 101.972 1087.62 102.795 1086.54 103.694C1085.83 104.168 1083.84 104.5 1083.89 106.539H1080.04C1079.24 106.776 1078.67 106.539 1078.81 106.539C1078.95 106.539 1078.81 105.401 1078.81 105.259C1077.96 105.188 1077.11 105.285 1076.3 105.544C1075.4 105.828 1075.68 109.432 1074.26 111.755L1071.37 112.182L1069.09 112.466C1067.5 113.525 1065.78 114.37 1063.97 114.98C1062.38 115.675 1060.9 116.584 1059.56 117.682L1058.52 118.346L1057 119.389C1055.78 120.295 1054.37 120.897 1052.87 121.144H1052.45H1051.88C1050.69 121.267 1049.57 121.746 1048.65 122.519C1046.8 124.231 1044.84 125.816 1042.77 127.261C1041.45 127.877 1037.8 129.489 1037.75 129.584C1037.7 129.679 1038.6 130.011 1039.93 129.916C1042.1 129.609 1044.24 129.117 1046.33 128.446L1047.18 128.019L1050.88 126.17C1051.99 126.543 1053.13 126.781 1054.3 126.881C1054.77 126.881 1055.06 125.696 1055.67 125.364C1056.64 124.715 1057.74 124.294 1058.9 124.131H1061.03C1063.26 123.467 1065.16 121.76 1065.25 120.338L1066.96 121.096L1069.94 122.377C1070.47 120.48 1071.51 118.915 1072.27 118.915C1073.03 118.915 1075.82 118.915 1076.73 118.915V116.734C1078.86 116.734 1081.47 116.734 1082.18 116.402C1082.89 116.07 1085.73 115.074 1086.54 114.98C1087.35 114.885 1090.76 114.98 1091.99 114.6C1093.88 113.748 1095.51 112.425 1096.74 110.759L1098.54 111.85C1099.68 110.807 1100.72 110.143 1100.81 110.427C1100.91 110.712 1102.14 110.854 1102.99 109.621L1104.08 109.052C1105.29 108.733 1106.54 108.637 1107.78 108.768H1109.54C1110.52 107.895 1111.69 107.261 1112.95 106.919H1113.52C1114 106.919 1114.47 107.393 1114.9 107.393C1116.03 107.393 1115.89 104.785 1118.17 106.35L1118.59 106.634C1120.06 106.065 1122.34 105.022 1123.67 104.358L1124.71 103.599C1126.09 102.556 1126.94 105.496 1128.27 103.836L1129.12 102.793C1130.4 103.078 1133.01 103.789 1134.95 104.311L1135.57 102.129V101.276C1136.04 101.276 1137.7 100.565 1139.32 100.138C1141.38 99.5341 1143.52 99.2777 1145.67 99.3793C1145.67 99.806 1146.86 100.754 1147 100.138C1147.43 99.5649 1148.02 99.1326 1148.69 98.8962C1149.37 98.6597 1150.1 98.6298 1150.79 98.8102L1151.93 98.4309C1152.82 98.5571 1153.69 98.7797 1154.54 99.0947C1155.25 99.5543 1156.02 99.9359 1156.81 100.233C1157.9 100.612 1159.09 103.931 1159.28 104.595C1159.47 105.259 1164.68 105.259 1166.58 105.401C1169.89 105.759 1173.15 106.474 1176.3 107.535C1178.24 109.525 1179.84 111.815 1181.04 114.316H1178.58C1178.29 114.316 1177.87 115.501 1178.06 115.928L1178.34 116.592C1177.89 117.207 1177.38 117.778 1176.82 118.299C1176.35 118.726 1177.82 119.816 1178.39 120.385C1178.96 120.954 1177.91 123.23 1177.06 124.226L1179.48 124.795L1181.38 125.222C1180.76 126.692 1179.86 128.778 1179.43 129.963C1179 131.149 1179 134.99 1177.39 136.317H1181.19C1181.45 137.259 1181.6 138.231 1181.61 139.21C1181.61 140.395 1182.18 143.952 1182.32 144.236L1180.76 145.943L1184.98 149.736C1185.83 150.59 1180.95 154.478 1179.05 155.284L1177.3 156.043C1175.26 156.896 1174.03 159.267 1172.84 161.164C1171.65 163.061 1173.55 163.487 1175.02 162.587C1176.49 161.686 1177.3 164.056 1178.67 162.966C1180.05 161.875 1180.62 160.737 1182.8 160.88H1184.17C1185.81 160.521 1187.51 160.521 1189.15 160.88H1190.05C1190.95 160.88 1191.47 159.552 1192.38 159.173L1193.23 158.841C1194.85 158.899 1196.45 159.219 1197.97 159.789C1199.3 160.311 1203.23 158.983 1203.66 159.03C1204.09 159.078 1206.51 159.884 1208.4 160.358C1210.3 160.832 1215.56 159.41 1216.61 159.979C1217.65 160.548 1221.35 161.828 1221.82 161.449C1222.3 161.069 1224.05 160.548 1224.67 161.022C1225.37 161.538 1226.01 162.144 1226.56 162.824C1224.81 162.93 1223.05 162.93 1221.3 162.824H1218.98H1217.74C1216.51 163.867 1217.74 164.957 1220.3 165.195L1222.34 164.625C1224.38 164.056 1225.81 166.712 1227.84 164.625L1228.65 163.914C1229.97 164.164 1231.26 164.497 1232.54 164.91C1233.04 165.327 1233.51 165.77 1233.96 166.238C1235.02 166.376 1236.1 166.229 1237.09 165.811C1238.31 165.42 1239.61 165.29 1240.88 165.432C1241.31 165.669 1241.83 166.712 1241.69 167.044C1241.32 167.367 1240.88 167.606 1240.4 167.745C1239.93 167.884 1239.43 167.92 1238.94 167.85C1237.75 167.85 1236.47 170.648 1235.53 170.932C1234.58 171.217 1233.96 173.635 1234.39 173.777C1234.81 173.919 1235.57 174.962 1235.24 175.721C1234.91 176.48 1237.94 176.954 1238.94 177.523H1239.94C1240.38 177.569 1240.82 177.569 1241.26 177.523H1242.07C1242.86 177.474 1243.65 177.474 1244.44 177.523C1244.87 177.523 1246.05 178.092 1245.86 178.803C1245.67 179.515 1245.86 181.553 1245.34 181.648C1243.86 181.652 1242.39 181.541 1240.93 181.316C1239.6 181.316 1239.6 184.161 1240.13 183.355C1240.65 182.549 1243.44 183.924 1242.88 184.636C1242.31 185.347 1241.07 187.623 1241.5 187.765C1243.37 188.555 1245.16 189.507 1246.86 190.61L1249.47 191.132C1249.1 192.231 1248.57 193.27 1247.9 194.214C1247.1 195.305 1248.42 198.624 1247.9 198.956C1247.76 199.105 1247.65 199.284 1247.59 199.481C1247.52 199.677 1247.5 199.886 1247.53 200.091C1247.56 200.296 1247.63 200.493 1247.74 200.665C1247.86 200.838 1248.01 200.983 1248.19 201.089L1249.32 201.516C1249.9 201.595 1250.49 201.46 1250.98 201.137C1251.29 200.949 1251.64 200.871 1252 200.914C1252.35 200.957 1252.68 201.119 1252.93 201.374V201.658C1253.31 201.943 1252.17 202.844 1250.46 203.603C1248.76 204.361 1243.59 202.654 1243.21 202.702C1241.65 203.389 1240.16 204.214 1238.75 205.167C1235.69 206.395 1232.51 207.301 1229.27 207.87C1227.94 208.343 1226.68 208.98 1225.52 209.767L1224.05 210.241L1222.58 210.715L1215.52 211.284L1214.85 212.09L1213.14 214.129C1211.24 213.5 1209.22 213.243 1207.22 213.371C1206.17 213.655 1202.81 213.655 1201.86 213.797C1200.91 213.94 1196.74 214.888 1194.18 215.504C1191.62 216.121 1181.75 217.875 1177.91 218.492C1174.07 219.108 1163.69 220.531 1162.88 220.72H1162.31L1155.82 222.238H1150.41L1137.89 226.505C1136.33 227.027 1128.93 228.117 1125 228.923H1121.39H1117.93C1114.52 229.872 1111.62 230.773 1111.43 230.915C1110.79 231.406 1110.09 231.819 1109.35 232.148C1107.65 232.082 1105.96 232.162 1104.27 232.385C1100.63 233.193 1096.94 233.763 1093.23 234.092L1089.29 234.898C1087.96 235.135 1085.64 233.95 1085.07 234.424L1083.32 235.941C1081.94 235.04 1080.42 234.708 1079.95 235.182C1079.48 235.657 1077.1 235.182 1076.25 235.514C1075.4 235.846 1071.84 234.044 1069.99 233.807L1068.81 233.144C1067.14 232.388 1065.32 232.062 1063.5 232.195H1063.16C1061.92 231.52 1060.64 230.919 1059.32 230.393C1057.57 229.682 1050.88 227.548 1048.61 226.837L1047.09 225.462L1045.57 224.087C1046.38 223.268 1047.11 222.379 1047.75 221.431C1047.56 220.47 1047.23 219.543 1046.76 218.681L1047.71 217.923L1048.08 217.496C1047.82 216.43 1047.41 215.407 1046.85 214.461C1046.23 212.732 1045.98 210.888 1046.14 209.056C1046.14 208.202 1043.44 206.874 1043.39 206.448C1043.34 206.021 1042.87 202.37 1042.44 199.43L1041.78 196.774V196.205C1040.19 196.005 1038.59 196.101 1037.04 196.49C1035.95 196.822 1031.54 198.481 1029.64 199.24C1026.32 200.372 1023.21 202.055 1020.44 204.219L1017.36 203.603L1015.6 203.223L1008.25 206.542C1006.55 207.254 1000.81 208.913 999.435 209.625C996.6 210.768 993.703 211.75 990.757 212.564C988.297 213.675 985.986 215.093 983.882 216.785C983.171 217.306 980.942 215.931 980.61 215.931C980.278 215.931 978.144 216.358 975.868 216.785C972.568 218.546 969.399 220.543 966.385 222.759C964.393 223.613 958.893 224.798 958.988 225.604C959.083 226.41 955.858 226.031 955.289 226.173C954.72 226.315 953.535 227.548 953.155 227.453C951.2 227.755 949.278 228.248 947.418 228.923L945.284 229.73L944.051 230.204C942.992 230.914 941.767 231.339 940.495 231.437C939.204 231.745 937.982 232.292 936.891 233.049C935.066 233.953 933.181 234.729 931.249 235.372L929.542 235.751C926.791 236.321 923.804 236.463 922.998 239.355C921.294 239.212 919.581 239.212 917.877 239.355C916.17 239.355 913.562 242.722 913.135 242.817L910.338 243.243C907.809 244.056 905.337 245.038 902.941 246.183C900.522 247.369 892.319 249.882 890.991 250.546C888.932 251.451 886.922 252.464 884.969 253.58C884.353 254.055 880.939 254.387 880.228 254.908C878.641 255.73 876.972 256.382 875.249 256.852C873.626 257.215 872.039 257.723 870.507 258.37C869.748 258.749 864.295 260.883 860.075 262.353L856.566 264.249L855.903 264.581C854.333 264.819 852.748 264.93 851.161 264.913L850.876 266.762C849.16 267.061 847.465 267.472 845.803 267.995C843.906 268.564 838.074 271.125 836.082 271.552C834.09 271.978 827.784 275.867 824.797 276.862L822.236 278.237L818.964 279.992C814.839 281.272 809.813 282.979 807.726 283.785C805.64 284.591 799.666 287.342 798.717 287.768C797.769 288.195 793.312 289.665 791.178 290.281C789.044 290.898 782.643 294.027 781.125 294.312C779.608 294.596 774.155 296.683 771.642 297.252L769.461 298.153H769.081C766.441 298.495 763.827 299.018 761.257 299.717L758.318 301.33C757.566 301.833 756.706 302.151 755.807 302.258C754.909 302.365 753.998 302.258 753.149 301.946C752.454 301.355 751.572 301.03 750.66 301.03C749.747 301.03 748.865 301.355 748.17 301.946C747.364 301.946 744.377 300.618 741.484 299.48C738.592 298.342 730.057 297.204 730.816 296.493V296.019V295.592C730.557 295.307 730.228 295.096 729.862 294.98C729.495 294.863 729.105 294.845 728.729 294.928L728.208 295.308L727.828 295.592C727.828 296.635 727.307 296.066 727.164 294.312C727.022 292.557 728.445 288.574 727.164 288.242L726.785 287.673C726.609 287.278 726.517 286.85 726.517 286.417C726.517 285.984 726.609 285.556 726.785 285.16L727.496 283.216C725.647 282.789 724.509 282.315 724.936 282.173C725.363 282.031 726.453 281.462 726.311 281.13H726.074C724.264 280.606 722.539 279.824 720.953 278.806C720.194 278.048 720.716 276.341 720.953 275.06C720.953 274.634 721.854 274.065 721.711 273.78L720.905 272.358C720.406 270.275 719.504 268.309 718.25 266.573L716.97 265.293L715.784 265.34C714.931 265.008 714.694 264.392 715.263 263.917C715.577 262.955 715.654 261.931 715.489 260.933C715.324 259.934 714.921 258.99 714.314 258.18V255.572V254.149C715.875 252.532 717.258 250.751 718.44 248.839L718.108 247.938C717.932 247.728 717.715 247.556 717.471 247.434C717.226 247.312 716.958 247.241 716.685 247.227C715.215 247.227 716.021 247.796 716.306 248.459C716.59 249.123 715.405 250.214 715.073 250.166H712.75C712.75 251.541 711.991 252.348 711.517 251.968C711.307 251.85 711.071 251.784 710.831 251.778C710.59 251.772 710.351 251.825 710.136 251.933C709.92 252.041 709.735 252.2 709.595 252.396C709.456 252.592 709.366 252.82 709.336 253.059C709.336 254.434 703.883 255.098 703.361 256.994L701.132 257.611C698.302 258.278 695.7 259.685 693.593 261.689L692.597 262.637C690.644 263.074 688.749 263.742 686.955 264.629C684.554 265.399 682.209 266.334 679.937 267.426L679.51 267.9L678.609 268.849C677.879 269.002 677.124 268.996 676.396 268.833C675.668 268.669 674.984 268.351 674.389 267.9C673.583 267.094 670.738 265.34 670.69 265.719C670.821 266.52 671.129 267.281 671.591 267.948L671.923 268.517C671.923 268.517 671.07 269.086 670.927 268.991C670.785 268.896 669.695 267.806 669.458 268.991C669.458 269.37 669.789 270.176 670.121 270.224H671.117C672.303 270.224 672.16 270.224 670.833 270.556C669.505 270.888 667.276 272.974 666.944 272.737H666.613L664.336 271.646C664.336 273.069 664.336 274.349 664.336 274.539C664.202 274.922 663.932 275.242 663.578 275.44L657.698 276.009L655.896 277.668C654.284 279.233 652.482 281.035 649.732 278.712C649.206 278.556 648.646 278.556 648.12 278.712C648.097 279.325 648.194 279.937 648.404 280.513C648.736 280.94 647.883 280.845 646.508 280.513C645.132 280.182 641.766 281.177 642.145 281.367C642.525 281.557 642.382 282.979 640.628 284.165L638.162 281.651C637.79 281.21 637.34 280.841 636.834 280.561H636.503C635.744 280.561 635.08 281.699 635.033 282.884V284.022C634.896 284.242 634.708 284.426 634.485 284.558C634.262 284.69 634.011 284.767 633.752 284.781H632.567C633.025 283.857 633.329 282.864 633.468 281.841L632.567 281.13C632.309 280.921 631.996 280.789 631.666 280.751L630.812 281.225C630.279 281.792 629.918 282.499 629.769 283.264C629.91 283.92 629.91 284.599 629.769 285.255C629.769 285.729 628.11 285.635 627.967 285.255C626.897 284.963 625.802 284.772 624.696 284.686ZM777.379 170.885C777.379 169.699 777.379 168.893 777.379 169.083C778.873 169.736 780.491 170.06 782.121 170.031L783.638 169.225L785.156 168.419C786.057 166.522 785.393 165.716 783.733 166.617L782.311 167.328L780.888 168.04C781.22 169.747 780.224 170.932 778.707 170.695L777.664 170.126L776.716 169.652C775.862 168.371 775.198 168.134 775.198 169.178C775.198 170.221 777.427 172.165 777.427 170.979L777.379 170.885ZM608.906 279.565C609.522 279.944 610.423 279.565 610.945 278.712L611.514 278.048C612.209 277.793 612.952 277.694 613.69 277.76C614.428 277.826 615.142 278.053 615.781 278.427C616.223 279.026 616.769 279.54 617.393 279.944C617.655 280.058 617.938 280.117 618.223 280.117C618.509 280.117 618.791 280.058 619.053 279.944C619.432 279.944 619.764 278.854 619.575 278.664C617.962 277.194 617.346 276.198 620.523 275.582H621.329C621.495 275.324 621.591 275.027 621.607 274.721C621.623 274.414 621.558 274.109 621.418 273.835C621.279 273.562 621.071 273.33 620.814 273.162C620.557 272.994 620.26 272.897 619.954 272.879C618.579 272.595 614.548 272.879 614.643 273.875V274.823V275.298C614.211 275.471 613.743 275.536 613.28 275.486C612.817 275.437 612.373 275.274 611.988 275.013L612.652 274.207V273.922C612.984 273.638 612.652 273.211 612.177 272.927H611.466C610.183 274.815 609.251 276.919 608.716 279.138L608.906 279.565ZM641.434 226.884C639.632 227.785 639.158 228.639 640.486 228.734C641.813 228.829 643.852 231.674 644.326 232.337C644.801 233.001 647.314 233.475 647.361 233.618C647.409 233.76 647.361 234.329 646.84 234.661C646.651 234.819 646.514 235.03 646.446 235.267C646.379 235.503 646.384 235.755 646.46 235.989C646.46 236.463 648.309 235.989 649.779 234.187L650.348 232.527L651.249 230.061C648.919 228.848 646.403 228.031 643.805 227.643L642.287 227.169L641.434 226.884ZM1018.88 58.0788C1018.12 57.8604 1017.34 57.7644 1016.55 57.7943C1015.81 58.3692 1015.12 59.0208 1014.51 59.7384C1013.85 60.5445 1017.17 62.4886 1019.26 61.6825L1020.96 60.9238L1021.67 60.5919C1022.62 59.9755 1019.87 58.4581 1018.88 58.221V58.0788ZM1102.71 30.6241C1103.03 30.9576 1103.44 31.183 1103.89 31.2682C1104.34 31.3533 1104.81 31.2939 1105.22 31.0983C1106.31 30.6024 1107.33 29.9647 1108.26 29.2016C1108.26 29.2016 1108.26 28.3481 1107.55 28.3955H1106.41C1105.6 28.3955 1105.32 28.0636 1105.79 27.4946V26.973V26.5462C1105.79 26.0721 1104.61 25.9772 1103.75 26.5462C1103.28 27.0998 1102.93 27.7558 1102.75 28.4631C1102.57 29.1704 1102.56 29.91 1102.71 30.6241ZM1042.96 47.2202C1042.81 47.0579 1042.62 46.934 1042.41 46.8586C1042.2 46.7832 1041.98 46.7583 1041.75 46.786C1041.53 46.8137 1041.32 46.8932 1041.14 47.0181C1040.95 47.1429 1040.8 47.3096 1040.69 47.5047C1039.17 48.6153 1037.59 49.6289 1035.95 50.5394C1035.85 50.8434 1035.87 51.1702 1035.99 51.4642C1036.11 51.7581 1036.33 52.001 1036.61 52.1516H1036.89L1038.13 51.4403C1039.56 51.2937 1040.98 51.0721 1042.39 50.7765C1043.34 50.1601 1043.72 47.6469 1042.96 47.2202ZM938.646 94.0685C939.12 94.3056 939.404 93.2624 939.31 91.6976L941.965 93.4047L943.482 94.4004C944.209 93.6636 944.76 92.7721 945.095 91.7925C945.095 91.2709 944.857 89.8484 944.336 89.8484C942.807 90.0804 941.358 90.6827 940.116 91.6028L938.504 91.9347C938.504 91.9347 938.266 93.1202 938.504 93.6418L938.646 94.0685ZM814.934 151.823C815.693 153.008 816.878 153.103 817.637 151.823C818.944 150.473 820.39 149.265 821.952 148.219C822.426 147.935 821.003 146.749 819.676 146.322L819.249 146.702C817.687 147.871 816.353 149.318 815.313 150.969L814.934 151.823ZM672.54 222.664C673.441 223.139 674.152 222.664 674.057 221.005C673.962 219.345 672.018 217.638 671.449 217.78C670.88 217.923 669.505 218.634 670.216 218.824C670.927 219.013 671.923 219.582 671.259 219.724C670.596 219.867 670.311 221.194 670.927 221.953L671.876 222.332L672.54 222.664ZM1080.33 32.6157C1080 32.3312 1079.38 32.6157 1079 33.7063L1078.38 34.2278L1077.39 35.0339C1076.42 35.5204 1075.51 36.1257 1074.69 36.8358C1074.59 37.1442 1074.62 37.4767 1074.76 37.7668C1074.9 38.0568 1075.14 38.2832 1075.44 38.4006H1076.87C1077.78 37.8039 1078.63 37.1038 1079.38 36.3142C1080.11 35.1746 1080.41 33.8143 1080.23 32.4734L1080.33 32.6157ZM964.725 81.5029C965.057 81.7874 965.437 81.2184 965.626 80.2227C965.816 79.2269 970.368 80.2227 971.696 80.2227L973.118 79.9856C973.118 79.4166 972.17 78.7053 971.221 78.3734C969.622 78.1871 968.001 78.3655 966.48 78.895C965.579 79.2743 964.393 81.2184 964.725 81.5029ZM604.354 251.873C603.927 249.408 602.978 248.365 602.22 249.597C601.461 250.83 601.177 253.675 603.216 253.249L604.022 252.253L604.354 251.873ZM1067.29 41.2456C1068.62 41.2456 1069.8 40.6766 1069.9 40.0128L1070.28 39.6808C1071.13 38.8747 1072.08 38.0686 1070.56 37.31H1070.13C1069.04 38.0212 1067 39.4912 1065.39 40.6766H1063.35H1063.02C1062.26 40.8189 1065.91 41.2456 1067.29 41.2456ZM894.785 111.328C893.552 113.557 894.216 114.742 896.255 113.984L896.824 110.807C896.824 110.807 897.156 110.57 897.25 110.427V110.096C897.25 109.669 896.729 109.337 895.923 109.289V109.527L894.785 111.328ZM628.157 271.267C627.588 271.267 627.73 271.836 628.489 272.358C629.248 272.879 631.856 271.504 632.851 271.172H633.752C634.535 271.08 635.311 270.938 636.076 270.745C636.076 270.745 636.36 270.129 636.076 269.845V269.56C635.035 269.062 633.936 268.696 632.804 268.469C631.476 267.948 628.774 271.22 628.157 271.267ZM639.348 262.258C638.921 266.715 638.921 266.715 644.801 269.038L639.348 262.258Z" fill="#F8F8F8"/>
<path d="M807.809 143.952C809.469 145.517 810.607 146.987 810.369 147.176C810.018 147.329 809.639 147.408 809.255 147.408C808.872 147.408 808.492 147.329 808.141 147.176C807.382 146.655 805.628 144.568 806.718 144.189L807.24 143.904C807.667 143.62 808.188 143.193 808.188 142.861C808.188 142.529 807.619 142.055 807.145 141.866C806.671 141.676 806.244 141.866 805.912 141.866C805.58 141.866 804.395 141.012 804.49 140.728L805.154 138.736C805.77 139.874 806.955 140.49 807.761 140.064C808.568 139.637 810.369 138.214 810.844 138.783C811.469 139.502 812.169 140.154 812.93 140.728C813.178 140.07 813.178 139.346 812.93 138.689L812.693 137.788C812.266 136.413 812.693 136.27 814.827 136.365C815.125 136.409 815.429 136.409 815.728 136.365H816.202C816.676 136.365 816.961 136.982 816.866 137.693H816.581C814.258 138.025 813.641 138.689 815.443 140.301C816.202 140.965 816.107 141.723 814.59 142.15C813.072 142.577 812.693 143.667 811.65 143.81L807.809 143.952Z" fill="#F8F8F8"/>
<path d="M748.637 169.415C748.806 168.953 749.13 168.564 749.553 168.313C749.977 168.062 750.474 167.966 750.96 168.04C751.909 168.04 754.564 167.471 755.417 168.609C756.271 169.747 753.663 172.734 754.279 173.35C754.896 173.967 753.189 175.816 751.719 175.484C750.249 175.152 748.163 172.26 748.921 172.023H749.443H750.344C751.102 171.596 751.292 170.79 750.818 170.316H750.201L748.637 169.415Z" fill="#F8F8F8"/>
<path d="M763.203 165.147C764.294 165.669 763.772 167.708 762.018 169.889L759.694 168.324L757.75 166.997C758.082 164.768 761.875 164.626 763.203 165.147Z" fill="#F8F8F8"/>
<path d="M900.707 93.4997C900.328 94.0213 899.617 93.8317 899.19 93.073C898.763 92.3143 902.083 91.0815 902.936 90.7495C903.79 90.4176 906.824 89.6115 907.251 90.0383C907.678 90.465 907.678 91.5082 906.445 91.4134C905.212 91.3185 904.453 94.1162 904.169 94.1636C903.884 94.211 900.945 92.9781 900.707 93.4997Z" fill="#F8F8F8"/>
<path d="M744.23 162.208C744.23 161.212 744.23 160.69 744.799 161.117C745.802 161.599 746.917 161.796 748.024 161.686C749.2 161.482 750.404 161.482 751.58 161.686C752.671 161.686 755.184 162.492 754.899 162.777C754.091 163.145 753.224 163.369 752.339 163.441C751.533 163.441 751.011 165.1 750.11 164.531C748.695 163.908 747.237 163.385 745.748 162.967L744.847 162.398L744.23 162.208Z" fill="#F8F8F8"/>
<path d="M894.251 98.2889C893.587 98.9054 893.35 99.664 893.777 99.996C894.204 100.328 894.441 101.324 893.445 101.466C892.449 101.608 890.505 99.2373 890.41 97.7673L891.975 97.0087L893.255 96.3922C895.152 96.2026 894.915 97.6725 894.251 98.2889Z" fill="#F8F8F8"/>
<path d="M762.111 156.281C760.689 156.897 759.788 156.66 760.12 155.712C760.452 154.763 761.495 152.203 762.396 152.203C763.297 152.203 763.581 155.474 762.111 156.281Z" fill="#F8F8F8"/>
<path d="M857.421 105.971C858.796 107.583 858.607 108.958 857.042 109.1C855.477 109.242 853.154 111.898 851.684 111.281L850.641 110.712C850.641 110.712 851.067 109.29 851.21 109.29C851.997 109.408 852.802 109.342 853.559 109.095C854.316 108.848 855.006 108.427 855.572 107.867L857.421 105.971Z" fill="#F8F8F8"/>
<path d="M783.438 152.203C783.573 152.389 783.646 152.613 783.646 152.843C783.646 153.073 783.573 153.297 783.438 153.483C782.992 154.122 782.76 154.885 782.774 155.664C782.774 156.375 782.442 158.13 782.063 157.94C781.683 157.75 779.502 156.186 777.938 155L779.028 153.815C779.834 152.866 782.015 152.677 783.77 152.25L783.438 152.203Z" fill="#F8F8F8"/>
<path d="M767.931 160.169C768.31 160.927 767.931 161.591 767.362 161.591C766.793 161.591 764.232 161.828 764.991 162.066C765.75 162.303 767.077 163.251 766.081 163.298C765.086 163.346 762.288 162.872 761.909 161.923C761.529 160.975 764.896 159.837 764.943 159.22C764.991 158.604 767.457 159.363 767.931 160.169Z" fill="#F8F8F8"/>
<path d="M769.405 164.104C768.883 162.634 769.405 161.686 770.211 162.018C771.017 162.349 772.724 159.931 773.151 159.742C773.578 159.552 774.763 159.742 774.668 159.742C774.573 159.742 775.332 161.259 775.522 161.591C775.711 161.923 774.763 162.634 772.534 161.591L770.543 163.061L769.405 164.104Z" fill="#F8F8F8"/>
<path d="M621.366 284.544C622.789 284.829 623.547 285.73 622.978 286.583H622.504C621.526 286.664 620.545 286.484 619.659 286.062L616.862 284.307C616.862 286.109 616.435 286.963 616.245 286.204C616.055 285.445 619.896 284.307 621.366 284.544Z" fill="#F8F8F8"/>
<path d="M879.371 107.535C877.048 106.729 877.143 106.824 879.371 107.82L881.647 106.207L882.074 105.875C884.113 106.824 884.397 108.389 882.69 109.432L880.983 108.531L879.371 107.535Z" fill="#F8F8F8"/>
<path d="M823.421 132.572C823.746 132.633 824.082 132.603 824.391 132.486C824.701 132.369 824.972 132.169 825.175 131.908C825.555 131.386 827.309 130.201 827.594 131.054V131.434C827.357 132.05 826.598 132.524 826.408 133.141L826.124 134.042C825.628 134.38 825.041 134.561 824.44 134.561C823.84 134.561 823.253 134.38 822.757 134.042L821.998 133.236L821.761 132.999C821.05 132.572 822.852 132.572 823.421 132.572Z" fill="#F8F8F8"/>
<path d="M810.051 129.49C811.901 129.917 812.849 130.96 812.185 131.766C811.521 132.572 808.629 131.197 808.155 131.102V132.477C808.155 132.762 807.443 133.236 807.301 133.188L806.4 132.856C805.215 132.572 808.249 129.016 810.051 129.49Z" fill="#F8F8F8"/>
<path d="M755.99 154.289C755.99 153.056 756.37 152.487 757.271 153.056C758.172 153.625 756.939 156.185 755.564 157.323L754.141 158.272C753.781 158.225 753.446 158.058 753.193 157.798C753.193 157.798 752.908 156.992 753.193 156.849C753.477 156.707 755.279 155.854 755.611 155.142L755.99 154.289Z" fill="#F8F8F8"/>
<path d="M725.267 195.352C724.841 196.395 724.224 197.059 723.892 196.822L723.323 196.158L722.849 195.637C722.565 194.973 722.849 194.594 722.849 194.783C723.783 194.82 724.712 194.625 725.552 194.214C726.216 193.882 728.112 193.219 728.16 193.55C728.207 193.882 729.061 194.688 729.487 195.02C729.914 195.352 729.013 196.585 728.16 196.917L727.117 196.395L725.267 195.352Z" fill="#F8F8F8"/>
</svg>
