<svg width="34" height="34" viewBox="0 0 34 34" fill="none" xmlns="http://www.w3.org/2000/svg">
<circle cx="17" cy="17" r="16.5" fill="white" stroke="#192A56"/>
<path d="M25.1498 14.489C25.1612 14.6422 25.1612 14.7953 25.1612 14.9484C25.1612 19.6187 21.4493 25 14.665 25C12.5749 25 10.6333 24.4203 9 23.4141C9.29697 23.4469 9.58247 23.4578 9.89086 23.4578C11.6155 23.4578 13.2031 22.9 14.4708 21.9485C12.849 21.9156 11.4898 20.8984 11.0216 19.4984C11.25 19.5312 11.4784 19.5531 11.7183 19.5531C12.0495 19.5531 12.3807 19.5093 12.6891 19.4328C10.9987 19.1047 9.73094 17.6828 9.73094 15.9656V15.9219C10.222 16.1844 10.7932 16.3484 11.3984 16.3703C10.4048 15.7359 9.75379 14.6531 9.75379 13.4281C9.75379 12.7719 9.9365 12.1703 10.2563 11.6453C12.0723 13.789 14.802 15.189 17.8629 15.3422C17.8058 15.0797 17.7716 14.8063 17.7716 14.5328C17.7716 12.5859 19.4162 11 21.4607 11C22.5228 11 23.4822 11.4266 24.1561 12.1156C24.9898 11.9625 25.7893 11.6672 26.4975 11.2625C26.2233 12.0828 25.6409 12.7719 24.8756 13.2094C25.618 13.1328 26.3376 12.9359 27 12.6625C26.4975 13.3625 25.8693 13.9859 25.1498 14.489Z" fill="#192A56"/>
</svg>
