<svg width="1920" height="302" viewBox="0 0 1920 302" fill="none" xmlns="http://www.w3.org/2000/svg">
  <path
    d="M1156.13 166.57C1155.48 168.324 1153.63 169.794 1152.01 169.842L1150.96 170.174C1144.91 172.031 1138.63 173.617 1132.17 174.915L1129.99 175.389C1127.01 176.402 1123.94 177.32 1120.79 178.14C1117.89 178.898 1110.79 180.7 1108.12 181.317C1105.46 181.933 1099.65 184.399 1098.28 184.588C1096.91 184.778 1091.74 186.912 1087.39 187.765C1083.03 188.619 1072.62 192.507 1071.25 192.507C1069.03 192.853 1066.96 193.485 1065.2 194.356C1063.12 195.278 1060.91 196.088 1058.58 196.775C1055.69 197.474 1052.86 198.265 1050.11 199.146C1048.1 199.857 1040.51 202.702 1037.28 203.508C1032.12 204.687 1027.08 206.049 1022.2 207.586H1021.23L1017.28 208.344C1013.81 209.72 1006.63 212.185 1001.14 213.845L996.298 215.41C994.097 216.226 991.775 216.925 989.36 217.496L984.519 218.492C981.266 219.986 977.492 221.038 973.466 221.574C972.255 221.574 968.867 223.328 967.818 223.945C965.665 224.885 963.229 225.577 960.637 225.984C956.88 226.45 953.082 226.799 949.261 227.027V229.398C949.261 229.919 945.711 230.536 943.613 230.773H942.968C940.283 231.129 937.872 231.995 936.11 233.239C930.972 235.087 925.573 236.674 919.974 237.98C917.715 238.739 913.277 241.631 912.874 241.157C912.47 240.683 911.26 240.493 910.453 241.442C909.647 242.39 904.322 243.196 904.402 243.528C904.375 243.665 904.293 243.795 904.162 243.909C904.03 244.023 903.854 244.117 903.648 244.182C903.442 244.247 903.212 244.282 902.979 244.284C902.745 244.285 902.513 244.254 902.305 244.192H901.014C900.784 244.135 900.537 244.105 900.288 244.105C900.038 244.105 899.791 244.135 899.561 244.192C898.109 245.045 897.06 246.515 895.366 246.705H892.784C890.687 247.322 886.572 248.554 883.829 249.455C881.085 250.356 869.145 254.197 863.9 256.331L858.898 258.133C857.813 258.562 856.613 258.883 855.348 259.081C853.602 259.007 851.85 259.007 850.104 259.081C849.216 259.081 849.297 260.314 848.41 260.741L847.441 261.262C845.99 261.671 844.698 262.252 843.649 262.969H843.004H840.503C838.953 263.865 837.498 264.815 836.146 265.814C835.258 266.526 829.611 265.814 828.078 265.814V266.336L827.352 268.138C824.779 268.453 822.338 269.065 820.171 269.94C817.888 270.642 815.395 271.077 812.829 271.22L812.022 272.737L811.215 274.255C809.175 274.926 807.043 275.497 804.842 275.962L802.26 275.25C801.453 275.013 798.387 276.815 797.258 277.432C793.592 278.917 789.703 280.203 785.64 281.272L782.493 282.647L779.346 284.117C775.281 284.923 771.426 286.056 767.89 287.484C764.935 288.287 761.888 288.968 758.773 289.523C754.947 291.327 750.841 292.914 746.509 294.265L741.265 295.071C739.651 295.308 737.231 295.071 736.343 295.592L733.761 297.11C732.312 297.744 730.618 298.159 728.83 298.316C727.043 298.473 725.217 298.368 723.515 298.011L722.305 300.05L721.821 300.903C719.812 301.561 717.737 302.147 715.608 302.658L703.183 304.744C696.491 306.672 690.022 308.858 683.82 311.288L681.238 311.714L671.395 313.374C661.068 315.697 649.53 318.116 645.819 318.637C642.107 319.159 632.184 320.771 631.7 320.581C630.475 320.354 629.186 320.273 627.908 320.344C626.697 320.344 622.663 320.344 622.502 319.823C622.341 319.301 620.162 317.973 618.387 318.4C616.612 318.827 612.255 319.159 612.417 318.4C612.578 317.641 606.608 318.732 604.349 318.4C602.09 318.068 596.281 317.31 595.474 318.163H594.425L588.212 318.779C581.274 318.779 575.303 319.064 574.981 318.779C573.851 318.335 572.797 317.827 571.834 317.262C566.78 316.613 561.837 315.692 557.069 314.512V312.188C557.797 310.376 558.685 308.588 559.732 306.83L560.377 306.214C561.107 305.274 561.648 304.287 561.991 303.274C562.489 301.68 562.209 300.036 561.184 298.532C559.974 297.868 555.375 298.248 555.375 296.778C555.375 295.308 553.197 291.325 550.534 290.756C547.872 290.187 543.112 286.014 539.562 286.014L541.579 283.548L542.547 282.363C541.87 280.076 540.981 277.812 539.884 275.582C538.916 273.448 531.816 264.819 528.75 260.456L525.442 256.568V256.189C526.443 254.876 527.122 253.487 527.459 252.063C527.25 249.884 526.544 247.731 525.362 245.662C525.637 245.086 526.073 244.541 526.652 244.05C527.298 243.338 527.621 240.92 525.846 240.541C524.071 240.161 519.633 243.433 516.487 244.476C513.34 245.52 499.705 250.024 492.847 252.206C485.989 254.387 467.029 260.598 465.335 261.167C463.64 261.736 455.492 263.918 450.57 265.293C445.648 266.668 432.013 271.741 429.351 272.453C426.688 273.164 418.298 276.341 415.474 277.194C412.65 278.048 404.178 279.992 402.726 280.466C401.274 280.94 395.223 282.742 392.399 283.501C389.575 284.26 378.683 286.536 375.456 287.199L360.53 290.661C356.414 290.65 352.327 290.25 348.428 289.476C347.701 289.476 345.523 289.855 346.572 290.092C347.621 290.329 349.718 291.42 348.266 292.083H347.701L343.667 292.463C340.48 292.687 337.276 292.814 334.066 292.842C333.421 292.842 328.983 292.083 325.998 291.562C323.013 291.04 313.654 289.428 314.057 287.389L309.862 286.014L307.199 285.161C305.263 283.311 304.537 281.984 305.505 282.173C306.473 282.363 309.862 282.505 309.943 282.173C310.023 281.841 309.539 280.039 308.652 280.087L306.473 281.035C302.655 280.012 299.141 278.635 296.065 276.957L293.161 274.824L292.273 274.112C292.919 272.927 292.273 271.789 291.063 271.552C289.853 271.315 291.789 269.56 291.789 269.371C289.863 268.459 287.749 267.694 285.496 267.095L285.98 265.008C286.165 264.388 286.007 263.749 285.527 263.185C285.048 262.622 284.273 262.164 283.318 261.879L281.704 261.262C279.606 260.172 279.768 259.034 281.704 258.797C284.701 258.189 287.45 257.22 289.772 255.951C290.683 255.379 291.782 254.919 293.002 254.602C294.222 254.284 295.538 254.114 296.872 254.102L298.163 253.77C300.455 253.01 302.617 252.12 304.618 251.115L305.909 250.641C309.368 250.028 312.901 249.569 316.478 249.266V245.946V245.283C316.478 244.666 317.607 244.429 318.979 244.856C319.589 244.905 320.21 244.875 320.798 244.767C321.386 244.659 321.927 244.476 322.381 244.232C322.835 243.987 323.193 243.687 323.427 243.353C323.662 243.018 323.768 242.657 323.739 242.295H328.822C329.709 242.295 330.839 241.394 331.404 240.778V240.493C330.678 239.972 329.79 239.687 329.387 239.877C328.983 240.067 326.966 239.877 327.612 238.265L328.419 237.269C328.419 236.842 329.629 236.273 331.484 236.89L332.937 237.364C336.796 236.846 340.479 235.948 343.829 234.709V232.148C343.882 231.857 344.038 231.575 344.289 231.322C344.539 231.069 344.877 230.849 345.281 230.678C346.007 230.394 348.428 230.014 348.508 230.678L348.992 231.389C349.179 231.602 349.441 231.788 349.761 231.935C350.082 232.083 350.452 232.187 350.848 232.243C351.298 232.243 351.742 232.183 352.147 232.068C352.552 231.953 352.908 231.786 353.188 231.579V230.062C354.685 229.157 356.036 228.173 357.222 227.122V225.272L363.838 223.423C365.504 223.164 367.204 222.99 368.921 222.902C369.969 222.902 369.566 221.479 368.921 221.242C368.275 221.005 365.693 219.061 367.549 218.302C369.405 217.543 376.827 217.781 377.553 216.88C378.28 215.979 384.331 214.509 385.622 213.655L387.397 213.086C389.575 212.375 389.898 211.664 387.397 210.81C387.676 210.226 388.307 209.72 389.172 209.388L391.673 208.913C394.9 208.582 397.724 208.913 397.966 209.34C398.208 209.767 399.902 210.052 401.274 208.392L398.531 206.732L397.159 205.926C400.856 205.729 404.449 205.1 407.728 204.077L408.939 202.275V201.848C407.002 201.042 406.195 200.141 407.244 199.809C408.293 199.477 410.471 198.055 408.858 197.723H408.293L404.824 198.814C401.617 199.883 398.638 201.172 395.949 202.654C394.739 203.508 389.736 204.551 389.414 204.219C389.091 203.887 387.558 203.129 386.67 203.745C385.783 204.361 383.363 205.831 382.959 205.642C382.556 205.452 382.959 206.163 384.169 207.491C385.38 208.819 376.827 209.862 377.15 209.388C377.473 208.913 378.28 207.254 377.715 207.301C377.15 207.349 371.341 209.103 365.209 211.047C359.077 212.991 338.181 220.057 332.13 222.285L326.24 224.04L321.077 225.604C315.671 227.596 307.603 230.346 303.165 231.626L299.857 233.476L296.469 235.372C291.709 237.032 285.658 238.881 283.156 239.592C280.655 240.304 272.587 243.291 269.441 244.097C266.294 244.903 253.304 249.598 246.527 251.874L240.476 253.96L237.571 254.956C233.611 255.646 230.06 256.977 227.325 258.797H225.066H218.127C213.5 260.793 208.49 262.464 203.201 263.775C199.732 264.534 190.05 268.517 187.065 268.802C184.08 269.086 177.303 273.543 174.882 274.397C170.468 275.393 165.939 276.201 161.328 276.815L160.682 277.384L159.391 279.565L145.756 282.458C141.082 283.751 136.531 285.191 132.121 286.773L130.104 287.342C128.894 287.674 127.441 287.768 126.393 288.1C123.387 289.567 120.012 290.751 116.388 291.609L112.677 292.083C109.046 292.984 102.914 294.36 98.961 295.166C93.4412 295.51 87.8904 295.652 82.3406 295.592C80.4086 296.284 78.1132 296.537 75.8861 296.304C74.1111 295.877 67.818 294.549 65.3169 293.885C62.8158 293.221 53.4567 296.304 47.809 297.015H42.4034H37.8046C33.4294 296.229 29.5528 294.693 26.6705 292.605L27.2353 291.42L28.2035 289.381C29.141 287.501 29.8421 285.583 30.3012 283.643C30.3012 282.6 24.4115 281.272 23.766 281.035L19.4092 279.565C18.199 279.139 17.3922 276.436 17.3922 275.487C17.436 274.249 17.0232 273.02 16.182 271.884L13.9229 272.168C11.5831 272.453 10.1309 272.168 10.857 271.078L8.51725 270.082L6.09681 269.133C5.04795 267.379 1.98206 262.732 -0.761105 258.844L-3.58495 255.43L-4.55313 254.197C-6.72099 253.019 -8.74315 251.751 -10.6042 250.404C-12.8239 248.459 -14.6133 246.355 -15.9292 244.145L-16.6553 242.864C-17.3008 241.774 -19.2371 241.015 -18.8337 239.592V238.597C-20.4473 237.364 -22.061 236.036 -22.4644 235.657V235.42L-21.4155 234.092C-21.2528 232.64 -21.2528 231.182 -21.4155 229.73C-20.354 227.09 -19.0066 224.492 -17.3815 221.953L-12.944 219.867C-12.1372 219.488 -12.944 218.207 -12.4599 217.781L-11.169 217.069C-9.07128 216.643 -7.61901 216.074 -7.94174 215.884C-8.26447 215.694 -7.94174 215.078 -6.73152 215.03C-5.5213 214.983 -4.14972 212.043 -3.18155 210.952C-2.21337 209.862 -0.841785 207.918 -1.80996 207.064L0.207069 206.448L1.41729 206.068C1.69456 205.443 2.28483 204.882 3.1116 204.456H3.75705L6.01612 203.65C4.64454 202.56 5.61272 201.327 8.03315 200.9C10.4536 200.473 12.7934 196.727 13.5195 195.684C15.6964 194.233 18.4762 193.138 21.5876 192.507L19.4092 191.416C19.4092 191.416 19.4092 190.136 19.8933 190.136H24.5728C25.3583 188.118 26.7814 186.204 28.7682 184.494C30.4626 183.213 33.6898 179.372 34.5773 179.752C35.6459 179.813 36.7244 179.747 37.7496 179.56C38.7748 179.373 39.7261 179.067 40.5477 178.661C42.3227 177.713 46.5988 174.631 45.6306 174.299C44.6625 173.967 40.8704 173.019 40.467 173.398C40.162 173.53 39.8099 173.62 39.4373 173.66C39.0647 173.701 38.6813 173.691 38.316 173.632C37.9508 173.572 37.6133 173.465 37.329 173.318C37.0447 173.17 36.8211 172.987 36.675 172.781H35.5455L34.0125 172.402L26.5092 173.019C24.4921 173.019 17.3115 171.549 13.8422 171.406C8.54529 171.659 3.30298 172.214 -1.80996 173.066C-3.50427 173.35 -8.1031 170.126 -4.39177 167.423L-9.07128 164.389L-10.0395 163.725C-9.55537 162.445 -10.0395 161.354 -11.169 161.259C-12.5679 161.198 -13.9494 161.039 -15.2837 160.785C-15.5906 160.201 -15.7537 159.594 -15.7678 158.983C-15.7678 158.272 -15.7678 155.901 -15.7678 155.19C-15.7678 154.478 -19.6405 152.724 -19.6405 151.728L-20.6087 151.301C-22.4793 150.89 -24.4312 150.619 -26.4178 150.495L-27.9507 150.211C-29.0673 149.714 -29.9446 149.055 -30.4964 148.298C-31.0481 147.542 -31.2552 146.714 -31.0973 145.896C-31.0973 144.094 -37.1484 139.921 -37.3904 139.589L-32.9529 136.792C-37.4938 135.086 -41.6894 133.081 -45.4585 130.817V129.158V127.119C-45.4585 124.795 -45.4585 122.993 -46.5074 123.136C-46.7988 123.17 -47.0989 123.17 -47.3906 123.137C-47.6823 123.103 -47.9597 123.036 -48.2071 122.939C-48.4544 122.842 -48.6668 122.717 -48.832 122.572C-48.9972 122.427 -49.112 122.264 -49.1699 122.092H-48.6051C-46.8301 121.618 -41.6665 121.666 -48.6051 120.86C-48.6051 120.86 -49.3312 120.86 -49.3312 120.528C-50.0306 119.052 -50.1836 117.506 -49.78 115.992C-49.3764 114.479 -48.4255 113.034 -46.9915 111.755C-46.2654 111.186 -44.4097 110.997 -43.2801 110.475C-42.1506 109.954 -39.5688 108.768 -39.8109 108.531C-42.9574 106.35 -37.4711 107.82 -37.0677 107.014C-36.6779 105.862 -35.7568 104.796 -34.4052 103.932C-31.524 102.477 -28.4482 101.161 -25.2075 99.9959L-23.7553 99.3795C-21.1274 97.2213 -18.271 95.1625 -15.2031 93.2152L-8.66787 93.7842H-8.1031C-7.29629 93.2626 -5.68266 92.2669 -4.63381 91.5082C-3.58495 90.7495 0.610477 89.6115 1.25593 88.8054C1.90138 87.9993 8.11384 87.9993 10.1309 87.288C12.1479 86.5768 15.2945 84.3482 17.3115 85.3913L19.4092 83.7792C17.8763 83.0679 17.957 82.4515 19.4092 82.4515C20.8615 82.4515 24.7342 81.6928 24.3308 80.7444L24.8149 80.2703L26.1058 78.8478C28.9296 78.8478 31.35 78.5158 31.5114 77.8994C31.6728 77.283 34.658 75.9079 36.675 75.2915C40.4611 74.5786 44.3132 73.9928 48.2124 73.537C51.0036 72.6922 53.6987 71.7418 56.2806 70.692C57.4101 70.692 60.9601 70.3601 60.9601 69.4117V68.4634C63.5278 67.8698 66.2695 67.5797 69.0282 67.6098V65.1916C73.0336 64.761 76.8823 63.9268 80.4043 62.7259L82.9861 61.9198L84.5997 61.4456C87.1171 61.3977 89.5899 61.0424 91.861 60.4024L93.7167 59.9282C95.7337 59.4067 97.9121 58.9325 99.9291 58.3635C101.946 57.7945 103.237 57.1306 105.012 56.6564C106.324 56.4301 107.68 56.3026 109.046 56.2771C113.08 55.9926 116.711 55.5658 118.486 53.3846C119.625 52.4098 121.223 51.6517 123.085 51.2034C123.811 51.2034 124.86 52.5786 126.957 51.4405L128.571 50.4922C129.798 50.076 131.189 49.8569 132.605 49.8569C134.021 49.8569 135.413 50.076 136.639 50.4922L138.253 49.1171L139.786 47.9791V47.6946C140.909 47.2195 142.276 46.9852 143.658 47.0307C145.433 47.0307 149.952 45.3711 151.727 45.5608C153.502 45.7505 156.245 44.1383 157.697 44.3754L159.069 43.9012C159.553 43.9012 160.682 43.9012 160.924 43.6641L165.362 40.1078C173.43 38.2585 180.933 36.4567 181.901 36.1247C182.87 35.7928 187.63 35.1764 189.969 34.6074C192.309 34.0384 198.602 31.6675 199.813 32.0468C201.023 32.4262 205.057 33.1849 206.993 32.0468L209.414 31.5727L211.834 31.0985C215.303 31.0985 217.724 31.0985 217.159 30.6243C216.594 30.1502 217.159 28.6802 220.144 28.6328L221.516 28.1112L223.936 26.9258C226.615 27.1997 229.369 26.8419 231.601 25.93L234.425 25.0765L235.232 24.792C236.845 24.792 237.491 25.4084 236.845 25.7878L236.361 26.2145C236.361 26.2145 237.249 26.7835 237.652 26.7361H238.62C240.085 25.862 241.021 24.729 241.283 23.5117L244.591 22.9427C250.543 22.5749 256.25 21.3537 261.211 19.3864C261.211 19.3864 262.583 19.3864 263.309 19.3864H265.81C267.972 19.6505 270.208 19.618 272.345 19.2916C275.281 18.554 278.301 17.9361 281.381 17.4423C284.125 17.0156 290.821 15.3559 291.789 15.7827C292.757 16.2095 295.904 17.0156 295.985 16.5888C296.065 16.162 299.051 15.6879 301.713 15.593C306.188 15.0861 310.606 14.4211 314.945 13.6015C317.123 13.2222 323.013 15.024 323.013 14.9766C326.348 15.6508 329.521 16.5752 332.453 17.7268C336.245 19.0545 352.139 16.8259 356.657 16.2095L361.74 16.8733L365.693 17.3949C370.615 16.7785 375.698 16.2569 376.989 16.162C378.28 16.0672 382.878 16.9681 384.169 16.6362C385.46 16.3043 388.93 16.1146 388.93 17.063C388.93 18.0113 394.739 16.8259 395.626 16.7311H396.191L399.822 17.7268C403.21 19.1019 407.325 20.9512 408.939 21.7573C410.552 22.5634 415.958 23.9385 415.474 24.223C415.268 24.8122 415.291 25.4212 415.543 26.0042C415.794 26.5873 416.267 27.1293 416.926 27.5896L418.378 28.8225L421.363 31.5253C426.769 33.7065 430.238 35.9351 429.432 36.267C428.625 36.5989 426.527 38.7801 428.221 39.3491L429.916 39.6336H430.4C430.734 39.3933 431.148 39.1948 431.615 39.05C432.083 38.9051 432.595 38.8169 433.121 38.7903C433.648 38.7638 434.178 38.7996 434.681 38.8956C435.183 38.9915 435.648 39.1458 436.047 39.3491L437.5 40.25C438.064 40.5345 437.5 41.151 437.5 41.6251C437.5 42.0993 431.852 41.151 434.676 43.0477C437.5 44.9444 434.676 44.8021 433.546 45.6556L433.708 46.8411C433.288 47.4141 433.195 48.0515 433.442 48.6583C433.689 49.265 434.263 49.8085 435.079 50.2077C436.693 50.8715 437.419 53.9537 437.822 54.333C438.226 54.7123 442.663 58.2686 446.536 61.3508L445.648 64.9071C445.154 65.8729 445.265 66.9109 445.961 67.8329C446.656 68.7549 447.891 69.5001 449.441 69.9333L450.731 70.3126C451.458 71.2136 452.506 72.5887 452.991 73.3473C453.475 74.106 459.768 75.1492 461.865 75.4811V76.0501C462.834 77.7572 464.367 77.8046 467.029 76.9036C467.029 76.9036 468.32 76.9036 468.885 77.1881L469.692 77.5201C470.821 78.0891 470.982 78.7055 469.692 78.9426C468.999 79.2126 468.484 79.6142 468.235 80.0802C467.985 80.5463 468.015 81.0485 468.32 81.5031L468.885 82.167L469.449 82.9257C470.014 83.7792 470.66 84.7275 470.821 85.0594C469.711 87.3361 468.224 89.5436 466.384 91.6504L460.978 93.9265L458.315 95.0171C457.293 96.8674 456.053 98.6736 454.604 100.423C453.797 101.181 447.666 103.884 445.568 105.544L442.825 105.97C438.226 106.682 443.228 107.346 442.26 107.867C441.292 108.389 439.759 109.147 438.387 109.716L434.999 111.139C431.757 112.438 428.731 113.915 425.962 115.549C424.752 116.402 419.83 118.489 420.315 119.342C420.799 120.196 413.618 121.618 411.036 122.709L408.858 123.847L406.357 125.08C402.645 126.834 401.274 128.114 403.291 127.972C409.124 126.776 414.835 125.383 420.395 123.799L426.85 122.804L430.4 122.235C430.225 121.067 430.225 119.893 430.4 118.726C431.045 118.726 432.255 118.726 432.497 118.726L433.224 119.247C433.95 120.196 435.644 120.243 436.935 119.247L437.984 118.536C438.549 118.204 439.194 117.493 439.678 117.54L445.084 117.872C447.746 115.976 450.812 113.699 451.942 112.799C453.071 111.898 461.22 111.423 464.205 110.428L467.755 110.143C469.333 109.948 470.803 109.524 472.031 108.91C471.224 108.199 471.386 107.63 472.031 107.63C473.85 107.638 475.646 107.394 477.276 106.919C478.914 105.822 480.398 104.648 481.713 103.41L485.021 103.837C486.715 103.837 489.781 102.556 491.476 101.513L492.847 100.66C494.583 100.143 496.392 99.7142 498.253 99.3795C498.737 99.3795 500.834 99.3795 502.529 99.0001C505.874 98.4038 508.996 97.4383 511.726 96.1551L512.937 95.0171C514.308 93.8316 516.487 97.056 517.051 95.0171C517.616 92.9781 519.875 95.0171 520.682 94.6377L522.296 93.642C523.587 94.2584 524.797 94.0687 525.12 93.2152L525.926 92.5988L526.491 92.172C528.878 91.8489 531.307 91.6427 533.753 91.5556C537.627 90.7296 541.151 89.4192 544.08 87.7148L545.935 86.9087C547.63 87.288 549.163 87.1932 549.324 86.6716C549.485 86.15 550.857 84.3482 551.502 85.012C552.055 85.4201 552.811 85.717 553.664 85.8614C554.517 86.0059 555.425 85.9907 556.263 85.8181C557.715 85.2491 560.377 84.2059 560.861 83.1627H564.008H566.186C568.659 82.4543 570.835 81.4343 572.56 80.1754L575.142 79.7961C576.433 79.7961 576.998 79.0374 578.369 79.7961L578.853 80.0806C581.081 79.8136 583.127 79.171 584.743 78.2313L587.89 77.852L590.633 77.5201C594.133 76.0648 597.927 74.8703 601.928 73.9638C608.74 72.7304 615.662 71.7173 622.663 70.9291L625.245 69.554L628.15 68.084C632.587 67.6098 636.944 68.084 637.67 68.9849C638.567 70.2027 639.675 71.3627 640.978 72.4464C641.241 72.2952 641.431 72.1061 641.53 71.8981C641.629 71.69 641.634 71.4703 641.543 71.261C641.543 70.692 640.252 68.5108 640.01 67.6573L644.851 66.0451C648.804 64.7174 655.258 65.4761 657.195 62.6784C657.195 62.6784 658.889 62.6784 659.373 62.6784C662.923 64.1958 662.439 65.239 657.598 66.6141C660.464 66.6765 663.333 66.5493 666.15 66.2347L668.248 65.808C670.493 65.3311 672.891 65.1529 675.268 65.2864L679.06 65.5235C679.786 64.101 680.915 63.3423 681.48 63.8639C682.045 64.3855 684.627 65.7606 685.03 65.239C685.508 63.5783 685.751 61.8971 685.756 60.2127L692.211 57.4151L693.259 56.9409C694.389 56.3719 695.761 56.9409 696.325 57.747C697.325 58.5271 698.687 59.121 700.247 59.4574C701.807 59.7938 703.499 59.8585 705.12 59.6437C708.105 58.7428 717.786 58.0315 717.786 57.3677C717.786 56.7039 717.06 54.7598 716.092 55.6607C715.124 56.5616 710.041 56.3719 709.638 55.6607V55.2339C709.638 54.5701 708.266 52.6734 712.542 54.1907H713.268C716.738 52.8156 719.965 52.4363 720.368 53.3372V54.6175C720.368 55.471 721.094 56.1823 722.143 56.1823C723.168 56.0751 724.14 55.837 724.99 55.4846C725.841 55.1323 726.549 54.6744 727.065 54.1433C727.791 53.0527 731.18 49.9232 732.471 50.7293C733.761 51.5354 738.844 52.9579 740.539 52.057L742.314 51.5828L744.573 50.9664C747.397 50.5396 751.431 50.018 753.528 49.8284L755.545 50.0654C756.933 50.2521 758.372 50.2598 759.765 50.0879C761.158 49.916 762.471 49.5686 763.613 49.0697L766.195 47.9317L772.569 45.5134H773.779C775.151 45.2289 779.508 44.5176 783.38 43.9012C787.253 43.2848 798.306 41.72 801.292 41.4829C805.877 41.2269 810.485 41.1477 815.088 41.2458C816.54 41.2458 816.863 43.7115 814.523 44.2331C812.184 44.7547 810.731 48.2162 811.942 47.6946C813.266 47.3746 814.711 47.2674 816.129 47.384C817.547 47.5007 818.886 47.837 820.01 48.3584L822.188 49.2119L824.286 49.9706C827.78 50.5577 831.081 51.4875 834.048 52.7208L830.014 54.0959L829.207 54.333C829.611 56.1823 830.66 57.1306 831.628 56.4194C832.596 55.7081 835.097 54.6175 834.774 55.8978C834.452 57.178 831.628 59.3118 833.645 59.4541C837.245 59.4278 840.835 59.2215 844.375 58.8376C846.715 58.5531 848.329 55.5184 849.378 56.04C850.252 56.3543 851.257 56.5206 852.282 56.5206C853.307 56.5206 854.312 56.3543 855.187 56.04C858.001 54.9272 861.15 54.1388 864.465 53.7166C865.998 53.7166 868.903 52.0095 870.516 52.2466H872.049H873.017C874.066 52.2466 874.712 51.9147 874.308 51.5354C873.905 51.156 875.922 50.2551 878.504 49.5438C881.085 48.8326 889.315 46.9359 890.848 46.5565C892.381 46.1772 893.51 43.8538 893.833 43.6641C894.275 43.5143 894.776 43.4354 895.285 43.4354C895.795 43.4354 896.296 43.5143 896.738 43.6641L897.544 44.0909H897.948C897.948 44.4702 900.207 43.3796 902.224 41.6726L904.16 40.2026C904.822 39.8107 905.722 39.589 906.661 39.5862L910.695 39.8707C913.519 38.5904 917.069 37.0257 918.764 36.4092H923.201C925.541 35.8877 928.042 35.2712 928.849 35.0341C929.656 34.7971 929.817 33.1849 931.592 32.4736L933.448 32.2365C935.895 31.9739 938.386 31.8784 940.87 31.952C942.565 31.952 939.499 29.1544 944.017 30.7192C944.017 30.7192 946.599 29.7234 947.89 29.1544C948.723 28.7334 949.614 28.3528 950.552 28.0164C952.569 27.4474 954.747 26.9732 956.765 26.3568L958.459 25.8352C961.135 25.7293 963.694 25.1508 965.801 24.1756L967.576 23.3221L969.351 22.4685C970.729 21.7553 972.447 21.3084 974.272 21.1883C975.483 21.1883 977.419 20.7141 976.37 19.908L978.468 19.1019C980.888 18.1062 982.018 19.1019 983.873 19.4813H984.761C987.165 18.6635 989.482 17.7609 991.699 16.7785L994.443 18.0587C995.491 18.5329 996.54 18.0587 995.169 16.494L994.685 15.925C996.684 15.1312 998.821 14.4636 1001.06 13.9334H1004.29C1004.93 13.9334 1005.09 12.2738 1008.08 12.179H1009.37C1012.37 12.11 1015.35 11.9517 1018.32 11.7048C1021.87 11.4677 1027.04 6.96308 1029.62 6.48891C1034.47 5.99686 1039.22 5.23475 1043.82 4.21288C1046.48 3.31195 1050.19 2.31618 1050.92 2.6481C1051.65 2.98002 1054.39 3.69128 1055.03 3.21711V2.93261V2.3636C1054.9 2.21102 1054.82 2.04291 1054.81 1.87094C1054.79 1.69898 1054.84 1.5273 1054.95 1.36784C1058.03 0.839778 1061.2 0.521566 1064.39 0.419489L1067.54 0.134985H1069.48C1071.25 -0.434023 1077.54 0.846245 1083.68 3.02744L1089.16 5.06639L1090.05 5.39831C1091.76 6.13163 1093.67 6.69248 1095.7 7.05791C1099.89 7.12613 1104.06 6.69048 1107.96 5.77765L1111.27 6.63116C1114.85 7.82541 1118.95 8.36992 1123.05 8.19593C1127.3 9.15516 1131.43 10.2962 1135.39 11.61C1136.52 11.9419 1138.38 11.61 1139.67 11.8945C1140.96 12.179 1142.33 13.2222 1143.86 13.317C1147.5 13.6015 1146.12 14.8344 1146.12 15.6879V16.2569C1144.83 17.058 1143.79 17.9896 1143.06 19.0071C1142.49 19.908 1148.3 22.7531 1147.25 23.1324C1146.45 23.5816 1145.86 24.1448 1145.53 24.7677C1145.21 25.3906 1145.16 26.0522 1145.4 26.6887C1146.28 28.0164 1152.66 30.1976 1151.85 31.0037C1151.04 31.8098 1149.35 34.1806 1150.08 34.5126C1150.8 34.8445 1151.93 35.9351 1151.53 36.4567C1151.12 37.2679 1150.55 38.0478 1149.83 38.7801C1149.43 39.0172 1147.01 39.1595 1146.2 39.7759L1147.82 41.0087C1150 42.2416 1152.01 43.1425 1152.34 43.0003C1152.66 42.858 1154.68 42.5261 1154.6 43.0003C1154.41 43.7971 1154.06 44.5774 1153.55 45.3237C1153.11 46.0123 1153.11 46.7689 1153.55 47.4575C1154.11 48.3584 1155.32 52.4837 1156.21 54.5701L1158.71 56.2771L1160 57.2729C1159.82 58.1862 1160.16 59.1095 1160.98 59.8928C1161.8 60.6761 1163.05 61.2735 1164.52 61.5878L1167.18 62.2517H1167.75C1170.01 63.3897 1170.97 64.6226 1169.84 65.0019C1169.24 65.337 1168.78 65.7543 1168.51 66.2173C1168.25 66.6803 1168.18 67.1747 1168.31 67.6573C1166.91 70.0051 1165.26 72.3011 1163.39 74.5328H1156.69C1156.3 74.7813 1156.01 75.0829 1155.86 75.4113C1155.71 75.7397 1155.69 76.0849 1155.82 76.4169C1155.95 76.7489 1156.21 77.0576 1156.59 77.316C1156.97 77.5744 1157.44 77.7747 1157.98 77.8994L1159.92 78.421C1160.81 78.7055 1160.73 78.421 1161.78 77.2356C1161.78 76.714 1163.07 75.8605 1163.87 75.813C1168.55 75.813 1171.54 71.9722 1177.35 74.2957L1187.43 70.9765L1187.84 70.7394C1189.2 70.3216 1190.67 70.0336 1192.19 69.8859C1194.84 69.3682 1197.35 68.6167 1199.62 67.6573C1200.34 67.1831 1207.68 67.0883 1209.78 65.9502L1211.88 65.0019L1221.16 63.9587L1222.85 65.1441L1230.03 62.1569C1234.14 60.418 1237.69 58.2671 1240.52 55.8029L1244.8 57.4151C1247.3 58.4109 1251.25 56.8935 1253.75 58.5057C1256.39 57.9185 1258.83 57.0505 1260.93 55.9452L1264.24 55.3288C1274.16 53.3846 1276.02 52.626 1280.38 53.8114L1284.41 54.8546C1289.09 54.8546 1292.48 54.0959 1291.75 53.5269C1291.03 52.9579 1292.48 50.8715 1295.46 49.8284C1300.44 48.4717 1305.56 47.2998 1310.79 46.3195L1312 46.7936C1313.62 47.3626 1315.55 47.4101 1315.72 46.0824C1315.88 44.7547 1318.22 44.7547 1319.51 45.0392L1324.91 46.272C1330.56 45.6556 1335.24 44.3754 1335.24 43.4744C1335.24 42.5735 1343.31 41.4355 1347.99 40.9139L1351.7 39.8707C1354.3 39.3052 1357.01 38.9232 1359.77 38.7327L1361.95 38.4956C1363.8 37.5473 1365.9 37.1679 1366.54 37.6895C1367.19 38.2111 1369.61 39.5862 1370.34 39.3965H1370.74L1372.84 38.4482C1373.97 37.9346 1375.31 37.6068 1376.73 37.4985C1378.15 37.3902 1379.59 37.5052 1380.91 37.8318L1382.36 35.9825C1383.98 35.7909 1385.66 35.7909 1387.28 35.9825H1388.25C1390.18 35.8698 1392.06 35.5651 1393.82 35.0816C1398.68 34.6023 1403.64 34.6023 1408.5 35.0816L1411.48 33.3271C1412.53 32.7107 1413.26 32.521 1414.71 33.3271L1415.28 33.6116C1417.29 33.3568 1419.26 32.9917 1421.17 32.521C1422.78 32.1417 1430.61 31.9994 1433.67 31.3356L1434.48 31.7149L1437.95 33.3271C1440.83 32.0529 1443.97 31.0011 1447.31 30.1976L1450.29 30.1502C1450.7 30.1502 1451.34 30.1502 1451.82 30.4347C1456.83 31.8572 1457.15 32.0468 1459.17 31.0037L1461.75 29.676C1463.91 30.2635 1466.12 30.7858 1468.36 31.2408C1469.57 31.2408 1472.24 29.5337 1473.12 28.9173H1473.93C1476.84 28.9173 1475.46 30.1502 1475.87 30.8614V31.1933C1478.88 30.9963 1481.8 30.431 1484.42 29.5337L1488.53 28.4905C1493.13 27.4 1491.36 27.8267 1493.78 30.3398L1496.04 32.6633C1493.3 32.6633 1492.49 33.2323 1494.26 34.0858H1495.55C1497.57 34.0858 1500.56 32.2365 1501.04 32.4262C1501.96 32.8952 1503.1 33.1875 1504.32 33.2638C1505.53 33.3401 1506.75 33.1967 1507.82 32.8529C1510 31.9046 1510.48 32.8529 1511.85 33.1374H1512.42C1513.55 32.7107 1513.3 31.952 1511.69 31.4304L1514.35 31.0511C1514.91 31.078 1515.45 31.1823 1515.93 31.3554C1516.4 31.5285 1516.8 31.7654 1517.1 32.0468C1517.66 32.7581 1517.74 33.422 1519.36 32.4736C1519.36 31.7149 1522.42 31.6201 1526.46 32.4736C1530.49 33.3271 1537.75 37.2153 1536.46 37.4998C1535.17 37.7843 1533.96 39.9655 1535.33 40.8191C1536.7 41.6726 1541.87 43.7115 1543.4 43.427C1544.93 43.1425 1549.53 42.0045 1549.53 41.5303C1549.53 41.0561 1552.27 40.013 1555.5 40.3449L1552.03 42.4312L1550.26 43.4744C1552.25 44.5878 1554.35 45.6327 1556.55 46.604C1557.6 46.9833 1553.89 49.1171 1553.08 48.7377C1552.27 48.3584 1550.09 47.5523 1549.93 47.6946C1549.75 48.3698 1549.75 49.0583 1549.93 49.7335C1549.93 50.6819 1557.52 52.0095 1560.5 52.9105L1557.03 54.8546L1556.15 55.3762C1557.65 56.7493 1559.53 57.9669 1561.71 58.9799C1563 59.4541 1563.81 61.493 1564.94 61.9672C1566.07 62.4414 1563.17 64.4329 1562.52 64.8122C1561.87 65.1916 1562.12 66.6615 1562.52 66.4244L1563.17 66.1399L1563.97 65.808C1564.21 65.6617 1564.5 65.5454 1564.82 65.466C1565.14 65.3865 1565.48 65.3456 1565.83 65.3456C1566.17 65.3456 1566.52 65.3865 1566.84 65.466C1567.15 65.5454 1567.44 65.6617 1567.68 65.808C1568.57 66.4244 1569.54 68.5108 1568.25 69.3643C1565.25 70.3357 1561.91 70.8722 1558.49 70.9291C1556.31 70.9291 1549.77 71.5455 1549.77 72.2567C1549.77 72.968 1548.72 74.9121 1547.43 74.675L1547.92 73.2051C1547.92 71.5455 1547.35 70.1704 1546.06 70.1704C1544.54 70.1376 1543.03 70.2172 1541.54 70.4075C1541.54 70.4075 1542.27 71.6403 1542.83 72.399C1543.4 73.1577 1536.78 74.8173 1537.83 74.2483V73.9164C1537.83 72.968 1538.48 71.4981 1537.83 71.2136C1535.01 70.4075 1535.17 71.83 1534.04 72.5887C1532.1 73.5972 1529.81 74.3563 1527.34 74.8173C1526.15 74.9794 1524.91 74.9794 1523.71 74.8173H1522.42C1519.12 74.9439 1515.91 75.477 1512.98 76.382L1509.75 77.4726C1508.38 77.9468 1504.11 78.421 1507.9 79.9384C1505.73 80.6123 1503.43 81.1221 1501.04 81.4557C1497.89 81.9299 1492 85.4862 1491.36 85.6284C1488.63 85.586 1485.92 85.3471 1483.29 84.9172L1482 86.7664L1480.63 88.6157C1477.88 88.2838 1475.22 88.6157 1474.82 88.9002C1473.94 89.7063 1472.85 90.4263 1471.59 91.034H1471.11C1468.42 90.6747 1465.6 90.8042 1463.04 91.4053C1460.47 92.0065 1458.28 93.051 1456.75 94.4006L1455.13 95.9654C1452.47 96.7241 1449.97 97.0086 1449.57 96.6293C1446.43 95.997 1443.02 95.997 1439.88 96.6293L1435.77 97.3405H1435.04L1430.77 100.423C1428.99 101.703 1427.06 104.927 1427.46 103.979C1427.86 103.031 1425.68 100.849 1423.99 101.276C1422.3 101.703 1419.31 104.88 1418.66 103.884L1417.62 103.6C1415.84 103.125 1414.31 103.6 1414.07 104.643C1414.07 104.975 1412.05 105.496 1411 105.496H1404.38C1399.53 108.041 1394.1 110.179 1388.25 111.85L1383.57 112.277C1383.57 112.277 1383.57 113.13 1383.57 113.225C1386.23 114.126 1385.34 114.79 1383.57 115.501C1382.76 115.833 1382.2 116.402 1381.23 116.545H1380.1C1379.77 116.511 1379.46 116.438 1379.18 116.33C1378.9 116.222 1378.66 116.081 1378.48 115.917C1378.3 115.752 1378.17 115.567 1378.12 115.373C1378.07 115.179 1378.08 114.98 1378.16 114.79H1381.79C1381.31 113.652 1379.86 112.988 1378.57 113.32C1376.52 113.89 1374.58 114.573 1372.76 115.359C1371.95 115.738 1368.72 114.932 1367.92 115.359C1367.11 115.786 1360.74 117.54 1355.41 119.295L1350.65 120.907L1349.12 121.429C1347.65 121.149 1346.07 121.149 1344.6 121.429C1343.87 121.76 1343.63 122.519 1345.57 122.567C1347.5 122.614 1352.83 122.567 1353.64 123.325C1354.44 124.084 1355.09 125.886 1353.64 126.123L1352.67 126.36H1351.7C1350.73 126.787 1349.68 126.834 1349.28 126.36C1348.88 125.886 1346.13 125.933 1344.03 127.356L1342.58 128.636C1342.18 128.92 1342.58 129.537 1343.07 130.011V130.39C1343.07 130.77 1342.5 131.149 1341.29 131.196L1340.57 130.959C1339.06 130.418 1337.32 130.154 1335.56 130.201H1334.92C1333.4 130.132 1331.89 130.005 1330.4 129.821C1328.79 129.821 1326.37 127.261 1323.22 126.976L1320.88 127.403L1316.2 128.257C1313.13 130.485 1309.74 131.386 1308.53 130.248H1307.73C1306.93 130.271 1306.15 130.387 1305.43 130.591C1304.7 130.794 1304.06 131.081 1303.53 131.434L1302.16 132.524C1301.38 133.733 1301.13 135.037 1301.43 136.318H1304.02C1304.45 137.088 1304.45 137.918 1304.02 138.688C1303.61 139.163 1301.35 140.443 1300.31 139.874C1299.26 139.305 1297.56 137.266 1296.43 136.46H1293.12C1292.9 136.027 1292.73 135.582 1292.64 135.132C1292.64 135.132 1291.51 134.516 1289.98 134.658V137.503C1285.06 137.503 1281.91 138.499 1282.8 139.352C1283.69 140.206 1289.49 140.585 1289.9 141.391C1290.3 142.197 1289.9 144.663 1288.69 144.853C1287.48 145.042 1283.36 141.486 1280.62 140.111L1276.26 142.292L1275.29 142.814C1273.44 143.146 1272.63 143.525 1273.44 143.667C1274.25 143.809 1274.57 144.71 1272.47 145.327C1270.37 145.943 1273.04 149.12 1271.5 149.831H1270.45H1268.27C1265.53 148.883 1263.51 148.599 1263.84 149.168C1264.16 149.737 1263.84 151.301 1263.11 151.444C1262.39 151.586 1258.75 152.439 1259.72 153.103C1260.69 153.767 1261.66 155.806 1259.24 155.996L1258.11 155.616L1256.74 155.142C1257.03 153.946 1257 152.73 1256.66 151.539C1256.63 150.836 1256.84 150.138 1257.28 149.486C1257.73 148.833 1258.39 148.241 1259.24 147.745C1261.34 146.607 1260.05 143.003 1258.59 143.478C1257.14 143.952 1253.67 145.848 1254.07 146.702C1254.48 147.555 1254.07 149.5 1252.7 149.12C1251.33 148.741 1243.02 151.681 1241.25 151.444L1239.63 151.159L1238.18 150.827C1236.45 150.597 1234.66 150.597 1232.94 150.827C1231.81 151.112 1231.08 153.577 1230.84 154.621C1226.32 154.621 1227.85 156.375 1227.05 157.513V158.082C1225.43 158.699 1223.82 158.793 1223.5 158.082C1223.17 157.371 1221.48 156.944 1220.43 157.561C1218.65 158.595 1216.42 159.317 1213.98 159.647C1212.44 159.647 1213.25 161.781 1213.98 162.018C1214.6 162.61 1215.01 163.272 1215.19 163.962C1215.19 164.578 1220.43 165.432 1221.64 165.764C1222.03 166.003 1222.31 166.292 1222.47 166.608C1222.63 166.923 1222.66 167.257 1222.56 167.58C1222.45 167.904 1222.22 168.209 1221.88 168.47C1221.54 168.731 1221.1 168.941 1220.59 169.083L1217.77 167.044L1216.8 166.333C1215.19 166.014 1213.55 165.761 1211.88 165.574L1205.5 166.475L1205.99 168.372V169.557C1203.95 168.877 1201.75 168.382 1199.45 168.087V169.557C1199.29 170.192 1198.81 170.785 1198.08 171.264C1197.44 171.162 1196.85 170.977 1196.35 170.723C1195.84 170.469 1195.44 170.151 1195.18 169.794C1195.37 168.656 1196.09 167.572 1197.28 166.665L1198.49 166.048C1198.89 166.048 1200.1 166.048 1200.5 166.048C1200.91 166.048 1201.87 165.195 1201.71 164.815C1201.55 164.436 1200.42 164.057 1199.7 164.009H1197.6C1194.94 164.009 1193.16 164.626 1193.73 165.29C1194.29 165.953 1190.66 166.854 1188.56 166.807H1186.54C1186.59 166.65 1186.59 166.49 1186.54 166.333L1185.01 164.294C1182.09 163.763 1179.04 163.507 1175.98 163.535V163.867C1175.56 164.123 1175.33 164.462 1175.33 164.815C1175.33 165.168 1175.56 165.508 1175.98 165.764L1180.82 167.897C1181.93 169.423 1183.45 170.832 1185.33 172.07H1186.14C1186.87 172.07 1187.67 171.549 1187.92 171.169L1188.4 170.505C1188.4 169.178 1191.63 170.837 1194.77 174.204L1199.45 176.006C1200.99 176.622 1202.68 176.622 1203.33 175.389V175.01C1204.22 174.55 1205.27 174.196 1206.39 173.967C1207.44 173.73 1210.75 173.967 1211.15 173.208C1211.46 173.005 1211.84 172.843 1212.27 172.732C1212.69 172.621 1213.15 172.563 1213.61 172.563C1214.08 172.563 1214.54 172.621 1214.96 172.732C1215.38 172.843 1215.76 173.005 1216.07 173.208C1217.93 174.251 1221.4 176.907 1219.7 176.765C1218.01 176.622 1213.9 178.993 1211.15 179.515L1208.97 180.368C1208.76 180.344 1208.56 180.291 1208.38 180.214C1208.21 180.137 1208.06 180.038 1207.96 179.924C1207.86 179.81 1207.81 179.684 1207.8 179.556C1207.79 179.428 1207.84 179.3 1207.93 179.183C1207.93 178.756 1208.49 177.523 1207.44 177.523C1206.39 177.523 1204.62 178.803 1205.02 180.368L1204.13 181.554L1203.41 182.644C1204.29 182.644 1204.29 183.593 1203.41 184.256C1202.25 184.747 1200.9 185.049 1199.48 185.132C1198.06 185.216 1196.64 185.077 1195.34 184.731H1193.48C1189.29 184.731 1190.82 183.024 1188.88 182.549C1186.95 182.075 1185.98 181.838 1187.11 181.364C1188.24 180.89 1190.34 179.041 1194.45 180.273L1196.15 180.795C1197.44 179.041 1196.15 177.571 1193.16 177.571C1188.59 177.981 1184.21 178.916 1180.25 180.321L1179.44 181.554L1178.72 182.597C1179.79 183.839 1181.03 185.028 1182.43 186.153C1183.32 186.77 1179.69 188.382 1175.98 187.813L1172.59 187.196C1171.94 185.802 1171.53 184.372 1171.38 182.929L1170.17 183.925C1168.31 185.442 1168.88 185.442 1171.78 185.963C1173.07 185.963 1174.36 187.007 1175.81 186.627H1176.62C1176.68 185.42 1176.38 184.216 1175.73 183.071C1175.09 181.886 1175.73 179.088 1174.44 179.467H1173.39H1171.86L1170.41 185.347C1170.01 186.627 1170.41 188.761 1173.15 189.283L1175.25 189.804C1177.99 190.468 1177.83 190.705 1174.36 191.891H1173.88C1173.88 192.27 1173.23 193.076 1172.91 193.645C1172.59 194.214 1171.13 195.4 1170.09 195.352C1167.63 195.512 1165.3 196.088 1163.39 197.012H1160.65H1158.55C1157.46 197.965 1156.16 198.826 1154.68 199.572C1152.21 200.395 1149.44 200.866 1146.61 200.947C1144.91 200.947 1142.98 199.003 1143.78 198.719C1144.59 198.434 1146.45 197.107 1144.91 196.632L1143.86 196.253C1142.25 195.637 1141.36 194.925 1143.14 194.119L1144.59 193.455C1147.07 193.296 1149.58 193.377 1152.01 193.693C1153.95 193.977 1157.9 190.753 1158.39 190.468C1160.64 189.824 1162.96 189.254 1165.33 188.761L1162.82 187.576C1162.05 187.221 1161.21 186.919 1160.32 186.675H1159.52C1158.39 186.675 1158.06 186.106 1158.79 185.774C1159.52 185.442 1161.69 183.925 1160.89 183.735C1160 183.636 1159.08 183.652 1158.2 183.784C1157.33 183.915 1156.51 184.157 1155.81 184.494C1154.51 185.252 1151.69 189.709 1149.83 189.947C1147.98 190.184 1142.33 190.421 1142.9 189.947C1143.66 189.066 1144.05 188.09 1144.03 187.102H1143.38C1142.9 187.041 1142.4 187.039 1141.91 187.096C1141.42 187.153 1140.96 187.268 1140.56 187.433L1139.35 188.571C1138.77 189.215 1137.85 189.733 1136.73 190.049C1135.61 190.364 1134.35 190.462 1133.13 190.326H1130.96C1130.47 190.326 1129.42 191.227 1129.34 191.796V192.27C1130.07 192.792 1129.34 193.171 1127.97 193.029L1126.92 192.697L1125.47 192.223C1124.18 191.464 1123.86 190.658 1124.74 190.421C1126.25 189.535 1127.24 188.389 1127.57 187.149L1127 186.201L1126.36 185.205C1127.06 184.69 1127.55 184.091 1127.81 183.45C1128.83 182.637 1130.02 181.904 1131.36 181.269C1135.71 179.557 1140.21 177.974 1144.83 176.527C1148.21 175.208 1151.8 174.095 1155.56 173.208V173.445V174.488C1155 175.532 1155.16 176.053 1155.56 175.627C1157.12 175.128 1158.74 174.7 1160.4 174.346C1162.48 174.088 1164.62 174.088 1166.7 174.346V170.695C1168.41 169.433 1170.24 168.23 1172.18 167.091C1172.83 166.807 1172.18 166.428 1172.18 166.522C1172.18 166.617 1168.47 166.522 1166.86 166.807C1165.24 167.091 1163.23 169.367 1161.69 169.794H1161.29L1156.13 166.57ZM1142.57 184.019C1140.45 184.289 1138.29 184.432 1136.12 184.446H1134.34H1131.36C1130.07 185.537 1129.34 186.77 1129.83 187.244C1130.43 187.583 1131.2 187.799 1132.03 187.859C1132.86 187.918 1133.7 187.819 1134.42 187.576C1135.96 186.864 1138.62 181.933 1139.1 183.166C1139.59 184.399 1143.7 183.83 1142.57 184.019ZM423.703 192.412C414.748 195.257 414.748 196.016 423.138 198.15C423.3 196.348 423.461 194.736 423.703 192.412Z"
    fill="#F8F8F8"
  />
  <path
    d="M1012.93 284.686C1011.05 284.493 1009.23 284.142 1007.52 283.643C1004.52 282.765 1001.26 282.218 997.923 282.031C996.229 282.031 992.84 283.975 992.034 284.117C991.227 284.259 983.966 285.492 983.159 286.441H984.692C985.337 286.441 986.225 285.35 987.193 284.828L988.484 284.117C990.017 283.453 990.339 282.552 989.21 282.078C988.08 281.604 983.723 283.169 982.836 283.501C981.948 283.833 984.853 285.208 985.902 285.919C986.951 286.63 987.838 287.816 983.078 287.484C977.991 286.517 973.334 284.897 969.443 282.742C968.13 282.066 966.427 281.71 964.683 281.746L965.812 280.561L966.942 279.233C968.152 277.574 967.91 276.199 966.377 276.199H965.086H961.133C958.429 273.135 956.083 269.966 954.113 266.715L951.854 263.348V262.779C951.29 262.4 951.854 261.499 953.952 260.74C956.05 259.982 959.519 257.753 958.632 257.326C957.744 256.9 961.859 255.525 963.472 255.145L964.925 254.766C965.287 254.113 965.583 253.448 965.812 252.774C967.477 251.215 969.395 249.754 971.541 248.412C972.67 247.653 974.929 245.235 974.526 244.808V243.338C976.785 243.338 981.303 243.338 984.692 242.864V241.631V241.015C982.19 240.256 981.222 239.403 982.432 239.118C983.643 238.834 987.354 238.312 987.999 238.075C988.645 237.838 988.484 236.747 989.613 236.321H990.42H992.195C994.535 236.321 995.503 235.657 994.293 234.708C993.082 233.76 990.904 231.342 992.195 231.721C993.486 232.1 998.407 232.195 999.376 231.247L1000.26 230.346C1000.83 229.824 1001.07 229.066 1001.96 228.781L1003.49 228.354C1005.27 227.975 1006.48 227.406 1006.15 227.027C1005.83 226.647 1006.15 225.462 1008.17 226.078C1010.19 226.695 1013.66 228.591 1011.8 229.066L1011.4 229.73V230.299C1008.97 231.301 1006.65 232.394 1004.46 233.57L1005.02 234.898C1005.11 235.133 1005.28 235.354 1005.53 235.543C1005.78 235.732 1006.11 235.885 1006.48 235.989H1007.28C1008.33 235.704 1011.4 235.04 1014.06 234.519V232.812L1013.58 230.393C1011.1 230.686 1008.59 230.876 1006.07 230.962C1005.51 230.962 1011.07 231.247 1013.66 231.294C1016.24 231.342 1019.06 233.238 1019.87 233.428C1020.65 233.923 1021.23 234.522 1021.53 235.174C1021.84 235.826 1021.88 236.512 1021.64 237.174H1016.88C1016.55 238.29 1015.55 239.299 1014.06 240.019C1011.13 240.681 1008 240.972 1004.86 240.873C1003.25 240.873 999.86 242.011 999.698 241.963C999.343 241.629 999.097 241.259 998.972 240.873C998.377 240.303 997.548 239.831 996.561 239.5C995.574 239.169 994.461 238.988 993.324 238.976L992.76 239.545C991.146 240.92 994.051 240.967 995.987 241.299H996.552C996.517 241.7 996.263 242.082 995.826 242.39C995.39 242.698 994.795 242.914 994.131 243.006H993.082L987.999 242.2C986.87 243.955 986.709 245.377 987.515 245.425C988.98 245.381 990.437 245.27 991.872 245.093C992.76 245.093 997.681 244.429 1000.83 244.239L1004.78 246.468C1006.96 247.748 1008.98 248.744 1006.96 250.451L1006.23 251.067C1005.83 251.826 1007.93 251.731 1010.91 251.067L1011.8 249.882C1012.37 249.218 1010.59 248.127 1009.86 247.227L1009.14 246.326C1008.33 245.377 1009.14 244.761 1010.59 244.998C1012.04 245.235 1015.51 246.231 1015.19 246.752C1014.87 247.274 1015.19 248.222 1016.24 248.033C1017.29 247.843 1018.82 245.946 1019.3 244.429C1019.79 242.912 1018.34 239.687 1020.68 240.019C1023.02 240.351 1030.12 241.252 1028.74 240.635C1027.37 240.019 1027.86 238.217 1030.84 237.364L1032.37 236.178L1033.83 235.04C1035.76 233.95 1035.6 233.049 1033.34 233.049C1029.47 233.03 1025.61 232.808 1021.8 232.385C1020.11 232.006 1016.96 230.156 1017.69 230.061C1018.32 229.774 1018.78 229.372 1018.98 228.918C1019.19 228.463 1019.13 227.982 1018.82 227.548C1018.01 226.458 1012.28 225.13 1013.41 224.893C1014.54 224.656 1017.77 224.134 1018.01 224.514L1018.5 224.846C1018.98 225.225 1019.79 225.699 1020.51 225.699C1021.24 225.699 1022.69 225.272 1022.69 224.988V223.66C1022.49 222.613 1022.74 221.553 1023.42 220.578C1023.42 220.578 1023.98 220.578 1024.23 220.91L1024.95 221.289L1029.63 219.677L1031.89 218.824C1030.82 218.171 1030.04 217.373 1029.63 216.5C1030.28 216.5 1031.33 216.263 1031.65 216.5C1032.28 216.836 1032.75 217.26 1033.02 217.733L1033.91 218.871C1035.91 218.36 1037.7 217.599 1039.15 216.642C1040.36 215.836 1042.86 213.181 1042.38 212.422V211.663C1042.38 211.663 1044.72 211.142 1045.04 211.284L1048.59 213.039C1049.8 211.569 1051.09 209.719 1051.58 208.961C1052.06 208.202 1054.8 206.258 1056.66 206.448C1058.52 206.637 1063.52 206.448 1063.68 206.068C1063.84 205.689 1064.97 203.887 1065.45 204.409C1066 204.841 1066.72 205.187 1067.55 205.419C1068.38 205.65 1069.3 205.759 1070.21 205.736L1070.78 205.262L1073.36 203.128C1076.19 203.372 1078.93 203.918 1081.43 204.741C1081.93 205.104 1082.6 205.374 1083.36 205.517C1084.12 205.66 1084.94 205.67 1085.7 205.547C1088.25 204.789 1090.61 203.832 1092.72 202.702L1091.84 202.322C1090.58 202.066 1089.22 202.066 1087.96 202.322C1087.08 202.588 1086.05 202.647 1085.1 202.489C1084.14 202.331 1083.32 201.967 1082.8 201.469L1080.94 200.9L1079.09 200.378C1074.65 200.378 1073.44 200.378 1076.35 200.046C1079.25 199.714 1080.62 196.869 1081.35 196.917C1082.07 196.964 1083.61 196.917 1083.28 197.296C1083.11 197.537 1083.1 197.806 1083.25 198.052C1083.4 198.298 1083.7 198.502 1084.09 198.624C1086.08 199.32 1087.94 200.13 1089.66 201.042L1090.87 200.094L1091.35 199.667C1091.52 199.087 1091.38 198.491 1090.95 197.96C1090.55 197.581 1092.64 196.158 1093.53 195.779C1094.42 195.399 1093.53 192.554 1094.66 192.507C1095.79 192.459 1099.42 192.886 1098.94 193.597C1098.45 194.309 1097.4 196.111 1097.89 196.205C1098.37 196.3 1099.74 195.542 1100.87 194.688C1103.31 193.093 1106.47 191.942 1109.99 191.369L1112.33 191.89C1114.19 192.27 1115.48 192.649 1116.85 191.89C1117.02 191.745 1117.12 191.571 1117.12 191.393C1117.12 191.214 1117.02 191.04 1116.85 190.895L1115.72 190.421C1114.4 190.004 1113.02 189.655 1111.6 189.377C1110.8 189.377 1109.83 188.476 1111.6 187.955L1112.49 187.244V186.959C1111.36 186.2 1112.49 185.489 1115.56 185.394C1118.62 185.299 1124.67 182.739 1127.74 183.592L1124.11 185.205C1123.68 185.389 1123.2 185.522 1122.69 185.595C1122.18 185.669 1121.64 185.681 1121.12 185.631L1119.51 185.062C1117.46 185.788 1115.74 186.797 1114.51 188.002L1117.65 189.472L1121.45 191.179C1120.88 192.934 1116.44 193.313 1111.6 192.033L1109.18 195.447C1109.18 195.447 1107.89 195.447 1107.17 195.447L1102.89 196.111C1104.99 197.486 1107.81 198.102 1109.1 197.533C1110.39 196.964 1114.91 195.542 1116.2 195.874C1117.49 196.205 1119.27 197.296 1116.93 197.581C1114.59 197.865 1111.76 202.891 1111.2 203.934V204.883C1111.29 205.246 1111.51 205.595 1111.84 205.905C1112.17 206.216 1112.62 206.481 1113.14 206.685L1113.86 206.922C1115.81 206.349 1117.43 205.46 1118.54 204.361L1120.8 203.745C1121.85 203.508 1123.22 202.891 1123.14 202.559L1122.17 200.236C1121.49 198.681 1121.49 197.049 1122.17 195.494C1123.34 195.493 1124.46 195.747 1125.32 196.205L1127.58 198.956C1128.16 199.216 1128.82 199.398 1129.54 199.488C1130.25 199.578 1130.98 199.575 1131.69 199.477L1132.18 199.003L1133.79 197.296C1135.73 194.736 1138.63 193.503 1140.33 194.593C1142.02 195.684 1141.54 198.956 1140.33 199.003C1139.12 199.05 1132.26 202.133 1134.44 202.18H1135.73H1137.82C1140.57 201.848 1142.18 202.18 1141.46 202.891C1140.73 203.603 1138.15 205.547 1137.99 205.12C1137.82 204.693 1135.57 204.124 1133.39 204.409L1131.53 204.883C1131.53 204.883 1131.93 206.021 1132.34 206.59V207.159C1132.98 208.06 1131.85 208.534 1129.92 208.249C1127.28 208.141 1124.66 208.523 1122.41 209.34C1119.89 210.518 1116.83 211.242 1113.62 211.426C1111.04 211.426 1103.86 212.28 1102.97 211.426C1102.08 210.573 1100.79 208.676 1102.41 208.581H1103.37C1104.54 208.421 1105.66 208.149 1106.68 207.775C1105.62 206.985 1104.3 206.325 1102.81 205.831C1101.36 205.357 1098.37 203.887 1098.77 203.413C1099.18 202.939 1098.77 201.611 1097.24 202.18C1096.11 202.856 1095.23 203.667 1094.67 204.558C1094.12 205.45 1093.89 206.401 1094.01 207.349V208.487V208.439C1093.89 208.788 1093.64 209.118 1093.28 209.404C1092.91 209.691 1092.45 209.928 1091.92 210.099L1090.87 209.719C1090.1 209.181 1089.55 208.549 1089.25 207.87C1089.25 207.396 1087.4 206.495 1087 206.685C1086.59 206.874 1084.98 207.633 1084.41 207.823C1083.85 208.012 1077.88 208.724 1077.56 209.198V209.767V210.241C1076.91 210.857 1076.1 211.189 1075.7 211.047C1075.45 210.985 1075.17 210.961 1074.89 210.976C1074.62 210.992 1074.36 211.046 1074.13 211.135C1073.9 211.224 1073.71 211.344 1073.57 211.486C1073.44 211.627 1073.37 211.786 1073.36 211.948C1073.36 212.991 1071.59 215.504 1069.49 215.694C1065.97 215.218 1062.64 214.366 1059.64 213.181L1057.63 214.177C1056.49 213.924 1055.51 213.478 1054.8 212.896C1054.4 212.422 1052.54 213.94 1053.75 215.22L1056.82 215.504C1059.81 215.836 1062.71 216.168 1065.7 216.595H1066.1C1066.1 216.595 1065.53 217.306 1064.73 217.828C1062.54 218.589 1060 218.936 1057.47 218.824L1056.18 219.25L1054.96 219.582C1053.8 220.893 1051.97 221.955 1049.72 222.617L1047.06 222.143H1046.57C1045.77 222.143 1045.12 222.664 1045.2 223.423C1045.28 224.182 1047.22 226.315 1049.16 225.841C1051.09 225.367 1058.11 224.087 1059.08 224.561C1060.05 225.035 1062.87 225.889 1063.52 225.604C1064.16 225.32 1065.7 223.945 1064.97 223.423C1064.24 222.901 1062.47 221.337 1063.03 221.194C1064.97 221.089 1066.91 221.089 1068.84 221.194L1071.18 220.91L1075.05 220.436C1073.6 224.324 1072.23 228.829 1071.99 230.536C1071.75 232.243 1074.97 230.868 1076.67 229.587C1080.16 228.299 1084.06 227.429 1088.13 227.027C1088.13 226.647 1088.13 225.746 1088.13 225.699C1086.51 225.462 1084.49 225.699 1083.2 225.225C1081.91 224.751 1080.94 223.85 1079.65 223.233C1078.92 223.27 1078.21 223.435 1077.64 223.708V224.703C1075.9 225.128 1074.31 225.739 1072.96 226.505V226.837C1073.68 227.501 1075.7 227.833 1072.96 228.734L1070.46 229.682C1070.94 228.591 1072.07 226.173 1073.12 224.324C1074.37 222.206 1076.41 220.278 1079.09 218.681L1081.03 218.017C1081.51 218.017 1082.56 218.017 1083.04 218.017C1083.53 218.017 1084.57 217.164 1085.54 216.832L1089.09 215.504C1091.27 213.465 1094.58 211.948 1096.35 212.185C1099.96 212.597 1103.5 213.2 1106.92 213.987L1103.7 215.22L1102.89 215.552C1103.42 216.325 1103.74 217.14 1103.86 217.97C1103.86 217.97 1101.03 217.97 1098.45 217.496V219.203C1098.45 220.578 1101.03 220.104 1102.57 220.104H1105.71C1109.05 218.739 1112.25 217.267 1115.31 215.694C1116.2 215.125 1119.75 215.694 1119.11 216.31C1117.78 218.415 1116.81 220.591 1116.2 222.807C1116.2 223.708 1117.82 223.755 1118.86 223.281C1119.53 222.675 1119.94 221.983 1120.05 221.265C1120.16 220.546 1119.98 219.822 1119.51 219.155L1116.44 219.772L1108.38 222.095C1106.92 222.522 1103.29 224.324 1103.94 224.988C1104.58 225.652 1106.92 227.264 1107.25 226.79C1107.57 226.315 1108.78 225.509 1109.34 225.652C1109.91 225.794 1111.68 225.936 1111.85 225.652C1114.07 223.638 1117.16 222.004 1120.8 220.91C1124.71 220.206 1128.37 219.098 1131.61 217.638C1133.15 216.69 1139.68 216.595 1139.68 216.216C1140.46 215.353 1141.6 214.619 1142.99 214.082C1144.52 213.608 1147.75 211.948 1146.86 211.474C1145.97 211 1142.99 210.099 1142.75 210.62C1142.1 211.323 1141.34 211.99 1140.49 212.612C1139.84 213.228 1139.28 214.935 1138.23 214.888C1136.34 214.476 1134.54 213.918 1132.9 213.228C1131.85 212.849 1129.92 211.237 1130.72 210.478C1131.53 209.719 1136.53 209.909 1139.28 210.004L1140 208.818C1140.73 207.775 1139.52 206.353 1143.63 206.495H1144.6C1146.01 206.329 1147.47 206.329 1148.88 206.495C1150.17 206.495 1153.4 207.87 1152.27 208.676H1151.38C1148.8 208.676 1148.15 209.625 1149.28 210.336C1150.75 210.823 1152.47 210.975 1154.12 210.763L1156.22 210.431C1156.36 208.701 1156.17 206.967 1155.66 205.262L1154.77 204.835L1153.96 204.409C1151.38 203.982 1151.46 203.65 1153.96 203.697C1156.46 203.745 1161.14 206.732 1163.32 207.349L1164.45 208.344C1164.84 208.514 1165.28 208.632 1165.76 208.689C1166.23 208.747 1166.72 208.742 1167.19 208.676C1169.8 207.908 1172.33 207.053 1174.78 206.116C1174.78 206.116 1174.78 205.404 1174.78 205.12C1174.6 204.975 1174.37 204.853 1174.1 204.763C1173.84 204.674 1173.55 204.617 1173.24 204.598L1171.15 204.883C1168.16 205.499 1166.31 205.357 1167.03 204.883C1167.76 204.409 1170.02 203.128 1170.98 203.745C1171.95 204.361 1176.15 202.322 1177.6 201.658C1180.79 200.648 1184.31 200.049 1187.93 199.904H1190.27H1190.83C1193.4 199.471 1195.85 198.816 1198.09 197.96L1200.59 196.727L1202.05 195.968C1201.56 194.404 1202.05 192.981 1203.9 192.744C1205.76 192.507 1211.97 192.222 1214.15 191.89C1216.33 191.559 1217.78 188.476 1217.05 188.05L1213.18 189.662C1211.73 188.05 1210.36 187.196 1210.12 187.718C1209.87 188.239 1208.1 189.946 1206.65 189.946C1205.19 189.946 1201.4 190.373 1202.21 190.895C1203.02 191.416 1199.55 193.266 1197.45 193.408V193.74C1197.45 194.356 1199.06 195.447 1198.5 195.731C1196.4 196.917 1195.11 195.731 1193.41 195.162H1192.61C1191.32 195.162 1190.91 194.925 1191.64 194.451C1192.37 193.977 1193.41 192.602 1192.77 192.222C1192.14 191.662 1191.72 191.03 1191.54 190.368C1191.36 189.706 1191.42 189.029 1191.72 188.382L1195.35 189.852C1195.9 189.988 1196.49 190.059 1197.09 190.059C1197.68 190.059 1198.27 189.988 1198.82 189.852C1199.95 189.283 1200.35 188.382 1201.32 187.765C1201.64 187.848 1201.99 187.89 1202.34 187.889C1202.69 187.888 1203.04 187.843 1203.36 187.758C1203.68 187.673 1203.96 187.55 1204.19 187.396C1204.43 187.242 1204.6 187.061 1204.71 186.864L1205.27 186.153L1207.37 183.735C1211.33 184.968 1214.96 186.058 1215.44 186.153C1217.37 185.352 1218.69 184.147 1219.15 182.786L1215.6 181.269L1216.33 179.989C1216.33 179.04 1217.38 178.851 1219.39 179.657L1221.41 180.178H1222.14C1223.43 180.178 1224.56 180.178 1224.72 180.747C1224.93 180.923 1225.2 181.067 1225.53 181.167C1225.85 181.266 1226.21 181.318 1226.57 181.318C1226.94 181.318 1227.3 181.266 1227.62 181.167C1227.94 181.067 1228.22 180.923 1228.43 180.747V179.989L1229.56 177.665C1231.18 176.738 1233.23 176.112 1235.45 175.863C1236.82 175.863 1240.53 175.247 1240.53 174.536C1240.53 173.824 1241.18 171.738 1242.95 172.117C1246.35 172.709 1249.96 172.709 1253.36 172.117C1255.46 171.264 1253.36 167.376 1253.36 166.949C1253.36 166.522 1254.73 166.285 1254.41 166.949C1254.09 167.613 1260.78 166.522 1262.48 165.621C1264.17 164.72 1271.92 166.333 1273.37 166.095V165.716L1273.93 164.673C1275.77 164.47 1277.5 164.033 1279.02 163.393C1280.07 162.871 1281.2 161.496 1279.02 161.543C1276.84 161.591 1273.77 161.211 1275.71 160.927C1277.65 160.642 1280.47 158.793 1281.2 159.457C1282.9 160.382 1285.04 160.992 1287.33 161.211C1288.86 161.211 1292.73 160.168 1290.47 158.888C1289.07 157.548 1288.32 156.005 1288.32 154.431C1288.32 152.857 1289.07 151.313 1290.47 149.974L1293.7 147.935C1294.35 147.789 1295.07 147.789 1295.72 147.935H1296.2C1296.95 148.924 1297.38 149.984 1297.49 151.064V152.344V152.819C1297.49 153.767 1296.2 153.482 1294.91 152.202H1293.94H1292.57C1291.35 152.647 1290.28 153.227 1289.42 153.909C1289.41 154.207 1289.51 154.503 1289.72 154.774C1289.93 155.046 1290.24 155.285 1290.64 155.474C1292.5 156.748 1294.55 157.922 1296.77 158.983L1299.27 157.418C1300.43 157.65 1301.57 157.936 1302.66 158.272C1303.87 158.651 1304.92 159.41 1306.05 159.41H1308.3C1310.72 159.078 1312.02 158.556 1311.13 158.272C1309.03 157.759 1306.87 157.331 1304.67 156.991C1303.06 156.991 1298.7 155.569 1299.43 155.047V154.383V153.767C1299.43 152.961 1299.91 152.534 1300.88 152.771C1302.44 153.033 1304.09 153.033 1305.64 152.771C1307.19 152.431 1308.68 152.002 1310.08 151.491C1310.89 151.017 1311.21 149.167 1308.79 149.594C1305.7 150.137 1302.54 150.549 1299.35 150.827C1299.35 150.339 1299.51 149.855 1299.83 149.405C1299.83 149.405 1301.12 149.405 1301.77 149.405L1306.29 148.788C1305.41 147.612 1305.1 146.315 1305.4 145.042L1306.37 145.327L1308.22 145.848C1309.92 145.516 1311.29 145.848 1311.37 145.848C1312.32 147.301 1313.46 148.712 1314.76 150.068C1316.13 151.538 1319.68 156.233 1320.65 157.134L1322.1 157.418C1323.78 157.552 1325.5 157.455 1327.1 157.134C1327.1 157.134 1327.67 156.517 1327.1 156.233C1326.46 154.952 1324.28 155.569 1322.67 155.427C1322.67 155.427 1321.86 154.289 1321.86 152.866C1322.6 151.022 1324 149.292 1325.97 147.792C1329.29 147.259 1332.7 146.988 1336.14 146.986L1338.4 144.663C1339.37 143.62 1340.98 143.809 1342.67 144.663L1346.47 146.18C1349.05 144.805 1350.1 143.43 1348.81 143.145C1347.52 142.861 1343.4 142.624 1342.92 143.145C1342.43 143.667 1341.3 141.723 1342.11 141.154H1343H1345.9C1347.36 140.405 1349.1 139.869 1350.98 139.589H1351.47L1355.1 140.964C1356.33 139.97 1357.97 139.172 1359.86 138.641C1362.13 138.512 1364.28 138.001 1366.07 137.171C1367.44 136.128 1372.2 133.852 1371.4 133.14C1370.3 131.999 1369.36 130.81 1368.57 129.584C1368.57 129.063 1370.99 129.015 1370.83 129.584L1372.12 130.201C1373.59 130.691 1374.68 131.486 1375.19 132.429C1375.5 133.357 1376.04 134.252 1376.8 135.085C1377.29 135.322 1379.79 134.61 1381.4 133.046C1383.02 131.481 1387.69 127.782 1388.26 128.067C1388.82 128.351 1390.03 129.252 1389.71 129.442C1389.39 129.632 1388.82 130.39 1389.71 130.675H1390.2C1391.16 130.675 1392.7 130.343 1392.78 130.106V128.968C1392.78 127.782 1390.2 126.36 1387.29 125.838C1384.39 125.317 1379.22 130.011 1379.22 130.153C1378.74 130.289 1378.19 130.325 1377.66 130.257C1377.13 130.188 1376.66 130.018 1376.32 129.774C1375.27 129.062 1370.91 128.256 1370.91 127.782C1370.94 127.029 1370.77 126.279 1370.43 125.554C1370.43 125.269 1370.43 124.558 1370.91 124.605C1371.4 124.653 1375.27 126.217 1377.69 126.881L1379.63 125.222L1381.89 123.325C1386.97 122.187 1390.36 121.713 1389.39 122.282C1388.42 122.851 1387.53 124.463 1389.87 124.51H1393.83H1395.92C1396.68 125.253 1397.77 125.86 1399.07 126.265C1399.96 126.265 1403.51 126.265 1403.51 125.222C1403.51 124.179 1404.07 121.571 1404.88 121.571C1405.69 121.571 1406.98 121.902 1406.65 122.329V123.325C1406.65 124.351 1406.09 125.349 1405.04 126.17L1407.06 126.597L1408.35 126.881C1410.45 126.597 1411.58 125.696 1411.01 124.89L1410.45 124.179L1411.5 123.657L1413.75 123.941C1416.18 124.273 1418.19 123.941 1418.19 123.325V122.756V122.14C1418.19 121.286 1418.68 120.859 1419.56 121.239C1420.45 121.618 1423.92 122.234 1424.73 121.571C1425.44 120.716 1425.77 119.77 1425.7 118.82C1425.7 118.109 1430.13 117.398 1432.71 117.35C1435.3 117.303 1437.64 113.604 1438.52 113.273H1439.25C1439.66 113.33 1440.03 113.441 1440.35 113.597C1440.68 113.753 1440.93 113.95 1441.11 114.173C1441.11 114.648 1441.11 115.264 1441.11 115.691C1441.42 115.886 1441.79 116.041 1442.21 116.147C1442.62 116.253 1443.07 116.308 1443.53 116.307L1445.54 115.833C1446.99 114.992 1448.58 114.244 1450.3 113.604C1451.19 113.604 1453.21 112.893 1452.4 112.704C1451.59 112.514 1449.74 111.803 1450.06 111.518C1452.12 110.915 1454.29 110.438 1456.52 110.096C1460.49 109.128 1464.67 108.49 1468.94 108.199H1470.8H1474.51C1473.99 106.985 1473.99 105.714 1474.51 104.5C1475.07 103.694 1479.83 104.5 1480.8 104.216L1481.28 103.789C1482.82 102.651 1483.3 100.517 1487.5 102.698C1488.66 102.786 1489.84 102.617 1490.81 102.224C1492.26 100.043 1493.95 98.668 1498.87 100.707C1500.57 100.185 1505.25 98.5732 1509.12 97.1032L1512.75 95.7281C1513.73 95.2842 1514.63 94.775 1515.41 94.2108C1515.71 93.5119 1516.23 92.8524 1516.95 92.2667C1517.83 91.508 1522.76 91.0338 1522.35 91.8399V92.5037C1522.34 93.0406 1522.65 93.5625 1523.24 93.9737C1523.4 94.1418 1523.65 94.2766 1523.95 94.3601C1524.24 94.4436 1524.58 94.4717 1524.9 94.4407C1525.22 94.4098 1525.53 94.3212 1525.76 94.1869C1526 94.0525 1526.16 93.8789 1526.22 93.6892L1527.68 90.7493C1534.26 89.7353 1540.61 88.2378 1546.56 86.2921H1552.37C1552.93 86.2921 1553.49 85.5808 1553.9 85.2015L1555.92 83.2099C1557.77 84.348 1559.95 84.4902 1560.68 83.5419C1561.4 82.5935 1571.33 81.1236 1576.25 79.9856L1577.94 78.895C1578.98 78.2119 1580.09 77.5629 1581.25 76.9509C1582.54 76.9509 1583.35 77.5199 1583.02 77.994C1582.92 78.1837 1582.91 78.3877 1583 78.5795C1583.1 78.7714 1583.29 78.9424 1583.55 79.0701C1583.81 79.1979 1584.13 79.2767 1584.47 79.2962C1584.81 79.3157 1585.15 79.275 1585.44 79.1795C1587.62 78.7053 1594.24 76.9509 1596.01 76.3819C1599.09 75.2081 1602.51 74.3727 1606.1 73.9162C1608.6 73.9162 1614.17 72.1617 1617.31 73.6316L1612.96 75.718C1614.57 76.6664 1616.51 76.2396 1617.15 74.8171C1617.8 73.3946 1621.03 70.0754 1622.56 70.5969C1624.09 71.1185 1626.91 72.6359 1627.08 71.2134L1631.27 71.735C1632.16 71.735 1633.53 71.2608 1634.42 70.9289C1635.31 70.5969 1634.42 70.1702 1633.93 70.0279C1632.08 69.2693 1630.79 70.0279 1629.5 70.5021C1628.53 70.5021 1628.21 69.9805 1628.85 69.2218C1629.5 68.4632 1631.59 66.7561 1632.24 67.0406C1632.96 67.0975 1633.69 67.0394 1634.36 66.8725C1635.02 66.7056 1635.6 66.4361 1636.03 66.0923C1636.92 65.3336 1643.62 64.1482 1644.99 62.6308H1650.39C1651.93 64.1008 1653.7 65.0965 1654.35 64.9069C1652.25 62.3463 1657.9 61.4454 1659.19 59.6435L1664.19 58.6952L1666.85 59.359C1670.32 60.2125 1671.21 58.6952 1672.74 57.5098C1674.27 56.3243 1677.74 57.9839 1678.87 55.7079C1680 53.4319 1685.17 53.6689 1688.56 54.0957C1690.65 54.4276 1691.62 54.6173 1691.46 55.7079V56.514C1691.46 57.8417 1693.15 58.3158 1695.01 57.5572V57.083L1695.9 55.3286C1693.64 53.8586 1694.69 51.8197 1698.24 50.5868L1701.54 49.5911C1702.43 49.354 1703.4 48.7375 1704.05 48.785C1713.24 49.6385 1716.47 44.8493 1723.89 44.0432H1724.38C1724.78 42.9526 1725.35 42.4785 1725.75 42.9526C1726.76 43.3863 1727.92 43.6763 1729.16 43.7997C1730.39 43.9231 1731.65 43.8767 1732.85 43.6639C1735.83 43.0475 1740.92 39.7283 1740.92 40.0602V40.3447V40.6292C1740.92 41.1508 1742.61 41.0559 1743.98 40.3921L1745.11 39.8705C1746.1 39.3294 1747.18 38.8524 1748.34 38.448C1748.5 38.8001 1748.89 39.1003 1749.43 39.2826C1749.97 39.4649 1750.61 39.5144 1751.2 39.42C1751.8 39.3257 1752.31 39.0954 1752.62 38.7797C1752.93 38.464 1753.02 38.0889 1752.86 37.7367L1753.83 37.4048H1754.55C1756.01 37.6102 1757.44 37.8797 1758.83 38.2109C1761.96 37.7102 1764.93 36.9091 1767.62 35.84C1770.77 34.7494 1779.48 32.5682 1782.15 31.9044L1784.4 31.2406C1785.29 30.956 1786.42 30.15 1786.66 30.1974L1789.08 30.8138C1790.41 30.7697 1791.7 30.5559 1792.87 30.1873C1794.04 29.8187 1795.06 29.3043 1795.86 28.68H1799.01C1800.73 28.8275 1802.41 29.0982 1804.01 29.4861H1804.74C1805.95 29.4861 1806.83 29.4861 1806.75 29.1068C1806.4 28.5253 1806 27.9555 1805.54 27.3997H1808.77C1810.04 27.334 1811.27 27.1247 1812.4 26.7833C1813.93 26.404 1815.31 25.835 1816.68 25.4082C1817.32 25.4082 1817.48 25.9298 1817.24 26.4514C1817 26.973 1816.44 28.3955 1817.24 28.5378C1817.73 28.6089 1818.25 28.5768 1818.71 28.4469C1819.17 28.3171 1819.53 28.0977 1819.74 27.8265L1820.47 27.3049L1824.75 24.0805C1828.69 24.499 1832.74 24.499 1836.69 24.0805L1837.57 24.4125C1838.54 24.7444 1838.38 25.835 1839.35 26.0721L1840.72 26.404C1842.9 26.404 1844.75 25.7876 1844.75 25.0763C1844.75 24.365 1843.54 22.2313 1842.09 22.1838C1840.64 22.1364 1836.77 21.6623 1837.01 21.2355L1838.46 20.8562C1840.43 20.5011 1842.54 20.5011 1844.51 20.8562C1847.19 21.0743 1849.9 21.0743 1852.58 20.8562H1853.31C1857.1 21.3303 1858.55 22.4209 1857.5 24.0331C1857.5 24.3176 1856.13 24.5073 1856.05 24.7918V25.3608C1856.28 25.7022 1856.73 25.9769 1857.31 26.1272C1857.88 26.2776 1858.53 26.2918 1859.12 26.1669L1859.84 25.7876L1862.75 24.1754C1865.52 24.5109 1868.22 25.0196 1870.81 25.6927C1872.58 25.6655 1874.28 25.2991 1875.66 24.6495H1877.91H1881.22C1884.85 25.1711 1888.16 26.2617 1888.56 27.1152C1888.97 27.9688 1893.73 28.0636 1894.05 28.3955C1894.38 29.6684 1894.38 30.9634 1894.05 32.2363H1898.41C1898.27 33.8637 1897.67 35.466 1896.63 36.9781L1899.05 38.8273C1900.26 39.7757 1904.22 41.625 1899.05 43.1423C1899.05 43.1423 1899.78 43.9958 1900.02 44.47C1900.26 44.9442 1900.51 45.6554 1900.75 46.2244L1901.15 50.9662L1902.44 52.768C1903.79 54.6129 1904.68 56.5605 1905.1 58.5529C1905.1 59.691 1910.11 62.2989 1910.59 62.8679C1911.07 63.4369 1910.59 65.2862 1909.86 65.3336L1908.98 65.5707C1907.13 65.9091 1905.37 66.3873 1903.73 66.9932C1903.01 67.3251 1907.93 68.4157 1903.01 68.7477H1901.47C1900.1 69.5538 1898.25 70.5495 1897.44 70.9289C1896.08 71.7231 1894.94 72.6345 1894.05 73.6316H1893.41L1891.07 74.0584C1889.51 74.1294 1887.99 74.3844 1886.6 74.808C1885.22 75.2317 1883.99 75.8154 1883 76.5241L1881.06 77.425L1878.8 78.4208L1869.85 81.3607C1867.26 82.1194 1856.86 85.5334 1852.26 87.0982L1848.06 88.6155C1846.43 88.7584 1844.77 88.7584 1843.14 88.6155C1840.72 88.6155 1835.07 91.6028 1834.02 92.2192C1830.18 93.6306 1826.16 94.8671 1822 95.9178C1817.61 97.3642 1813.36 98.947 1809.25 100.66C1808.53 100.66 1805.79 100.991 1804.57 101.229C1802.55 101.972 1800.6 102.795 1798.77 103.694C1797.56 104.168 1794.17 104.5 1794.25 106.539H1787.71C1786.34 106.776 1785.37 106.539 1785.61 106.539C1785.86 106.539 1785.61 105.401 1785.61 105.259C1784.17 105.188 1782.72 105.285 1781.34 105.544C1779.81 105.828 1780.29 109.432 1777.87 111.755L1772.95 112.182L1769.08 112.466C1766.37 113.525 1763.44 114.37 1760.36 114.98C1757.66 115.675 1755.14 116.584 1752.86 117.682L1751.08 118.346L1748.5 119.389C1746.43 120.295 1744.03 120.897 1741.48 121.144H1740.76H1739.79C1737.77 121.267 1735.85 121.746 1734.3 122.519C1731.15 124.231 1727.81 125.816 1724.3 127.261C1722.04 127.877 1715.83 129.489 1715.74 129.584C1715.66 129.679 1717.2 130.011 1719.46 129.916C1723.15 129.609 1726.8 129.117 1730.35 128.446L1731.8 128.019L1738.09 126.17C1739.97 126.543 1741.92 126.781 1743.9 126.881C1744.71 126.881 1745.19 125.696 1746.24 125.364C1747.89 124.715 1749.77 124.294 1751.73 124.131H1755.36C1759.15 123.467 1762.38 121.76 1762.54 120.338L1765.44 121.096L1770.53 122.377C1771.41 120.48 1773.19 118.915 1774.48 118.915C1775.77 118.915 1780.53 118.915 1782.06 118.915V116.734C1785.7 116.734 1790.13 116.734 1791.34 116.402C1792.55 116.07 1797.39 115.074 1798.77 114.98C1800.14 114.885 1805.95 114.98 1808.04 114.6C1811.25 113.748 1814.03 112.425 1816.11 110.759L1819.18 111.85C1821.11 110.807 1822.89 110.143 1823.05 110.427C1823.21 110.712 1825.31 110.854 1826.76 109.621L1828.62 109.052C1830.67 108.733 1832.8 108.637 1834.91 108.768H1837.9C1839.56 107.895 1841.55 107.261 1843.71 106.919H1844.67C1845.48 106.919 1846.29 107.393 1847.01 107.393C1848.95 107.393 1848.71 104.785 1852.58 106.35L1853.31 106.634C1855.81 106.065 1859.68 105.022 1861.94 104.358L1863.71 103.599C1866.05 102.556 1867.51 105.496 1869.77 103.836L1871.22 102.793C1873.4 103.078 1877.83 103.789 1881.14 104.311L1882.19 102.129V101.276C1883 101.276 1885.82 100.565 1888.56 100.138C1892.07 99.5341 1895.73 99.2777 1899.38 99.3793C1899.38 99.806 1901.39 100.754 1901.63 100.138C1902.36 99.5649 1903.37 99.1326 1904.52 98.8962C1905.67 98.6597 1906.91 98.6298 1908.09 98.8102L1910.03 98.4309C1911.54 98.5571 1913.03 98.7797 1914.46 99.0947C1915.68 99.5543 1916.98 99.9359 1918.34 100.233C1920.19 100.612 1922.21 103.931 1922.53 104.595C1922.85 105.259 1931.73 105.259 1934.96 105.401C1940.58 105.759 1946.13 106.474 1951.5 107.535C1954.79 109.525 1957.51 111.815 1959.56 114.316H1955.37C1954.88 114.316 1954.16 115.501 1954.48 115.928L1954.96 116.592C1954.2 117.207 1953.33 117.778 1952.38 118.299C1951.58 118.726 1954.08 119.816 1955.05 120.385C1956.01 120.954 1954.24 123.23 1952.79 124.226L1956.9 124.795L1960.13 125.222C1959.08 126.692 1957.55 128.778 1956.82 129.963C1956.09 131.149 1956.09 134.99 1953.35 136.317H1959.81C1960.26 137.259 1960.5 138.231 1960.53 139.21C1960.53 140.395 1961.5 143.952 1961.74 144.236L1959.08 145.943L1966.26 149.736C1967.71 150.59 1959.4 154.478 1956.18 155.284L1953.19 156.043C1949.72 156.896 1947.62 159.267 1945.61 161.164C1943.59 163.061 1946.82 163.487 1949.32 162.587C1951.82 161.686 1953.19 164.056 1955.53 162.966C1957.87 161.875 1958.84 160.737 1962.55 160.88H1964.89C1967.68 160.521 1970.57 160.521 1973.36 160.88H1974.89C1976.43 160.88 1977.31 159.552 1978.85 159.173L1980.3 158.841C1983.06 158.899 1985.78 159.219 1988.37 159.789C1990.63 160.311 1997.32 158.983 1998.05 159.03C1998.77 159.078 2002.89 159.884 2006.12 160.358C2009.34 160.832 2018.3 159.41 2020.07 159.979C2021.85 160.548 2028.14 161.828 2028.95 161.449C2029.76 161.069 2032.74 160.548 2033.79 161.022C2034.99 161.538 2036.08 162.144 2037.02 162.824C2034.04 162.93 2031.04 162.93 2028.06 162.824H2024.11H2022.01C2019.91 163.867 2022.01 164.957 2026.37 165.195L2029.84 164.625C2033.31 164.056 2035.73 166.712 2039.2 164.625L2040.57 163.914C2042.81 164.164 2045.02 164.497 2047.18 164.91C2048.03 165.327 2048.84 165.77 2049.6 166.238C2051.41 166.376 2053.25 166.229 2054.93 165.811C2057.01 165.42 2059.21 165.29 2061.38 165.432C2062.11 165.669 2063 166.712 2062.76 167.044C2062.12 167.367 2061.37 167.606 2060.56 167.745C2059.76 167.884 2058.91 167.92 2058.08 167.85C2056.06 167.85 2053.88 170.648 2052.27 170.932C2050.65 171.217 2049.6 173.635 2050.33 173.777C2051.06 173.919 2052.35 174.962 2051.78 175.721C2051.22 176.48 2056.38 176.954 2058.08 177.523H2059.77C2060.52 177.569 2061.28 177.569 2062.03 177.523H2063.4C2064.74 177.474 2066.09 177.474 2067.43 177.523C2068.16 177.523 2070.18 178.092 2069.86 178.803C2069.53 179.515 2069.85 181.553 2068.97 181.648C2066.46 181.652 2063.95 181.541 2061.46 181.316C2059.21 181.316 2059.2 184.161 2060.09 183.355C2060.98 182.549 2065.74 183.924 2064.77 184.636C2063.8 185.347 2061.71 187.623 2062.43 187.765C2065.61 188.555 2068.66 189.507 2071.55 190.61L2075.99 191.132C2075.37 192.231 2074.47 193.27 2073.32 194.214C2071.95 195.305 2074.21 198.624 2073.32 198.956C2073.08 199.105 2072.9 199.284 2072.79 199.481C2072.68 199.677 2072.64 199.886 2072.69 200.091C2072.74 200.296 2072.86 200.493 2073.06 200.665C2073.25 200.838 2073.51 200.983 2073.81 201.089L2075.74 201.516C2076.73 201.595 2077.74 201.46 2078.57 201.137C2079.08 200.949 2079.69 200.871 2080.29 200.914C2080.9 200.957 2081.45 201.119 2081.88 201.374V201.658C2082.52 201.943 2080.59 202.844 2077.68 203.603C2074.78 204.361 2065.98 202.654 2065.34 202.702C2062.69 203.389 2060.15 204.214 2057.75 205.167C2052.55 206.395 2047.14 207.301 2041.62 207.87C2039.36 208.343 2037.22 208.98 2035.24 209.767L2032.74 210.241L2030.24 210.715L2018.22 211.284L2017.09 212.09L2014.18 214.129C2010.94 213.5 2007.51 213.243 2004.1 213.371C2002.32 213.655 1996.6 213.655 1994.98 213.797C1993.37 213.94 1986.27 214.888 1981.91 215.504C1977.56 216.121 1960.77 217.875 1954.24 218.492C1947.7 219.108 1930.03 220.531 1928.66 220.72H1927.69L1916.64 222.238H1907.44L1886.14 226.505C1883.48 227.027 1870.9 228.117 1864.2 228.923H1858.07H1852.18C1846.37 229.872 1841.45 230.773 1841.12 230.915C1840.03 231.406 1838.83 231.819 1837.57 232.148C1834.69 232.082 1831.8 232.162 1828.94 232.385C1822.74 233.193 1816.46 233.763 1810.14 234.092L1803.45 234.898C1801.19 235.135 1797.23 233.95 1796.26 234.424L1793.28 235.941C1790.94 235.04 1788.36 234.708 1787.55 235.182C1786.74 235.657 1782.71 235.182 1781.26 235.514C1779.81 235.846 1773.75 234.044 1770.61 233.807L1768.59 233.144C1765.76 232.388 1762.65 232.062 1759.55 232.195H1758.99C1756.87 231.52 1754.69 230.919 1752.45 230.393C1749.47 229.682 1738.09 227.548 1734.22 226.837L1731.64 225.462L1729.06 224.087C1730.42 223.268 1731.67 222.379 1732.77 221.431C1732.44 220.47 1731.87 219.543 1731.07 218.681L1732.69 217.923L1733.33 217.496C1732.89 216.43 1732.18 215.407 1731.24 214.461C1730.17 212.732 1729.76 210.888 1730.03 209.056C1730.03 208.202 1725.43 206.874 1725.35 206.448C1725.27 206.021 1724.46 202.37 1723.73 199.43L1722.6 196.774V196.205C1719.91 196.005 1717.17 196.101 1714.53 196.49C1712.68 196.822 1705.18 198.481 1701.95 199.24C1696.29 200.372 1691 202.055 1686.3 204.219L1681.05 203.603L1678.07 203.223L1665.56 206.542C1662.66 207.254 1652.89 208.913 1650.55 209.625C1645.73 210.768 1640.8 211.75 1635.79 212.564C1631.6 213.675 1627.67 215.093 1624.09 216.785C1622.88 217.306 1619.09 215.931 1618.52 215.931C1617.96 215.931 1614.33 216.358 1610.46 216.785C1604.84 218.546 1599.45 220.543 1594.32 222.759C1590.93 223.613 1581.57 224.798 1581.73 225.604C1581.89 226.41 1576.41 226.031 1575.44 226.173C1574.47 226.315 1572.45 227.548 1571.81 227.453C1568.48 227.755 1565.21 228.248 1562.05 228.923L1558.42 229.73L1556.32 230.204C1554.52 230.914 1552.43 231.339 1550.27 231.437C1548.07 231.745 1545.99 232.292 1544.14 233.049C1541.03 233.953 1537.82 234.729 1534.53 235.372L1531.63 235.751C1526.95 236.321 1521.87 236.463 1520.5 239.355C1517.6 239.212 1514.68 239.212 1511.78 239.355C1508.88 239.355 1504.44 242.722 1503.71 242.817L1498.95 243.243C1494.65 244.056 1490.45 245.038 1486.37 246.183C1482.25 247.369 1468.3 249.882 1466.04 250.546C1462.53 251.451 1459.11 252.464 1455.79 253.58C1454.74 254.055 1448.93 254.387 1447.72 254.908C1445.02 255.73 1442.18 256.382 1439.25 256.852C1436.49 257.215 1433.79 257.723 1431.18 258.37C1429.89 258.749 1420.61 260.883 1413.43 262.353L1407.46 264.249L1406.33 264.581C1403.66 264.819 1400.96 264.93 1398.26 264.913L1397.78 266.762C1394.86 267.061 1391.97 267.472 1389.15 267.995C1385.92 268.564 1376 271.125 1372.61 271.552C1369.22 271.978 1358.49 275.867 1353.41 276.862L1349.05 278.237L1343.48 279.992C1336.46 281.272 1327.91 282.979 1324.36 283.785C1320.81 284.591 1310.64 287.342 1309.03 287.768C1307.42 288.195 1299.83 289.665 1296.2 290.281C1292.57 290.898 1281.68 294.027 1279.1 294.312C1276.52 294.596 1267.24 296.683 1262.96 297.252L1259.25 298.153H1258.6C1254.11 298.495 1249.66 299.018 1245.29 299.717L1240.29 301.33C1239.01 301.833 1237.55 302.151 1236.02 302.258C1234.49 302.365 1232.94 302.258 1231.5 301.946C1230.31 301.355 1228.81 301.03 1227.26 301.03C1225.71 301.03 1224.21 301.355 1223.02 301.946C1221.65 301.946 1216.57 300.618 1211.65 299.48C1206.73 298.342 1192.2 297.204 1193.49 296.493V296.019V295.592C1193.06 295.307 1192.5 295.096 1191.87 294.98C1191.25 294.863 1190.58 294.845 1189.94 294.928L1189.06 295.308L1188.41 295.592C1188.41 296.635 1187.52 296.066 1187.28 294.312C1187.04 292.557 1189.46 288.574 1187.28 288.242L1186.64 287.673C1186.34 287.278 1186.18 286.85 1186.18 286.417C1186.18 285.984 1186.34 285.556 1186.64 285.16L1187.85 283.216C1184.7 282.789 1182.76 282.315 1183.49 282.173C1184.22 282.031 1186.07 281.462 1185.83 281.13H1185.43C1182.35 280.606 1179.41 279.824 1176.71 278.806C1175.42 278.048 1176.31 276.341 1176.71 275.06C1176.71 274.634 1178.25 274.065 1178 273.78L1176.63 272.358C1175.78 270.275 1174.25 268.309 1172.11 266.573L1169.94 265.293L1167.92 265.34C1166.47 265.008 1166.06 264.392 1167.03 263.917C1167.57 262.955 1167.7 261.931 1167.42 260.933C1167.14 259.934 1166.45 258.99 1165.42 258.18V255.572V254.149C1168.07 252.532 1170.43 250.751 1172.44 248.839L1171.87 247.938C1171.57 247.728 1171.2 247.556 1170.79 247.434C1170.37 247.312 1169.92 247.241 1169.45 247.227C1166.95 247.227 1168.32 247.796 1168.81 248.459C1169.29 249.123 1167.27 250.214 1166.71 250.166H1162.76C1162.76 251.541 1161.46 252.348 1160.66 251.968C1160.3 251.85 1159.9 251.784 1159.49 251.778C1159.08 251.772 1158.67 251.825 1158.31 251.933C1157.94 252.041 1157.63 252.2 1157.39 252.396C1157.15 252.592 1157 252.82 1156.95 253.059C1156.95 254.434 1147.67 255.098 1146.78 256.994L1142.99 257.611C1138.17 258.278 1133.75 259.685 1130.16 261.689L1128.47 262.637C1125.14 263.074 1121.92 263.742 1118.86 264.629C1114.78 265.399 1110.79 266.334 1106.92 267.426L1106.2 267.9L1104.66 268.849C1103.42 269.002 1102.14 268.996 1100.9 268.833C1099.66 268.669 1098.5 268.351 1097.48 267.9C1096.11 267.094 1091.27 265.34 1091.19 265.719C1091.41 266.52 1091.94 267.281 1092.72 267.948L1093.29 268.517C1093.29 268.517 1091.84 269.086 1091.59 268.991C1091.35 268.896 1089.5 267.806 1089.09 268.991C1089.09 269.37 1089.66 270.176 1090.22 270.224H1091.92C1093.93 270.224 1093.69 270.224 1091.43 270.556C1089.17 270.888 1085.38 272.974 1084.82 272.737H1084.25L1080.38 271.646C1080.38 273.069 1080.38 274.349 1080.38 274.539C1080.15 274.922 1079.69 275.242 1079.09 275.44L1069.08 276.009L1066.02 277.668C1063.28 279.233 1060.21 281.035 1055.53 278.712C1054.63 278.556 1053.68 278.556 1052.79 278.712C1052.75 279.325 1052.91 279.937 1053.27 280.513C1053.84 280.94 1052.38 280.845 1050.04 280.513C1047.7 280.182 1041.98 281.177 1042.62 281.367C1043.27 281.557 1043.02 282.979 1040.04 284.165L1035.84 281.651C1035.21 281.21 1034.44 280.841 1033.58 280.561H1033.02C1031.73 280.561 1030.6 281.699 1030.52 282.884V284.022C1030.29 284.242 1029.97 284.426 1029.59 284.558C1029.21 284.69 1028.78 284.767 1028.34 284.781H1026.32C1027.1 283.857 1027.62 282.864 1027.86 281.841L1026.32 281.13C1025.88 280.921 1025.35 280.789 1024.79 280.751L1023.34 281.225C1022.43 281.792 1021.82 282.499 1021.56 283.264C1021.8 283.92 1021.8 284.599 1021.56 285.255C1021.56 285.729 1018.74 285.635 1018.5 285.255C1016.68 284.963 1014.81 284.772 1012.93 284.686ZM1272.72 170.885C1272.72 169.699 1272.72 168.893 1272.72 169.083C1275.27 169.736 1278.02 170.06 1280.79 170.031L1283.37 169.225L1285.96 168.419C1287.49 166.522 1286.36 165.716 1283.54 166.617L1281.11 167.328L1278.69 168.04C1279.26 169.747 1277.56 170.932 1274.98 170.695L1273.21 170.126L1271.59 169.652C1270.14 168.371 1269.01 168.134 1269.01 169.178C1269.01 170.221 1272.8 172.165 1272.8 170.979L1272.72 170.885ZM986.063 279.565C987.112 279.944 988.645 279.565 989.532 278.712L990.501 278.048C991.684 277.793 992.948 277.694 994.203 277.76C995.459 277.826 996.674 278.053 997.762 278.427C998.513 279.026 999.442 279.54 1000.51 279.944C1000.95 280.058 1001.43 280.117 1001.92 280.117C1002.4 280.117 1002.88 280.058 1003.33 279.944C1003.97 279.944 1004.54 278.854 1004.22 278.664C1001.47 277.194 1000.42 276.198 1005.83 275.582H1007.2C1007.48 275.324 1007.65 275.027 1007.67 274.721C1007.7 274.414 1007.59 274.109 1007.35 273.835C1007.12 273.562 1006.76 273.33 1006.33 273.162C1005.89 272.994 1005.38 272.897 1004.86 272.879C1002.52 272.595 995.664 272.879 995.826 273.875V274.823V275.298C995.09 275.471 994.294 275.536 993.506 275.486C992.718 275.437 991.963 275.274 991.307 275.013L992.437 274.207V273.922C993.002 273.638 992.437 273.211 991.63 272.927H990.42C988.237 274.815 986.651 276.919 985.74 279.138L986.063 279.565ZM1041.41 226.884C1038.34 227.785 1037.54 228.639 1039.8 228.734C1042.06 228.829 1045.53 231.674 1046.33 232.337C1047.14 233.001 1051.42 233.475 1051.5 233.618C1051.58 233.76 1051.5 234.329 1050.61 234.661C1050.29 234.819 1050.05 235.03 1049.94 235.267C1049.82 235.503 1049.83 235.755 1049.96 235.989C1049.96 236.463 1053.11 235.989 1055.61 234.187L1056.58 232.527L1058.11 230.061C1054.15 228.848 1049.87 228.031 1045.44 227.643L1042.86 227.169L1041.41 226.884ZM1683.63 58.0788C1682.35 57.8604 1681.02 57.7644 1679.68 57.7943C1678.41 58.3692 1677.25 59.0208 1676.21 59.7384C1675.08 60.5445 1680.73 62.4886 1684.28 61.6825L1687.18 60.9238L1688.39 60.5919C1690.01 59.9755 1685.33 58.4581 1683.63 58.221V58.0788ZM1826.28 30.6241C1826.82 30.9576 1827.52 31.183 1828.29 31.2682C1829.05 31.3533 1829.85 31.2939 1830.55 31.0983C1832.41 30.6024 1834.15 29.9647 1835.72 29.2016C1835.72 29.2016 1835.72 28.3481 1834.51 28.3955H1832.57C1831.2 28.3955 1830.72 28.0636 1831.52 27.4946V26.973V26.5462C1831.52 26.0721 1829.51 25.9772 1828.05 26.5462C1827.24 27.0998 1826.66 27.7558 1826.35 28.4631C1826.05 29.1704 1826.02 29.91 1826.28 30.6241ZM1724.62 47.2202C1724.36 47.0579 1724.04 46.934 1723.68 46.8586C1723.32 46.7832 1722.94 46.7583 1722.56 46.786C1722.18 46.8137 1721.82 46.8932 1721.51 47.0181C1721.19 47.1429 1720.93 47.3096 1720.75 47.5047C1718.17 48.6153 1715.47 49.6289 1712.68 50.5394C1712.52 50.8434 1712.55 51.1702 1712.75 51.4642C1712.96 51.7581 1713.33 52.001 1713.81 52.1516H1714.29L1716.39 51.4403C1718.83 51.2937 1721.25 51.0721 1723.65 50.7765C1725.27 50.1601 1725.91 47.6469 1724.62 47.2202ZM1547.12 94.0685C1547.93 94.3056 1548.41 93.2624 1548.25 91.6976L1552.77 93.4047L1555.35 94.4004C1556.59 93.6636 1557.52 92.7721 1558.09 91.7925C1558.09 91.2709 1557.69 89.8484 1556.8 89.8484C1554.2 90.0804 1551.74 90.6827 1549.62 91.6028L1546.88 91.9347C1546.88 91.9347 1546.48 93.1202 1546.88 93.6418L1547.12 94.0685ZM1336.62 151.823C1337.91 153.008 1339.93 153.103 1341.22 151.823C1343.45 150.473 1345.91 149.265 1348.56 148.219C1349.37 147.935 1346.95 146.749 1344.69 146.322L1343.97 146.702C1341.31 147.871 1339.04 149.318 1337.27 150.969L1336.62 151.823ZM1094.34 222.664C1095.87 223.139 1097.08 222.664 1096.92 221.005C1096.76 219.345 1093.45 217.638 1092.48 217.78C1091.51 217.923 1089.17 218.634 1090.38 218.824C1091.59 219.013 1093.29 219.582 1092.16 219.724C1091.03 219.867 1090.55 221.194 1091.59 221.953L1093.21 222.332L1094.34 222.664ZM1788.2 32.6157C1787.63 32.3312 1786.58 32.6157 1785.94 33.7063L1784.89 34.2278L1783.19 35.0339C1781.54 35.5204 1780 36.1257 1778.6 36.8358C1778.44 37.1442 1778.48 37.4767 1778.72 37.7668C1778.96 38.0568 1779.38 38.2832 1779.89 38.4006H1782.31C1783.86 37.8039 1785.3 37.1038 1786.58 36.3142C1787.82 35.1746 1788.34 33.8143 1788.04 32.4734L1788.2 32.6157ZM1591.5 81.5029C1592.06 81.7874 1592.71 81.2184 1593.03 80.2227C1593.35 79.2269 1601.1 80.2227 1603.36 80.2227L1605.78 79.9856C1605.78 79.4166 1604.16 78.7053 1602.55 78.3734C1599.83 78.1871 1597.07 78.3655 1594.48 78.895C1592.95 79.2743 1590.93 81.2184 1591.5 81.5029ZM978.318 251.873C977.592 249.408 975.978 248.365 974.687 249.597C973.396 250.83 972.912 253.675 976.381 253.249L977.753 252.253L978.318 251.873ZM1766.01 41.2456C1768.27 41.2456 1770.29 40.6766 1770.45 40.0128L1771.09 39.6808C1772.54 38.8747 1774.16 38.0686 1771.58 37.31H1770.85C1768.99 38.0212 1765.53 39.4912 1762.78 40.6766H1759.31H1758.75C1757.46 40.8189 1763.67 41.2456 1766.01 41.2456ZM1472.49 111.328C1470.39 113.557 1471.52 114.742 1474.99 113.984L1475.96 110.807C1475.96 110.807 1476.52 110.57 1476.69 110.427V110.096C1476.69 109.669 1475.8 109.337 1474.43 109.289V109.527L1472.49 111.328ZM1018.82 271.267C1017.85 271.267 1018.09 271.836 1019.38 272.358C1020.68 272.879 1025.11 271.504 1026.81 271.172H1028.34C1029.67 271.08 1030.99 270.938 1032.29 270.745C1032.29 270.745 1032.78 270.129 1032.29 269.845V269.56C1030.52 269.062 1028.65 268.696 1026.73 268.469C1024.47 267.948 1019.87 271.22 1018.82 271.267ZM1037.86 262.258C1037.13 266.715 1037.13 266.715 1047.14 269.038L1037.86 262.258Z"
    fill="#F8F8F8"
  />
  <path
    d="M1324.5 143.952C1327.32 145.517 1329.26 146.987 1328.86 147.176C1328.26 147.329 1327.61 147.408 1326.96 147.408C1326.31 147.408 1325.66 147.329 1325.07 147.176C1323.77 146.655 1320.79 144.568 1322.64 144.189L1323.53 143.904C1324.26 143.62 1325.15 143.193 1325.15 142.861C1325.15 142.529 1324.18 142.055 1323.37 141.866C1322.56 141.676 1321.84 141.866 1321.27 141.866C1320.71 141.866 1318.69 141.012 1318.85 140.728L1319.98 138.736C1321.03 139.874 1323.05 140.49 1324.42 140.064C1325.79 139.637 1328.86 138.214 1329.66 138.783C1330.73 139.502 1331.92 140.154 1333.21 140.728C1333.64 140.07 1333.64 139.346 1333.21 138.689L1332.81 137.788C1332.08 136.413 1332.81 136.27 1336.44 136.365C1336.95 136.409 1337.47 136.409 1337.97 136.365H1338.78C1339.59 136.365 1340.07 136.982 1339.91 137.693H1339.43C1335.47 138.025 1334.42 138.689 1337.49 140.301C1338.78 140.965 1338.62 141.723 1336.04 142.15C1333.46 142.577 1332.81 143.667 1331.04 143.81L1324.5 143.952Z"
    fill="#F8F8F8"
  />
  <path
    d="M1223.82 169.416C1224.11 168.954 1224.66 168.565 1225.38 168.314C1226.1 168.063 1226.95 167.967 1227.77 168.041C1229.39 168.041 1233.91 167.472 1235.36 168.61C1236.81 169.748 1232.37 172.735 1233.42 173.351C1234.47 173.968 1231.57 175.817 1229.06 175.485C1226.56 175.153 1223.01 172.261 1224.3 172.024H1225.19H1226.72C1228.02 171.597 1228.34 170.791 1227.53 170.317H1226.48L1223.82 169.416Z"
    fill="#F8F8F8"
  />
  <path
    d="M1248.6 165.146C1250.45 165.668 1249.57 167.707 1246.58 169.888L1242.63 168.323L1239.32 166.996C1239.89 164.767 1246.34 164.625 1248.6 165.146Z"
    fill="#F8F8F8"
  />
  <path
    d="M1482.58 93.4992C1481.93 94.0208 1480.72 93.8312 1479.99 93.0725C1479.27 92.3138 1484.92 91.081 1486.37 90.749C1487.82 90.4171 1492.98 89.611 1493.71 90.0378C1494.44 90.4645 1494.44 91.5077 1492.34 91.4129C1490.24 91.318 1488.95 94.1157 1488.47 94.1631C1487.98 94.2105 1482.98 92.9777 1482.58 93.4992Z"
    fill="#F8F8F8"
  />
  <path
    d="M1216.33 162.207C1216.33 161.212 1216.33 160.69 1217.3 161.117C1219 161.598 1220.9 161.795 1222.78 161.686C1224.78 161.481 1226.83 161.481 1228.83 161.686C1230.69 161.686 1234.97 162.492 1234.48 162.776C1233.11 163.144 1231.63 163.369 1230.12 163.44C1228.75 163.44 1227.87 165.1 1226.33 164.531C1223.92 163.907 1221.44 163.384 1218.91 162.966L1217.38 162.397L1216.33 162.207Z"
    fill="#F8F8F8"
  />
  <path
    d="M1471.57 98.2885C1470.44 98.9049 1470.04 99.6635 1470.77 99.9955C1471.49 100.327 1471.9 101.323 1470.2 101.465C1468.51 101.608 1465.2 99.2368 1465.04 97.7669L1467.7 97.0082L1469.88 96.3918C1473.11 96.2021 1472.7 97.672 1471.57 98.2885Z"
    fill="#F8F8F8"
  />
  <path
    d="M1246.74 156.281C1244.32 156.897 1242.79 156.66 1243.35 155.712C1243.92 154.764 1245.69 152.203 1247.22 152.203C1248.76 152.203 1249.24 155.475 1246.74 156.281Z"
    fill="#F8F8F8"
  />
  <path
    d="M1408.91 105.971C1411.25 107.583 1410.93 108.958 1408.27 109.1C1405.6 109.242 1401.65 111.898 1399.15 111.281L1397.38 110.712C1397.38 110.712 1398.1 109.29 1398.34 109.29C1399.68 109.408 1401.05 109.342 1402.34 109.095C1403.63 108.848 1404.8 108.427 1405.77 107.867L1408.91 105.971Z"
    fill="#F8F8F8"
  />
  <path
    d="M1283.03 152.203C1283.26 152.389 1283.38 152.613 1283.38 152.843C1283.38 153.073 1283.26 153.297 1283.03 153.483C1282.27 154.122 1281.88 154.886 1281.9 155.665C1281.9 156.376 1281.34 158.13 1280.69 157.941C1280.05 157.751 1276.33 156.186 1273.67 155.001L1275.53 153.815C1276.9 152.867 1280.61 152.677 1283.6 152.251L1283.03 152.203Z"
    fill="#F8F8F8"
  />
  <path
    d="M1256.64 160.17C1257.29 160.928 1256.64 161.592 1255.67 161.592C1254.7 161.592 1250.35 161.829 1251.64 162.066C1252.93 162.304 1255.19 163.252 1253.49 163.299C1251.8 163.347 1247.04 162.873 1246.39 161.924C1245.75 160.976 1251.48 159.838 1251.56 159.221C1251.64 158.605 1255.83 159.364 1256.64 160.17Z"
    fill="#F8F8F8"
  />
  <path
    d="M1259.15 164.103C1258.27 162.633 1259.15 161.685 1260.52 162.017C1261.9 162.348 1264.8 159.93 1265.53 159.741C1266.25 159.551 1268.27 159.741 1268.11 159.741C1267.95 159.741 1269.24 161.258 1269.56 161.59C1269.88 161.922 1268.27 162.633 1264.48 161.59L1261.09 163.06L1259.15 164.103Z"
    fill="#F8F8F8"
  />
  <path
    d="M1007.26 284.544C1009.68 284.828 1010.97 285.729 1010 286.583H1009.19C1007.53 286.663 1005.86 286.483 1004.35 286.061L999.592 284.307C999.592 286.108 998.866 286.962 998.543 286.203C998.22 285.445 1004.76 284.307 1007.26 284.544Z"
    fill="#F8F8F8"
  />
  <path
    d="M1446.26 107.535C1442.31 106.729 1442.47 106.823 1446.26 107.819L1450.14 106.207L1450.86 105.875C1454.33 106.823 1454.82 108.388 1451.91 109.431L1449.01 108.53L1446.26 107.535Z"
    fill="#F8F8F8"
  />
  <path
    d="M1351.06 132.571C1351.61 132.632 1352.18 132.603 1352.71 132.486C1353.23 132.369 1353.69 132.169 1354.04 131.907C1354.69 131.386 1357.67 130.2 1358.16 131.054V131.433C1357.75 132.05 1356.46 132.524 1356.14 133.14L1355.65 134.041C1354.81 134.38 1353.81 134.561 1352.79 134.561C1351.77 134.561 1350.77 134.38 1349.93 134.041L1348.64 133.235L1348.23 132.998C1347.02 132.571 1350.09 132.571 1351.06 132.571Z"
    fill="#F8F8F8"
  />
  <path
    d="M1328.32 129.489C1331.46 129.916 1333.08 130.959 1331.95 131.765C1330.82 132.571 1325.9 131.196 1325.09 131.101V132.476C1325.09 132.761 1323.88 133.235 1323.64 133.187L1322.1 132.855C1320.09 132.571 1325.25 129.015 1328.32 129.489Z"
    fill="#F8F8F8"
  />
  <path
    d="M1236.32 154.29C1236.32 153.057 1236.96 152.488 1238.5 153.057C1240.03 153.626 1237.93 156.187 1235.59 157.325L1233.17 158.273C1232.56 158.227 1231.99 158.06 1231.56 157.799C1231.56 157.799 1231.07 156.993 1231.56 156.851C1232.04 156.709 1235.11 155.855 1235.67 155.144L1236.32 154.29Z"
    fill="#F8F8F8"
  />
  <path
    d="M1184.05 195.353C1183.32 196.396 1182.27 197.06 1181.71 196.823L1180.74 196.159L1179.93 195.638C1179.45 194.974 1179.93 194.595 1179.93 194.784C1181.52 194.821 1183.1 194.626 1184.53 194.215C1185.66 193.883 1188.89 193.219 1188.97 193.551C1189.05 193.883 1190.5 194.689 1191.23 195.021C1191.96 195.353 1190.42 196.586 1188.97 196.918L1187.2 196.396L1184.05 195.353Z"
    fill="#F8F8F8"
  />
</svg>
