<svg width="297" height="70" viewBox="0 0 297 70" fill="none" xmlns="http://www.w3.org/2000/svg">
  <path
    d="M64.5586 26.6055C63.7656 27.2891 62.6172 28.2871 61.1133 29.5996C58.3242 32.0605 54.7148 35.1777 50.2852 38.9512C45.8555 42.7246 41.084 46.6074 35.9707 50.5996C30.8848 54.6191 25.9492 58.2012 21.1641 61.3457C16.3789 64.5176 12.2227 66.7188 8.69531 67.9492C5.19531 69.1797 2.81641 68.9199 1.55859 67.1699C0.519531 65.4473 0.369141 62.9727 1.10742 59.7461C1.8457 56.5195 3.24023 52.9922 5.29102 49.1641C7.3418 45.3359 9.83008 41.6582 12.7559 38.1309C15.709 34.6035 18.8809 31.6914 22.2715 29.3945C25.6621 27.0703 29.0527 25.8125 32.4434 25.6211C35.834 25.4023 39.0195 26.7148 42 29.5586C42.3281 29.8867 42.4102 30.2422 42.2461 30.625C42.082 30.9805 41.8223 31.2812 41.4668 31.5273C41.1113 31.7188 40.6191 31.6914 39.9902 31.4453C39.3887 31.1992 38.8691 30.8711 38.4316 30.4609C38.0215 30.0508 37.9258 29.6816 38.1445 29.3535C34.9727 27.5215 31.6094 27.3301 28.0547 28.7793C24.5 30.2012 21.0547 32.6211 17.7188 36.0391C14.4102 39.4297 11.498 43.1621 8.98242 47.2363C6.49414 51.3105 4.68945 55.084 3.56836 58.5566C2.47461 62.0293 2.37891 64.5586 3.28125 66.1445C4.18359 67.3477 6.17969 67.252 9.26953 65.8574C12.3594 64.4629 16.0781 62.248 20.4258 59.2129C24.8008 56.1777 29.3262 52.8008 34.002 49.082C38.7051 45.3906 43.0938 41.8359 47.168 38.418C51.2695 34.9727 54.6055 32.1426 57.1758 29.9277C57.6953 29.4629 58.1738 29.0527 58.6113 28.6973C59.623 27.8223 59.9512 27.3574 59.5957 27.3027C59.2676 27.248 58.4883 27.3848 57.2578 27.7129C56.9023 27.7949 56.5195 27.877 56.1094 27.959C55.0156 28.2324 54.0586 28.4648 53.2383 28.6562C52.418 28.8477 51.5977 29.0527 50.7773 29.2715C49.957 29.4629 49 29.6816 47.9062 29.9277C47.8242 30.2832 47.5918 30.4746 47.209 30.502C46.8262 30.5293 46.4434 30.4473 46.0605 30.2559C45.6777 30.0371 45.418 29.7637 45.2812 29.4355C45.1719 29.1074 45.3086 28.7793 45.6914 28.4512C46.1016 28.0957 46.9219 27.7812 48.1523 27.5078C52.8281 26.3594 57.5176 25.2793 62.2207 24.2676C62.4121 24.2129 62.6035 24.1719 62.7949 24.1445C63.5332 24.0078 64.0664 23.8438 64.3945 23.6523C64.75 23.4609 65.2012 23.1328 65.748 22.668C65.7754 22.6406 65.8027 22.6133 65.8301 22.5859C67.1152 21.5195 68.4141 20.4258 69.7266 19.3047C73.1172 16.4336 76.5625 13.5898 80.0625 10.7734C83.5898 7.95703 87.1582 5.3457 90.7676 2.93945C91.3145 2.58398 92.1074 2.17383 93.1465 1.70898C94.1855 1.2168 95.2383 0.820312 96.3047 0.519531C97.3711 0.21875 98.1914 0.164062 98.7656 0.355469C99.3398 0.519531 99.4355 1.08008 99.0527 2.03711C98.3965 3.45898 97.166 5.60547 95.3613 8.47656C93.5566 11.3203 91.9297 13.8223 90.4805 15.9824C89.7969 17.0762 89.3047 17.8418 89.0039 18.2793C88.9219 18.416 88.8398 18.5254 88.7578 18.6074C88.6211 18.7715 88.5527 18.8945 88.5527 18.9766C88.5527 19.0586 88.6758 19.0859 88.9219 19.0586C89.6602 18.9219 90.7539 18.7715 92.2031 18.6074C93.6797 18.416 95.1289 18.3066 96.5508 18.2793C98 18.252 99.0664 18.375 99.75 18.6484C100.133 18.8945 100.338 19.1406 100.365 19.3867C100.42 19.6055 100.324 19.7695 100.078 19.8789C99.8594 19.9609 99.5723 19.9199 99.2168 19.7559C98.752 19.5918 97.7949 19.5918 96.3457 19.7559C94.8965 19.8926 93.3926 20.084 91.834 20.3301C90.3027 20.5762 89.168 20.7676 88.4297 20.9043C88.3477 20.9316 88.2656 20.9453 88.1836 20.9453C87.7188 21.0273 87.3633 21.1777 87.1172 21.3965C86.8984 21.6152 86.6934 21.916 86.502 22.2988C86.4199 22.3809 86.3516 22.4902 86.2969 22.627C84.1367 26.0176 81.9629 29.4219 79.7754 32.8398C73.6504 42.2734 67.7578 51.8027 62.0977 61.4277C61.9336 61.7832 61.8379 62.1523 61.8105 62.5352C61.8105 62.8359 61.7559 63.0957 61.6465 63.3145C61.5645 63.5332 61.3594 63.6973 61.0312 63.8066C60.7305 63.916 60.4434 63.8613 60.1699 63.6426C59.9238 63.4238 59.7871 63.0137 59.7598 62.4121C59.7598 61.8379 59.9922 61.0586 60.457 60.0742C67.2383 48.4258 74.293 36.9824 81.6211 25.7441C82.25 24.7598 82.8789 23.7754 83.5078 22.791C83.8086 22.3535 83.918 22.0801 83.8359 21.9707C83.7539 21.8613 83.4668 21.8613 82.9746 21.9707C77.916 22.9824 72.8848 24.0762 67.8809 25.252C67.334 25.3613 66.8008 25.4844 66.2812 25.6211C65.8984 25.7031 65.584 25.8262 65.3379 25.9902C65.1191 26.127 64.8867 26.3184 64.6406 26.5645C64.6133 26.5645 64.5859 26.5781 64.5586 26.6055ZM70.0137 21.9707C69.4395 22.5176 69.3984 22.7363 69.8906 22.627C70.3555 22.5449 70.834 22.4492 71.3262 22.3398C75.5371 21.4102 79.8027 20.5762 84.123 19.8379C84.8066 19.7559 85.2715 19.6191 85.5176 19.4277C85.7637 19.2363 86.0098 18.9082 86.2559 18.4434C86.3652 18.252 86.502 18.0195 86.666 17.7461C87.1035 17.0898 87.7461 16.1191 88.5938 14.834C89.7969 13.002 91.0684 11.0332 92.4082 8.92773C93.7754 6.82227 94.8555 5.11328 95.6484 3.80078C95.8398 3.39062 95.8262 3.17188 95.6074 3.14453C95.3887 3.08984 95.0469 3.1582 94.582 3.34961C94.1172 3.54102 93.625 3.77344 93.1055 4.04688C92.6133 4.32031 92.1895 4.58008 91.834 4.82617C88.3887 7.0957 85.0117 9.55664 81.7031 12.209C78.4219 14.8613 75.1953 17.541 72.0234 20.248C71.3398 20.8223 70.6699 21.3965 70.0137 21.9707ZM79.3652 49.2461C79.9121 47.9062 80.7461 46.2793 81.8672 44.3652C82.9609 42.4512 84.0273 40.6191 85.0664 38.8691C85.6406 37.9395 86.1328 37.1328 86.543 36.4492C86.3789 36.2305 86.2969 35.998 86.2969 35.752C86.2969 35.5059 86.3789 35.2871 86.543 35.0957C87.2539 34.3301 87.7734 33.9062 88.1016 33.8242L88.1836 33.7832C88.4297 33.7012 88.6484 33.7012 88.8398 33.7832C89.25 33.9199 89.5098 34.1797 89.6191 34.5625C89.6191 34.5898 89.6191 34.6309 89.6191 34.6855C89.6191 34.7129 89.6191 34.7402 89.6191 34.7676C89.6191 35.0137 89.5508 35.2598 89.4141 35.5059C88.4023 37.1465 87.2676 39.0195 86.0098 41.125C84.7793 43.2031 83.6855 45.0898 82.7285 46.7852C83.3848 46.1562 84.4375 45.2539 85.8867 44.0781C87.3633 42.875 88.8262 41.7676 90.2754 40.7559C91.752 39.7168 92.8047 39.1699 93.4336 39.1152C94.418 39.1426 94.9785 39.5391 95.1152 40.3047C95.252 41.043 95.252 41.877 95.1152 42.8066C95.0332 43.5176 95.0195 44.1328 95.0742 44.6523C95.1289 45.1445 95.4023 45.3906 95.8945 45.3906C96.4141 45.3906 97.2891 44.9805 98.5195 44.1602C98.875 43.9414 99.1211 43.8867 99.2578 43.9961C99.4219 44.1055 99.4766 44.2969 99.4219 44.5703C99.3672 44.8164 99.2168 45.0215 98.9707 45.1855C96.5098 46.7441 94.8828 47.0449 94.0898 46.0879C93.2969 45.1035 93.0918 43.4355 93.4746 41.084C92.9004 41.1387 92.0391 41.6309 90.8906 42.5605C89.7422 43.4629 88.498 44.5156 87.1582 45.7188C85.9824 46.7578 84.8613 47.7148 83.7949 48.5898C82.7285 49.4648 81.8262 50.0938 81.0879 50.4766C80.541 50.7227 80.0762 50.7227 79.6934 50.4766C79.3105 50.2305 79.2012 49.8203 79.3652 49.2461ZM95.6484 49.5332C95.8672 49.3965 96.127 49.0137 96.4277 48.3848C96.7285 47.7559 97.0703 46.9902 97.4531 46.0879C98.1641 44.2832 98.998 42.5195 99.9551 40.7969C100.912 39.0742 101.992 38.1035 103.195 37.8848C103.578 37.9668 103.865 38.1582 104.057 38.459C104.248 38.7324 104.193 39.0605 103.893 39.4434C103.428 40.0723 103.018 40.5781 102.662 40.9609C102.334 41.3164 101.992 41.6719 101.637 42.0273C101.281 42.3828 100.844 42.834 100.324 43.3809C99.9688 44.2832 99.627 45.1855 99.2988 46.0879C99.1621 46.5254 99.0117 46.9492 98.8477 47.3594C98.7656 47.6602 98.7109 47.8789 98.6836 48.0156C98.6836 48.125 98.7246 48.1797 98.8066 48.1797C98.916 48.1797 99.0527 48.1523 99.2168 48.0977C99.2441 48.0703 99.2715 48.0566 99.2988 48.0566C99.8457 47.8926 100.229 47.9062 100.447 48.0977C100.666 48.2617 100.734 48.4805 100.652 48.7539C100.57 49.0273 100.365 49.2598 100.037 49.4512C99.7363 49.6152 99.4355 49.7109 99.1348 49.7383C98.7793 49.793 98.4375 49.9297 98.1094 50.1484C97.918 50.2852 97.7266 50.4902 97.5352 50.7637C97.3438 51.0371 97.1797 51.2969 97.043 51.543C96.0039 53.5391 94.5273 55.4121 92.6133 57.1621C90.6992 58.9121 88.4297 59.9648 85.8047 60.3203C83.7539 60.5117 82.7559 60.252 82.8105 59.541C82.8652 58.8301 83.5898 57.8594 84.9844 56.6289C86.3516 55.4258 88.0195 54.1816 89.9883 52.8965C91.957 51.6113 93.8438 50.4902 95.6484 49.5332ZM93.5566 53.4297C93.6934 53.2656 93.8438 53.0742 94.0078 52.8555C94.1719 52.6641 94.3086 52.4727 94.418 52.2812C94.5273 52.0898 94.582 51.9395 94.582 51.8301C94.582 51.748 94.5 51.7344 94.3359 51.7891C93.7344 52.0625 92.9141 52.5547 91.875 53.2656C90.8086 54.0039 89.7285 54.7832 88.6348 55.6035C87.541 56.4512 86.666 57.1758 86.0098 57.7773C85.3262 58.3789 85.0664 58.6934 85.2305 58.7207C86.1328 58.7754 87.4316 58.2695 89.127 57.2031C90.8223 56.1641 92.2988 54.9062 93.5566 53.4297ZM107.502 43.4629C107.502 43.4629 107.516 43.4492 107.543 43.4219C107.707 43.2852 108.104 42.916 108.732 42.3145L128.748 10.1582C130.225 9.22852 131.195 8.99609 131.66 9.46094C132.125 9.89844 132.275 10.7187 132.111 11.9219C131.975 13.0977 131.701 14.3008 131.291 15.5312C130.881 16.7617 130.539 17.6914 130.266 18.3203C128.543 22.0117 126.273 25.6758 123.457 29.3125C120.641 32.9219 117.92 36.0938 115.295 38.8281C112.67 41.5625 110.797 43.4355 109.676 44.4473L107.256 48.0977C106.545 49.1367 106.34 49.5742 106.641 49.4102C106.941 49.2734 107.557 48.7812 108.486 47.9336C110.674 45.8828 113.039 43.75 115.582 41.5352C118.152 39.3203 120.545 37.4883 122.76 36.0391C125.002 34.5625 126.725 33.9336 127.928 34.1523C129.514 34.5625 129.855 36.3945 128.953 39.6484C128.297 42.2188 128.01 44.1602 128.092 45.4727C128.201 46.7852 128.57 47.5371 129.199 47.7285C130.895 48.166 133.971 47.0723 138.428 44.4473C138.701 44.2832 138.934 44.2695 139.125 44.4062C139.344 44.543 139.439 44.748 139.412 45.0215C139.412 45.2676 139.234 45.5137 138.879 45.7598C136.5 47.2637 134.449 48.3574 132.727 49.041C131.031 49.7246 129.623 49.8887 128.502 49.5332C125.959 48.8496 125.562 45.2812 127.312 38.8281C127.859 36.668 127.6 35.7109 126.533 35.957C125.467 36.2031 123.936 37.1602 121.939 38.8281C119.943 40.4688 117.811 42.3555 115.541 44.4883C112.943 46.8945 110.605 48.9316 108.527 50.5996C106.449 52.2676 105.082 52.8965 104.426 52.4863C103.961 52.1582 103.77 51.6934 103.852 51.0918C103.934 50.5176 104.152 49.9023 104.508 49.2461C104.836 48.5898 105.15 48.0293 105.451 47.5645C105.561 47.4004 105.656 47.25 105.738 47.1133L106.682 45.5957C106.928 45.1035 107.078 44.666 107.133 44.2832C107.188 43.9277 107.311 43.6543 107.502 43.4629ZM119.068 29.9277C115.486 35.3145 115.773 35.4102 119.93 30.2148C122.801 26.8789 125.193 23.4199 127.107 19.8379C128.229 17.6504 128.844 16.3105 128.953 15.8184C129.09 15.3262 128.871 15.4355 128.297 16.1465C127.723 16.8574 126.957 17.9102 126 19.3047C125.07 20.6992 124.1 22.1758 123.088 23.7344C122.076 25.2656 121.201 26.6191 120.463 27.7949C119.752 28.8887 119.287 29.5996 119.068 29.9277ZM142.816 41.084C142.762 41.1387 142.68 41.1797 142.57 41.207C142.488 41.2344 142.393 41.2617 142.283 41.2891C142.201 41.3164 142.146 41.3711 142.119 41.4531C141.764 41.9453 141.367 42.5879 140.93 43.3809C140.492 44.1738 140.123 44.9805 139.822 45.8008C139.549 46.5938 139.439 47.2773 139.494 47.8516C139.549 48.3984 139.904 48.6719 140.561 48.6719C142.666 48.4531 145.045 47.4277 147.697 45.5957C150.35 43.7637 152.633 42.041 154.547 40.4277C154.902 40.1543 155.217 39.9082 155.49 39.6895C155.982 39.252 156.57 38.8145 157.254 38.377C157.938 37.9395 158.594 37.6523 159.223 37.5156C159.852 37.3789 160.303 37.5293 160.576 37.9668C160.631 38.623 160.508 39.4434 160.207 40.4277C159.688 42.7793 159.77 44.2969 160.453 44.9805C161.137 45.6641 162.189 45.8281 163.611 45.4727C165.061 45.1172 166.646 44.5566 168.369 43.791C168.916 43.5176 169.285 43.4355 169.477 43.5449C169.668 43.6543 169.709 43.8457 169.6 44.1191C169.49 44.3926 169.23 44.625 168.82 44.8164C166.879 45.8281 165.006 46.5254 163.201 46.9082C161.424 47.2637 160.002 47.0996 158.936 46.416C157.869 45.7324 157.445 44.3242 157.664 42.1914C157.801 41.2344 157.76 40.7422 157.541 40.7148C157.35 40.6875 156.844 41.0293 156.023 41.7402C155.996 41.7676 155.955 41.7949 155.9 41.8223C155.682 42.0137 155.436 42.2188 155.162 42.4375C153.221 44.1055 150.965 45.7871 148.395 47.4824C145.824 49.1777 143.322 50.1211 140.889 50.3125C140.014 50.3398 139.262 50.1895 138.633 49.8613C137.648 49.123 137.225 48.1523 137.361 46.9492C137.471 45.7461 137.854 44.5156 138.51 43.2578C139.166 42 139.781 40.9336 140.355 40.0586C140.492 39.8125 140.615 39.5938 140.725 39.4023C140.998 38.9922 141.354 38.6914 141.791 38.5C142.256 38.2812 142.652 38.1992 142.98 38.2539C143.281 38.2812 143.514 38.377 143.678 38.541C143.869 38.7051 143.91 38.9922 143.801 39.4023C143.691 39.8125 143.363 40.373 142.816 41.084ZM209.18 31.1582C208.168 30.8848 207.252 30.4199 206.432 29.7637C205.611 29.1074 205.051 28.2598 204.75 27.2207C204.23 24.7051 205.283 22.0254 207.908 19.1816C210.561 16.3105 213.965 13.5898 218.121 11.0195C222.277 8.42187 226.365 6.28906 230.385 4.62109C234.404 2.95312 237.549 2.06445 239.818 1.95508C243.318 1.92773 245.725 2.81641 247.037 4.62109C248.377 6.42578 248.965 8.69531 248.801 11.4297C248.664 14.1641 248.158 16.9258 247.283 19.7148C246.408 22.5039 245.506 24.8691 244.576 26.8105C244.275 27.3301 244.385 27.6172 244.904 27.6719C245.424 27.7266 246.121 27.6855 246.996 27.5488C247.188 27.5215 247.393 27.4941 247.611 27.4668C248.021 27.4668 248.336 27.6035 248.555 27.877C248.801 28.123 248.883 28.3965 248.801 28.6973C248.746 28.9707 248.445 29.1484 247.898 29.2305C247.379 29.2852 246.859 29.3535 246.34 29.4355C245.656 29.5449 244.959 29.627 244.248 29.6816C243.674 29.7363 243.291 29.8457 243.1 30.0098C242.908 30.1465 242.717 30.4199 242.525 30.8301C242.443 30.9941 242.348 31.1719 242.238 31.3633C239.066 37.1055 235.061 42.7383 230.221 48.2617C225.381 53.7578 219.939 58.4609 213.896 62.3711C207.854 66.2812 201.469 68.7012 194.742 69.6309C193.348 69.8496 191.666 69.959 189.697 69.959C187.756 69.959 185.91 69.6855 184.16 69.1387C182.438 68.5918 181.193 67.5664 180.428 66.0625C179.416 63.5469 179.881 60.8809 181.822 58.0645C183.791 55.248 186.471 52.5273 189.861 49.9023C193.279 47.2773 196.67 44.9805 200.033 43.0117C203.396 41.043 205.967 39.6348 207.744 38.7871C217.998 33.9473 228.689 30.502 239.818 28.4512C240.064 28.4238 240.27 28.3965 240.434 28.3691C240.762 28.3145 241.008 28.2598 241.172 28.2051C241.363 28.123 241.514 28 241.623 27.8359C241.76 27.6445 241.924 27.3301 242.115 26.8926C243.482 23.9941 244.617 21 245.52 17.9102C246.094 15.9414 246.463 13.9043 246.627 11.7988C246.791 9.66602 246.395 7.86133 245.438 6.38477C244.48 4.9082 242.621 4.16992 239.859 4.16992C238.191 4.25195 235.84 4.89453 232.805 6.09766C229.77 7.27344 226.543 8.79102 223.125 10.6504C219.707 12.5098 216.576 14.5059 213.732 16.6387C210.916 18.7441 208.865 20.7812 207.58 22.75C206.322 24.7188 206.322 26.3867 207.58 27.7539C207.771 27.8906 207.922 27.9863 208.031 28.041C208.168 28.0684 208.277 28.0684 208.359 28.041C208.441 27.9863 208.51 27.9316 208.564 27.877C208.674 27.7949 208.77 27.7402 208.852 27.7129C208.961 27.6855 209.111 27.7129 209.303 27.7949C209.494 27.877 209.727 28.0684 210 28.3691C210.738 29.1348 211.039 29.8594 210.902 30.543C210.793 31.1992 210.219 31.4043 209.18 31.1582ZM239.695 31.3223C239.777 31.1582 239.859 31.0215 239.941 30.9121C240.188 30.584 240.27 30.4062 240.188 30.3789C240.105 30.3242 239.791 30.3516 239.244 30.4609C228.471 32.4844 218.162 35.9023 208.318 40.7148C206.896 41.3984 204.641 42.6699 201.551 44.5293C198.488 46.3887 195.316 48.5488 192.035 51.0098C188.754 53.4707 186.115 55.959 184.119 58.4746C182.123 60.9902 181.508 63.2324 182.273 65.2012C182.848 66.2949 183.873 67.0059 185.35 67.334C186.854 67.6895 188.412 67.8398 190.025 67.7852C191.666 67.7305 192.979 67.6348 193.963 67.498C200.334 66.5957 206.404 64.2852 212.174 60.5664C217.971 56.8477 223.221 52.3906 227.924 47.1953C232.627 42 236.551 36.709 239.695 31.3223ZM266.355 43.4219C267.094 43.0391 267.531 43.0117 267.668 43.3398C267.805 43.668 267.545 44.0645 266.889 44.5293C265.85 45.1582 264.51 45.7734 262.869 46.375C261.256 46.9492 259.807 47.127 258.521 46.9082C257.236 46.6621 256.566 45.623 256.512 43.791V43.5859C256.539 43.2031 256.512 43.0117 256.43 43.0117C256.348 42.9844 256.115 43.0938 255.732 43.3398C251.494 46.1016 248.377 47.8242 246.381 48.5078C244.412 49.1914 243.25 49.2188 242.895 48.5898C242.457 47.7148 243.004 46.3613 244.535 44.5293C246.066 42.6699 248.035 40.9062 250.441 39.2383C252.875 37.5703 255.199 36.5723 257.414 36.2441C259.629 35.8887 261.188 36.7637 262.09 38.8691C262.172 39.1426 262.131 39.3887 261.967 39.6074C261.803 39.8262 261.584 39.9766 261.311 40.0586C261.037 40.1406 260.723 40.0859 260.367 39.8945C260.039 39.7031 259.807 39.4707 259.67 39.1973C259.67 39.1426 259.684 39.0879 259.711 39.0332C259.738 38.9785 259.766 38.9238 259.793 38.8691C259.82 38.8145 259.848 38.7598 259.875 38.7051C259.902 38.6504 259.902 38.5957 259.875 38.541C259.191 37.6113 258.016 37.4746 256.348 38.1309C254.68 38.7871 252.916 39.8125 251.057 41.207C249.197 42.6016 247.625 43.9277 246.34 45.1855C245.055 46.416 244.453 47.168 244.535 47.4414C244.645 47.7148 245.725 47.2637 247.775 46.0879C249.826 44.9121 253.189 42.7109 257.865 39.4844C258.111 39.3477 258.357 39.3066 258.604 39.3613C258.877 39.3887 259.096 39.5254 259.26 39.7715C259.451 40.0996 259.465 40.4277 259.301 40.7559C258.262 42.998 258.139 44.3789 258.932 44.8984C259.752 45.418 260.914 45.459 262.418 45.0215C263.949 44.584 265.262 44.0508 266.355 43.4219ZM276.486 30.1328C277.225 30.1875 277.566 30.4199 277.512 30.8301C277.457 31.2129 277.184 31.6094 276.691 32.0195C276.227 32.4023 275.721 32.6621 275.174 32.7988C274.654 32.9082 274.271 32.7305 274.025 32.2656C273.971 32.1289 273.984 32.0059 274.066 31.8965C274.176 31.7598 274.312 31.6504 274.477 31.5684C274.668 31.459 274.832 31.3633 274.969 31.2812C275.078 31.2539 275.16 31.2266 275.215 31.1992C275.27 31.1719 275.297 31.1445 275.297 31.1172C275.324 30.8164 275.447 30.5703 275.666 30.3789C275.885 30.1875 276.158 30.1055 276.486 30.1328ZM267.34 49.6152C266.273 49.6152 265.645 49.2734 265.453 48.5898C265.262 47.9062 265.357 47.0449 265.74 46.0059C266.096 44.9395 266.602 43.832 267.258 42.6836C267.914 41.5078 268.57 40.4414 269.227 39.4844C269.883 38.5 270.402 37.748 270.785 37.2285C270.895 37.0371 270.99 36.9004 271.072 36.8184C270.908 36.3809 271.059 35.9023 271.523 35.3828C271.988 34.8359 272.535 34.4395 273.164 34.1934C273.793 33.9199 274.244 33.9609 274.518 34.3164C274.709 34.6172 274.75 34.9043 274.641 35.1777C274.531 35.4512 274.381 35.7109 274.189 35.957C274.135 36.0117 274.08 36.0801 274.025 36.1621C272.986 37.6387 271.852 39.293 270.621 41.125C269.418 42.9297 268.516 44.4473 267.914 45.6777C267.449 46.7441 267.736 47.332 268.775 47.4414C269.842 47.5508 271.209 47.3867 272.877 46.9492C274.572 46.5117 276.117 46.0469 277.512 45.5547C278.934 45.0352 279.781 44.6934 280.055 44.5293C280.355 44.3652 280.588 44.3379 280.752 44.4473C280.943 44.5566 281.025 44.7344 280.998 44.9805C280.971 45.1992 280.779 45.4316 280.424 45.6777C278.646 46.6621 276.322 47.5645 273.451 48.3848C270.607 49.2051 268.57 49.6152 267.34 49.6152ZM276.814 49.2461C277.361 47.9062 278.195 46.2793 279.316 44.3652C280.41 42.4512 281.477 40.6191 282.516 38.8691C283.09 37.9395 283.582 37.1328 283.992 36.4492C283.828 36.2305 283.746 35.998 283.746 35.752C283.746 35.5059 283.828 35.2871 283.992 35.0957C284.703 34.3301 285.223 33.9062 285.551 33.8242L285.633 33.7832C285.879 33.7012 286.098 33.7012 286.289 33.7832C286.699 33.9199 286.959 34.1797 287.068 34.5625C287.068 34.5898 287.068 34.6309 287.068 34.6855C287.068 34.7129 287.068 34.7402 287.068 34.7676C287.068 35.0137 287 35.2598 286.863 35.5059C285.852 37.1465 284.717 39.0195 283.459 41.125C282.229 43.2031 281.135 45.0898 280.178 46.7852C280.834 46.1562 281.887 45.2539 283.336 44.0781C284.812 42.875 286.275 41.7676 287.725 40.7559C289.201 39.7168 290.254 39.1699 290.883 39.1152C291.867 39.1426 292.428 39.5391 292.564 40.3047C292.701 41.043 292.701 41.877 292.564 42.8066C292.482 43.5176 292.469 44.1328 292.523 44.6523C292.578 45.1445 292.852 45.3906 293.344 45.3906C293.863 45.3906 294.738 44.9805 295.969 44.1602C296.324 43.9414 296.57 43.8867 296.707 43.9961C296.871 44.1055 296.926 44.2969 296.871 44.5703C296.816 44.8164 296.666 45.0215 296.42 45.1855C293.959 46.7441 292.332 47.0449 291.539 46.0879C290.746 45.1035 290.541 43.4355 290.924 41.084C290.35 41.1387 289.488 41.6309 288.34 42.5605C287.191 43.4629 285.947 44.5156 284.607 45.7188C283.432 46.7578 282.311 47.7148 281.244 48.5898C280.178 49.4648 279.275 50.0938 278.537 50.4766C277.99 50.7227 277.525 50.7227 277.143 50.4766C276.76 50.2305 276.65 49.8203 276.814 49.2461Z"
    fill="#192A56"
  />
</svg>
